<?xml version="1.0" encoding="UTF-8"?>
<svg width="22px" height="22px" viewBox="0 0 22 22" version="1.1" xmlns="http://www.w3.org/2000/svg" xmlns:xlink="http://www.w3.org/1999/xlink">
    <!-- Generator: Sketch 55.2 (78181) - https://sketchapp.com -->
    <title>Group</title>
    <desc>Created with Sketch.</desc>
    <g id="Page-1" stroke="none" stroke-width="1" fill="none" fill-rule="evenodd" stroke-linecap="round" stroke-linejoin="round">
        <g id="link" transform="translate(1.000000, 1.000000)" stroke="#FFFFFF" stroke-width="2">
            <g id="Group" transform="translate(0.056440, 0.066440)">
                <path d="M7.9435601,10.9335601 C8.81251559,12.095253 10.1431874,12.8222605 11.59021,12.9258934 C13.0372325,13.0295264 14.4579259,12.4995662 15.4835601,11.4735601 L18.4835601,8.4735601 C20.3784212,6.51166567 20.351322,3.39313622 18.422653,1.46446723 C16.493984,-0.464201766 13.3754545,-0.491300944 11.4135601,1.4035601 L9.6935601,3.1135601" id="Path"></path>
                <path d="M11.9435601,8.9335601 C11.0746046,7.77186718 9.7439328,7.04485968 8.29691024,6.94122676 C6.84988767,6.83759385 5.4291943,7.36755398 4.4035601,8.3935601 L1.4035601,11.3935601 C-0.491300944,13.3554545 -0.464201766,16.473984 1.46446723,18.402653 C3.39313622,20.331322 6.51166567,20.3584212 8.4735601,18.4635601 L10.1835601,16.7535601" id="Path"></path>
            </g>
        </g>
    </g>
</svg>