<?xml version="1.0" standalone="no"?>
<!DOCTYPE svg PUBLIC "-//W3C//DTD SVG 1.1//EN" "http://www.w3.org/Graphics/SVG/1.1/DTD/svg11.dtd" >
<svg xmlns="http://www.w3.org/2000/svg" xmlns:xlink="http://www.w3.org/1999/xlink" version="1.1">
<metadata>
Created by FontForge 20170731 at Wed Jul 24 07:54:11 2019
 By Aleksey,,,
Copyright (c) 2015 by Radomir Tinkov. All rights reserved.
</metadata>
<defs>
<font id="Fubonelas-Bold" horiz-adv-x="268" >
  <font-face 
    font-family="Fubonelas"
    font-weight="700"
    font-stretch="normal"
    units-per-em="1000"
    panose-1="0 0 0 0 0 0 0 0 0 0"
    ascent="800"
    descent="-200"
    x-height="500"
    cap-height="700"
    bbox="-415 -263 1128 976"
    underline-thickness="50"
    underline-position="-200"
    unicode-range="U+000D-FB02"
  />
<missing-glyph horiz-adv-x="500" 
d="M93 800h317v-1000h-317v1000zM167 118v-113h166v113h-166zM167 -131h166v33h-102l70 47h32v33h-166v-33h70l-70 -47v-33zM167 291v-113h166v113h-100v-56h34v23h33v-47h-100v80h-33zM167 604v-104h166v34h-66v70h-100zM167 663v-33h166v33h-66v37h66v33h-165v-33h65v-37
h-66zM167 403v-33h100v70h66v33h-166v-33h66v-37h-66zM167 347v-34h166v100h-33v-66h-133zM300 38h-100v47h100v-47zM200 570h33v-36h-33v36z" />
    <glyph glyph-name=".notdef" horiz-adv-x="500" 
d="M93 800h317v-1000h-317v1000zM167 118v-113h166v113h-166zM167 -131h166v33h-102l70 47h32v33h-166v-33h70l-70 -47v-33zM167 291v-113h166v113h-100v-56h34v23h33v-47h-100v80h-33zM167 604v-104h166v34h-66v70h-100zM167 663v-33h166v33h-66v37h66v33h-165v-33h65v-37
h-66zM167 403v-33h100v70h66v33h-166v-33h66v-37h-66zM167 347v-34h166v100h-33v-66h-133zM300 38h-100v47h100v-47zM200 570h33v-36h-33v36z" />
    <glyph glyph-name="uni0000" horiz-adv-x="0" 
 />
    <glyph glyph-name="uni0000" horiz-adv-x="0" 
 />
    <glyph glyph-name="uni000D" unicode="&#xd;" horiz-adv-x="250" 
 />
    <glyph glyph-name="space" unicode=" " horiz-adv-x="250" 
 />
    <glyph glyph-name="exclam" unicode="!" 
d="M83 235l-27 265v200h155v-200l-26 -265h-102zM63 0v143h142v-143h-142z" />
    <glyph glyph-name="quotedbl" unicode="&#x22;" horiz-adv-x="378" 
d="M213 700h122l-17 -230h-88zM60 470l-17 230h122l-17 -230h-88z" />
    <glyph glyph-name="numbersign" unicode="#" horiz-adv-x="616" 
d="M132 208h-109l16 97h109l15 90h-110l16 98h111l26 157h101l-26 -157h102l26 157h102l-26 -157h108l-16 -98h-109l-15 -90h110l-16 -97h-110l-26 -158h-102l27 158h-102l-27 -158h-101zM265 395l-15 -90h102l15 90h-102z" />
    <glyph glyph-name="dollar" unicode="$" horiz-adv-x="545" 
d="M25 216h138q0 -77 77 -92v171q-45 16 -73.5 30t-61.5 38.5t-49.5 62t-16.5 86.5q0 87 57.5 139t143.5 61v88h67v-89q87 -10 144.5 -67t57.5 -156h-135q0 72 -67 88v-170q39 -14 61 -23t55.5 -28t51 -39t31.5 -53t14 -73q0 -89 -61 -142t-152 -60v-88h-67v89
q-95 10 -155 67.5t-60 159.5zM307 270v-148q36 6 55.5 24t19.5 44q0 48 -75 80zM176 512q0 -47 64 -79v144q-30 -6 -47 -23.5t-17 -41.5z" />
    <glyph glyph-name="percent" unicode="%" horiz-adv-x="798" 
d="M214 384q-72 0 -120.5 48t-48.5 117t48.5 117t120.5 48t120 -47.5t48 -117.5t-48 -117.5t-120 -47.5zM92 0l491 700h123l-492 -700h-122zM213 485q27 0 45 18.5t18 45.5t-18 45t-45 18t-44.5 -18t-17.5 -45t17.5 -45.5t44.5 -18.5zM585 -12q-72 0 -120.5 48t-48.5 117
t48.5 117t120.5 48q71 0 119.5 -48t48.5 -117t-48.5 -117t-119.5 -48zM584 89q27 0 45 19t18 45q0 27 -18 45.5t-45 18.5t-44.5 -18.5t-17.5 -45.5t17.5 -45.5t44.5 -18.5z" />
    <glyph glyph-name="ampersand" unicode="&#x26;" horiz-adv-x="719" 
d="M706 0h-171l-42 42q-86 -56 -198 -56q-108 0 -180 57.5t-72 154.5q0 56 26.5 106t75.5 84q-41 58 -41 124q0 88 66 145t164 57q99 0 167 -58t68 -168h-137q0 45 -27 68.5t-71 23.5q-39 0 -65.5 -20t-26.5 -57q0 -18 11.5 -38t22 -32t31.5 -33l178 -178q23 53 23 117h137
q0 -118 -66 -212zM306 113q51 0 93 20l-172 167q-45 -34 -45 -90q0 -44 32 -70.5t92 -26.5z" />
    <glyph glyph-name="quotesingle" unicode="'" horiz-adv-x="208" 
d="M60 470l-17 230h122l-17 -230h-88z" />
    <glyph glyph-name="parenleft" unicode="(" horiz-adv-x="307" 
d="M163 -100q-110 220 -110 450t110 450h129q-110 -220 -110 -450t110 -450h-129z" />
    <glyph glyph-name="parenright" unicode=")" horiz-adv-x="307" 
d="M144 -100h-129q110 220 110 450t-110 450h129q110 -220 110 -450t-110 -450z" />
    <glyph glyph-name="asterisk" unicode="*" horiz-adv-x="398" 
d="M346 609v-80l-91 7l55 -70l-68 -42l-43 84l-43 -84l-67 42l54 70l-90 -7v80l90 -8l-54 71l67 42l43 -84l43 84l68 -42l-55 -71z" />
    <glyph glyph-name="plus" unicode="+" horiz-adv-x="555" 
d="M217 290h-164v121h164v164h121v-164h165v-121h-165v-165h-121v165z" />
    <glyph glyph-name="comma" unicode="," 
d="M63 143h142v-143q0 -63 -37.5 -100.5t-104.5 -38.5v58q35 2 50.5 20t15.5 61h-66v143z" />
    <glyph glyph-name="hyphen" unicode="-" horiz-adv-x="505" 
d="M65 240v124h375v-124h-375z" />
    <glyph glyph-name="period" unicode="." 
d="M63 0v143h142v-143h-142z" />
    <glyph glyph-name="slash" unicode="/" horiz-adv-x="523" 
d="M90 -100h-57l400 900h57z" />
    <glyph glyph-name="zero" unicode="0" horiz-adv-x="630" 
d="M315 -14q-131 0 -205.5 99.5t-74.5 264.5t74.5 264.5t205.5 99.5q132 0 206 -99.5t74 -264.5t-74 -264.5t-206 -99.5zM315 121q70 0 106.5 59t36.5 170q0 112 -36.5 171t-106.5 59t-106 -59t-36 -171t36 -170.5t106 -58.5z" />
    <glyph glyph-name="one" unicode="1" horiz-adv-x="385" 
d="M175 700h138v-700h-138v562l-164 -91v139z" />
    <glyph glyph-name="two" unicode="2" horiz-adv-x="533" 
d="M33 0v103l237 240q82 82 82 146q0 43 -23.5 67t-63.5 24q-44 0 -69.5 -23.5t-25.5 -70.5h-137q0 111 67 169.5t162 58.5q93 0 160.5 -58t67.5 -167q0 -110 -111 -219l-141 -137h263v-133h-468z" />
    <glyph glyph-name="three" unicode="3" horiz-adv-x="545" 
d="M351 416q72 -21 117 -73.5t45 -126.5q0 -108 -72.5 -169t-177.5 -61t-177.5 61t-72.5 169h137q0 -44 29.5 -69.5t83.5 -25.5q53 0 82.5 25.5t29.5 69.5q0 43 -29.5 69t-82.5 26h-75v91l127 169h-275v129h440v-114z" />
    <glyph glyph-name="four" unicode="4" horiz-adv-x="585" 
d="M21 247l233 453h148l-232 -453h190v166h139v-166h75v-128h-75v-119h-139v119h-339v128z" />
    <glyph glyph-name="five" unicode="5" horiz-adv-x="558" 
d="M286 445q104 0 173.5 -60.5t69.5 -168.5t-72.5 -169t-177.5 -61t-177.5 61t-72.5 169h137q0 -43 30 -69t83 -26t82.5 25.5t29.5 69.5q0 43 -29.5 69t-82.5 26h-218l28 389h407v-129h-279l-9 -126h78z" />
    <glyph glyph-name="six" unicode="6" horiz-adv-x="553" 
d="M284 472q109 -2 177.5 -69.5t68.5 -172.5q0 -107 -71 -175.5t-183 -68.5t-182.5 68t-70.5 176q0 82 41 141l218 329h158zM276 116q50 0 83.5 31t33.5 83q0 51 -33.5 82t-83.5 31t-83 -30.5t-33 -82.5t33 -83t83 -31z" />
    <glyph glyph-name="seven" unicode="7" horiz-adv-x="490" 
d="M13 700h452v-117l-237 -583h-146l231 568h-300v132z" />
    <glyph glyph-name="eight" unicode="8" horiz-adv-x="568" 
d="M438 364q97 -58 97 -169q0 -97 -67.5 -153t-183.5 -56q-117 0 -184 56t-67 153q0 112 97 169q-74 53 -74 145q0 97 65.5 151t162.5 54t162 -54t65 -151q0 -93 -73 -145zM284 584q-40 0 -65 -22t-25 -60t25 -60.5t65 -22.5t65 22.5t25 60.5t-25 60t-65 22zM284 116
q51 0 82.5 25.5t31.5 71.5q0 45 -31.5 70.5t-82.5 25.5t-82.5 -25.5t-31.5 -70.5q0 -46 31.5 -71.5t82.5 -25.5z" />
    <glyph glyph-name="nine" unicode="9" horiz-adv-x="553" 
d="M530 471q0 -81 -42 -142h1l-218 -329h-158l155 228q-109 2 -177 69.5t-68 173.5q0 107 70.5 175t182.5 68q113 0 183.5 -67.5t70.5 -175.5zM160 471q0 -52 33.5 -83t82.5 -31q51 0 84 31t33 83t-33 82.5t-84 30.5q-49 0 -82.5 -31t-33.5 -82z" />
    <glyph glyph-name="colon" unicode=":" 
d="M63 143h142v-143h-142v143zM205 358h-142v142h142v-142z" />
    <glyph glyph-name="semicolon" unicode=";" 
d="M63 0v143h142v-143q0 -63 -37.5 -100.5t-104.5 -38.5v58q35 2 50.5 20t15.5 61h-66zM63 500h142v-142h-142v142z" />
    <glyph glyph-name="less" unicode="&#x3c;" horiz-adv-x="528" 
d="M45 408l438 190v-134l-292 -114l292 -113v-134l-438 190v115z" />
    <glyph glyph-name="equal" unicode="=" horiz-adv-x="525" 
d="M45 393v121h435v-121h-435zM45 307h435v-121h-435v121z" />
    <glyph glyph-name="greater" unicode="&#x3e;" horiz-adv-x="528" 
d="M45 237l291 113l-291 114v134l438 -190v-115l-438 -190v134z" />
    <glyph glyph-name="question" unicode="?" horiz-adv-x="554" 
d="M196 235q0 36 17.5 68.5t42 56.5t49 46t42 48t17.5 53q0 35 -24 54t-67 19q-47 0 -75 -23.5t-28 -68.5h-137q0 109 70.5 167.5t174.5 58.5q90 0 156.5 -52.5t66.5 -144.5q0 -42 -17.5 -78t-42 -61.5t-49 -48t-42 -46.5t-17.5 -48h-137zM193 0v143h143v-143h-143z" />
    <glyph glyph-name="at" unicode="@" horiz-adv-x="779" 
d="M397 612q106 0 188 -51.5t122 -128.5t40 -162q0 -104 -45 -160.5t-114 -56.5q-102 0 -132 80q-39 -47 -99 -47q-64 0 -105.5 46.5t-41.5 117.5t41.5 117.5t105.5 46.5q54 0 91 -37v26h107v-231q0 -73 58 -73q43 0 69.5 43t26.5 128q0 130 -90 219t-222 89
q-138 0 -232.5 -94.5t-94.5 -233.5q0 -142 98 -235t247 -93q94 0 162 25v-36q-67 -23 -162 -23q-164 0 -273 102.5t-109 259.5q0 151 104.5 256.5t259.5 105.5zM384 182q28 0 45.5 19t17.5 49q0 31 -17.5 49.5t-45.5 18.5q-29 0 -47 -18.5t-18 -49.5q0 -30 18 -49t47 -19z
" />
    <glyph glyph-name="A" unicode="A" horiz-adv-x="653" 
d="M152 0h-149l238 700h171l238 -700h-150l-40 126h-268zM233 255h186l-93 292z" />
    <glyph glyph-name="B" unicode="B" horiz-adv-x="685" 
d="M437 0h-372v700h291q90 0 148.5 -54t58.5 -135q0 -44 -26 -85q56 -29 88.5 -82.5t32.5 -120.5q0 -95 -63 -159t-158 -64zM203 331v-202h216q49 0 75 28.5t26 72.5q0 45 -26 73t-74 28h-217zM356 571h-153v-118h201q21 21 21 51t-18.5 48.5t-50.5 18.5z" />
    <glyph glyph-name="C" unicode="C" horiz-adv-x="752" 
d="M397 -14q-158 0 -261 105t-103 259q0 155 103 259.5t261 104.5q125 0 220 -74t120 -190h-145q-19 59 -72.5 94.5t-122.5 35.5q-102 0 -164.5 -64t-62.5 -166q0 -101 62.5 -165t164.5 -64q69 0 122.5 35t72.5 94h145q-25 -116 -120 -190t-220 -74z" />
    <glyph glyph-name="D" unicode="D" horiz-adv-x="733" 
d="M363 700q144 0 240.5 -101t96.5 -249t-96.5 -249t-240.5 -101h-298v700h298zM363 132q91 0 148 60.5t57 157.5t-57 157.5t-148 60.5h-160v-436h160z" />
    <glyph glyph-name="E" unicode="E" horiz-adv-x="513" 
d="M480 0h-415v700h410v-132h-272v-150h247v-129h-247v-157h277v-132z" />
    <glyph glyph-name="F" unicode="F" horiz-adv-x="503" 
d="M65 700h410v-132h-272v-178h265v-132h-265v-258h-138v700z" />
    <glyph glyph-name="G" unicode="G" horiz-adv-x="785" 
d="M403 254v122h332v-376h-130v89q-74 -103 -224 -103q-149 0 -248.5 105t-99.5 259q0 155 103 259.5t260 104.5q123 0 218.5 -71.5t120.5 -177.5h-144q-20 49 -74 82t-121 33q-101 0 -163.5 -64t-62.5 -166q0 -106 63.5 -171.5t162.5 -65.5q74 0 130 35.5t72 105.5h-195z
" />
    <glyph glyph-name="H" unicode="H" horiz-adv-x="638" 
d="M203 0h-138v700h138v-274h232v274h138v-700h-138v294h-232v-294z" />
    <glyph glyph-name="I" unicode="I" 
d="M65 700h138v-700h-138v700z" />
    <glyph glyph-name="J" unicode="J" horiz-adv-x="538" 
d="M248 -14q-99 0 -167 57t-68 164v18h137v-18q0 -86 98 -86q46 0 71.5 22t25.5 64v493h138v-493q0 -107 -68.5 -164t-166.5 -57z" />
    <glyph glyph-name="K" unicode="K" horiz-adv-x="615" 
d="M203 0h-138v700h138v-309l240 309h159l-259 -341l269 -359h-159l-250 329v-329z" />
    <glyph glyph-name="L" unicode="L" horiz-adv-x="475" 
d="M203 132h260v-132h-398v700h138v-568z" />
    <glyph glyph-name="M" unicode="M" horiz-adv-x="815" 
d="M203 0h-138v700h157l186 -428l185 428h157v-700h-137v470l-155 -358h-100l-155 358v-470z" />
    <glyph glyph-name="N" unicode="N" horiz-adv-x="645" 
d="M65 700h105l273 -432v432h137v-700h-105l-272 433v-433h-138v700z" />
    <glyph glyph-name="O" unicode="O" horiz-adv-x="792" 
d="M396 -14q-152 0 -257.5 105.5t-105.5 258.5t105.5 258.5t257.5 105.5t258 -105.5t106 -258.5t-106 -258.5t-258 -105.5zM396 121q96 0 161 64.5t65 164.5t-65 165t-161 65t-161 -65t-65 -165t65 -164.5t161 -64.5z" />
    <glyph glyph-name="P" unicode="P" horiz-adv-x="588" 
d="M203 0h-138v700h261q99 0 168 -68t69 -164q0 -97 -69 -165t-168 -68h-123v-235zM326 571h-123v-207h123q42 0 70.5 30t28.5 74t-28.5 73.5t-70.5 29.5z" />
    <glyph glyph-name="Q" unicode="Q" horiz-adv-x="797" 
d="M760 350q0 -135 -88 -238l77 -87l-101 -84l-79 89q-80 -44 -173 -44q-151 0 -257 105.5t-106 258.5t106 258.5t257 105.5t257.5 -105.5t106.5 -258.5zM396 121q46 0 81 14l-80 91l101 83l83 -94q41 58 41 135q0 100 -65 165t-161 65t-161 -65t-65 -165q0 -99 65 -164
t161 -65z" />
    <glyph glyph-name="R" unicode="R" horiz-adv-x="630" 
d="M65 0v700h265q97 0 165 -68t68 -164q0 -64 -36 -119t-95 -83l216 -266h-162l-198 243h-85v-243h-138zM203 571v-207h127q39 0 67 30.5t28 73.5t-28 73t-67 30h-127z" />
    <glyph glyph-name="S" unicode="S" horiz-adv-x="546" 
d="M281 -14q-111 0 -183.5 58.5t-72.5 171.5h138q0 -95 118 -95q51 0 77 19.5t26 50.5q0 34 -30.5 54t-92.5 41q-26 10 -31 11.5t-30 11t-32 14t-28 15t-28.5 18.5t-23 21t-21.5 26t-14.5 30t-11.5 36t-3 41q0 96 67 150t160 54q99 0 167.5 -58t68.5 -168h-137q0 92 -99 92
q-42 0 -66 -19.5t-24 -50.5q0 -35 28 -56t85 -42q102 -36 137 -57q96 -58 96 -164q0 -97 -69 -151t-171 -54z" />
    <glyph glyph-name="T" unicode="T" horiz-adv-x="500" 
d="M181 568h-168v132h475v-132h-169v-568h-138v568z" />
    <glyph glyph-name="U" unicode="U" horiz-adv-x="620" 
d="M55 700h138v-475q0 -104 117 -104q118 0 118 104v475h137v-486q0 -107 -72.5 -167.5t-182.5 -60.5t-182.5 60.5t-72.5 167.5v486z" />
    <glyph glyph-name="V" unicode="V" horiz-adv-x="632" 
d="M231 0l-228 700h149l164 -539l164 539h150l-228 -700h-171z" />
    <glyph glyph-name="W" unicode="W" horiz-adv-x="890" 
d="M202 0l-199 700h143l139 -525l100 357l-48 168h128l140 -525l140 525h143l-200 -700h-152l-91 320l-91 -320h-152z" />
    <glyph glyph-name="X" unicode="X" horiz-adv-x="600" 
d="M13 0l209 360l-198 340h156l120 -207l121 207h155l-198 -340l210 -360h-156l-132 226l-132 -226h-155z" />
    <glyph glyph-name="Y" unicode="Y" horiz-adv-x="601" 
d="M232 311l-229 389h156l142 -256l142 256h156l-230 -389v-311h-137v311z" />
    <glyph glyph-name="Z" unicode="Z" horiz-adv-x="535" 
d="M211 132h298v-132h-473v110l291 458h-284v132h460v-109z" />
    <glyph glyph-name="bracketleft" unicode="[" horiz-adv-x="290" 
d="M290 -100h-237v900h237v-124h-108v-652h108v-124z" />
    <glyph glyph-name="backslash" unicode="\" horiz-adv-x="523" 
d="M433 -100l-400 900h57l400 -900h-57z" />
    <glyph glyph-name="bracketright" unicode="]" horiz-adv-x="290" 
d="M109 676h-109v124h238v-900h-238v124h109v652z" />
    <glyph glyph-name="asciicircum" unicode="^" horiz-adv-x="560" 
d="M40 370l191 330h98l191 -330h-139l-101 182l-101 -182h-139z" />
    <glyph glyph-name="underscore" unicode="_" horiz-adv-x="520" 
d="M33 -171v124h455v-124h-455z" />
    <glyph glyph-name="grave" unicode="`" horiz-adv-x="275" 
d="M175 700l80 -137h-124l-111 137h155z" />
    <glyph glyph-name="a" unicode="a" horiz-adv-x="509" 
d="M201 -14q-71 0 -119.5 41.5t-48.5 116.5t48.5 116t119.5 41q85 0 136 -44v53q0 84 -78 84q-35 0 -56 -17.5t-21 -46.5h-126q0 85 58.5 134.5t144.5 49.5q88 0 146 -51.5t58 -144.5v-318h-126v43q-47 -57 -136 -57zM162 144q0 -28 21 -45t62 -17q42 0 67 17.5t25 44.5
q0 29 -24.5 45.5t-67.5 16.5q-41 0 -62 -17t-21 -45z" />
    <glyph glyph-name="b" unicode="b" horiz-adv-x="626" 
d="M59 700h129v-259q57 73 162 73q101 0 172.5 -76.5t71.5 -187.5t-71.5 -187.5t-172.5 -76.5q-105 0 -162 73v-59h-129v700zM326 391q-60 0 -99 -39.5t-39 -101.5t39 -101.5t99 -39.5t99.5 39.5t39.5 101.5t-39.5 101.5t-99.5 39.5z" />
    <glyph glyph-name="c" unicode="c" horiz-adv-x="566" 
d="M547 183q-17 -86 -87 -141.5t-163 -55.5q-113 0 -188.5 76t-75.5 188t75.5 188t188.5 76q93 0 163 -55t87 -141h-136q-14 32 -44.5 50.5t-69.5 18.5q-57 0 -96 -38.5t-39 -98.5q0 -59 39 -97.5t96 -38.5q40 0 70.5 18.5t43.5 50.5h136z" />
    <glyph glyph-name="d" unicode="d" horiz-adv-x="627" 
d="M33 250q0 111 71.5 187.5t171.5 76.5q105 0 163 -73v259h129v-700h-129v59q-58 -73 -163 -73q-100 0 -171.5 76.5t-71.5 187.5zM300 391q-60 0 -99 -39.5t-39 -101.5t39 -101.5t99 -39.5t99.5 39.5t39.5 101.5t-39.5 101.5t-99.5 39.5z" />
    <glyph glyph-name="e" unicode="e" horiz-adv-x="576" 
d="M167 197q12 -51 48.5 -77.5t86.5 -26.5q34 0 62 14t41 36l127 1q-23 -75 -84.5 -116.5t-146.5 -41.5q-120 0 -194 75t-74 189q0 113 74 188.5t191 75.5q109 0 179 -76t70 -188q0 -32 -5 -53h-375zM166 298h252q-11 51 -44 75.5t-77 24.5q-51 0 -85 -26t-46 -74z" />
    <glyph glyph-name="f" unicode="f" horiz-adv-x="311" 
d="M5 500h72v5q0 100 52.5 155t155.5 55q17 0 26 -1v-124q-3 0 -9 0.5t-8 0.5q-88 0 -88 -86v-5h105v-124h-105v-376h-129v376h-72v124z" />
    <glyph glyph-name="g" unicode="g" horiz-adv-x="623" 
d="M33 258q0 106 71.5 181t171.5 75q108 0 166 -76v62h126v-476q0 -115 -76 -176.5t-180 -61.5q-103 0 -176 53.5t-73 146.5h129q0 -35 32 -60t88 -25q61 0 95.5 32t34.5 91v53q-57 -75 -166 -75q-100 0 -171.5 75t-71.5 181zM302 394q-61 0 -100.5 -38.5t-39.5 -97.5
q0 -60 39.5 -98.5t100.5 -38.5t100.5 38.5t39.5 98.5q0 59 -39.5 97.5t-100.5 38.5z" />
    <glyph glyph-name="h" unicode="h" horiz-adv-x="532" 
d="M59 0v700h129v-251q43 65 136 65q71 0 116.5 -52t45.5 -142v-320h-129v310q0 41 -22 62.5t-57 21.5q-41 0 -65.5 -25.5t-24.5 -78.5v-290h-129z" />
    <glyph glyph-name="i" unicode="i" horiz-adv-x="247" 
d="M59 500h129v-500h-129v500zM188 570h-129v130h129v-130z" />
    <glyph glyph-name="j" unicode="j" horiz-adv-x="264" 
d="M13 -215q-17 0 -26 1v124q48 0 68.5 16.5t20.5 63.5v510h129v-510q0 -205 -192 -205zM205 570h-129v130h129v-130z" />
    <glyph glyph-name="k" unicode="k" horiz-adv-x="517" 
d="M59 700h129v-420l165 220h149l-190 -247l200 -253h-149l-175 226v-226h-129v700z" />
    <glyph glyph-name="l" unicode="l" horiz-adv-x="247" 
d="M59 0v720h129v-720h-129z" />
    <glyph glyph-name="m" unicode="m" horiz-adv-x="767" 
d="M59 500h129v-49q41 63 120 63q80 0 120 -66q53 66 138 66q72 0 113.5 -46t41.5 -131v-337h-129v327q0 67 -63 67q-31 0 -52.5 -19.5t-21.5 -64.5v-310h-129v327q0 67 -64 67q-31 0 -52.5 -19.5t-21.5 -64.5v-310h-129v500z" />
    <glyph glyph-name="n" unicode="n" horiz-adv-x="532" 
d="M59 0v500h129v-51q43 65 136 65q71 0 116.5 -52t45.5 -142v-320h-129v310q0 41 -22 62.5t-57 21.5q-41 0 -65.5 -25.5t-24.5 -78.5v-290h-129z" />
    <glyph glyph-name="o" unicode="o" horiz-adv-x="594" 
d="M297 -14q-111 0 -187.5 76.5t-76.5 187.5t76.5 187.5t187.5 76.5t188 -76.5t77 -187.5t-77 -187.5t-188 -76.5zM297 112q58 0 97 39t39 99t-39 99t-97 39t-96.5 -39t-38.5 -99t38.5 -99t96.5 -39z" />
    <glyph glyph-name="p" unicode="p" horiz-adv-x="626" 
d="M59 500h129v-58q58 72 162 72q101 0 172.5 -76.5t71.5 -187.5t-71.5 -187.5t-172.5 -76.5q-104 0 -162 72v-258h-129v700zM188 259v-18q3 -59 42 -95.5t96 -36.5q60 0 99.5 39.5t39.5 101.5t-39.5 101.5t-99.5 39.5q-57 0 -96 -36.5t-42 -95.5z" />
    <glyph glyph-name="q" unicode="q" horiz-adv-x="627" 
d="M33 250q0 111 71.5 187.5t171.5 76.5q105 0 163 -73v59h129v-700h-129v259q-58 -73 -163 -73q-100 0 -171.5 76.5t-71.5 187.5zM300 391q-60 0 -99 -39.5t-39 -101.5t39 -101.5t99 -39.5t99.5 39.5t39.5 101.5t-39.5 101.5t-99.5 39.5z" />
    <glyph glyph-name="r" unicode="r" horiz-adv-x="337" 
d="M59 0v500h129v-75q36 85 137 85v-144q-7 1 -20 1q-50 0 -83.5 -29.5t-33.5 -90.5v-247h-129z" />
    <glyph glyph-name="s" unicode="s" horiz-adv-x="480" 
d="M173 355q0 -23 27.5 -36t67.5 -20.5t79.5 -20.5t67 -46t27.5 -87q0 -76 -57.5 -117.5t-144.5 -41.5q-88 0 -145 44.5t-57 128.5h126q0 -59 76 -59q73 0 73 45q0 20 -20 32.5t-50 17.5t-64.5 15.5t-64.5 24t-50 44.5t-20 76q0 75 56.5 117t139.5 42q81 0 136.5 -45
t55.5 -128h-126q0 28 -18.5 43.5t-47.5 15.5q-67 0 -67 -45z" />
    <glyph glyph-name="t" unicode="t" horiz-adv-x="334" 
d="M103 376h-87v124h87v160h129v-160h86v-124h-86v-376h-129v376z" />
    <glyph glyph-name="u" unicode="u" horiz-adv-x="533" 
d="M46 500h129v-310q0 -41 22 -62.5t57 -21.5q41 0 66 25.5t25 79.5v289h129v-500h-129v52q-43 -66 -136 -66q-72 0 -117.5 52.5t-45.5 142.5v319z" />
    <glyph glyph-name="v" unicode="v" horiz-adv-x="500" 
d="M3 500h137l110 -341l110 341h138l-182 -500h-132z" />
    <glyph glyph-name="w" unicode="w" horiz-adv-x="725" 
d="M10 500h138l97 -342l65 204l-45 138h115l104 -329l94 329h137l-163 -500h-123l-66 201l-66 -201h-123z" />
    <glyph glyph-name="x" unicode="x" horiz-adv-x="473" 
d="M5 0l162 256l-154 244h138l85 -135l86 135h138l-155 -244l163 -256h-138l-94 147l-93 -147h-138z" />
    <glyph glyph-name="y" unicode="y" horiz-adv-x="500" 
d="M194 7l-191 493h137l118 -315l102 315h138l-237 -700h-137z" />
    <glyph glyph-name="z" unicode="z" horiz-adv-x="454" 
d="M206 121h222v-121h-395v86l211 293h-201v121h375v-86z" />
    <glyph glyph-name="braceleft" unicode="{" horiz-adv-x="351" 
d="M69 290q-12 0 -19 -1v125q7 -1 19 -1q30 0 45 13.5t15 49.5v148q0 187 183 187q18 0 27 -1v-124q-16 2 -23 2q-30 0 -44 -14.5t-14 -49.5v-148q0 -91 -60 -124q60 -34 60 -125v-148q0 -35 14 -49.5t44 -14.5q7 0 23 2v-124q-9 -1 -27 -1q-183 0 -183 187v148
q0 36 -15 49.5t-45 13.5z" />
    <glyph glyph-name="bar" unicode="|" horiz-adv-x="259" 
d="M65 -200v920h129v-920h-129z" />
    <glyph glyph-name="braceright" unicode="}" horiz-adv-x="351" 
d="M13 686v124q9 1 27 1q183 0 183 -187v-148q0 -36 14.5 -49.5t44.5 -13.5q12 0 19 1v-125q-7 1 -19 1q-30 0 -44.5 -13.5t-14.5 -49.5v-148q0 -187 -183 -187q-18 0 -27 1v124q16 -2 23 -2q29 0 43.5 14.5t14.5 49.5v148q0 91 59 125q-59 32 -59 124v148q0 35 -14.5 49.5
t-43.5 14.5q-7 0 -23 -2z" />
    <glyph glyph-name="asciitilde" unicode="~" horiz-adv-x="599" 
d="M449 443l105 -51q-18 -68 -57.5 -103.5t-93.5 -35.5q-45 0 -99 26q-71 33 -98 33q-20 0 -32.5 -13.5t-23.5 -43.5l-105 50q18 69 57.5 104t94.5 35q47 0 98 -25q71 -33 98 -33q20 0 32.5 13.5t23.5 43.5z" />
    <glyph glyph-name="exclamdown" unicode="&#xa1;" 
d="M63 500h142v-142h-142v142zM83 265h102l26 -265v-200h-155v200z" />
    <glyph glyph-name="cent" unicode="&#xa2;" horiz-adv-x="566" 
d="M297 214q40 0 70.5 18.5t43.5 50.5h136q-17 -86 -87 -141t-163 -55q-34 0 -68 8l-31 -95h-57l36 114q-66 32 -105 94.5t-39 141.5q0 112 75.5 188t188.5 76q20 0 41 -3l29 89h57l-33 -103q60 -22 101.5 -69.5t54.5 -109.5h-136q-17 41 -59 58l-84 -259q13 -3 29 -3z
M162 350q0 -73 56 -111l80 248h-1q-57 0 -96 -38.5t-39 -98.5z" />
    <glyph glyph-name="sterling" unicode="&#xa3;" horiz-adv-x="585" 
d="M33 0v133h73v124h-61v120h61v116q0 106 66 163.5t154 57.5q87 0 153.5 -57.5t66.5 -163.5v-43h-138v43q0 42 -23.5 64.5t-58.5 22.5q-36 0 -59.5 -22.5t-23.5 -64.5v-116h188v-120h-188v-124h327v-133h-537z" />
    <glyph glyph-name="currency" unicode="&#xa4;" horiz-adv-x="543" 
d="M102 481l-69 70l38 38l70 -70q58 42 131 42q72 0 130 -42l71 70l38 -38l-70 -70q45 -56 45 -131t-45 -131l70 -70l-38 -38l-71 71q-56 -42 -130 -42t-131 41l-70 -70l-38 38l69 70q-45 56 -45 131t45 131zM185 350q0 -39 24.5 -63.5t62.5 -24.5q37 0 62 25.5t25 62.5
q0 22 -8 41q-23 47 -79 47q-38 0 -62.5 -24.5t-24.5 -63.5z" />
    <glyph glyph-name="yen" unicode="&#xa5;" horiz-adv-x="601" 
d="M3 700h156l142 -256l142 256h156l-199 -338h131v-80h-162v-45h162v-81h-162v-156h-137v156h-161v81h161v45h-161v80h131z" />
    <glyph glyph-name="brokenbar" unicode="&#xa6;" horiz-adv-x="259" 
d="M65 350v370h129v-370h-129zM65 170h129v-370h-129v370z" />
    <glyph glyph-name="section" unicode="&#xa7;" horiz-adv-x="545" 
d="M503 284q0 -81 -63 -131q33 -41 33 -99q0 -79 -57 -122.5t-144 -43.5q-88 0 -145.5 46.5t-57.5 136.5h126q0 -69 77 -69q35 0 53.5 14t18.5 38q0 11 -6.5 21t-15 17t-25.5 15.5t-29.5 14t-35.5 14.5t-36 15q-71 31 -112 70t-41 104q0 79 63 126q-31 41 -31 99
q0 78 56 121t139 43q81 0 137 -46.5t56 -136.5h-126q0 35 -18.5 52t-48.5 17q-31 0 -48.5 -13t-17.5 -37q0 -9 3.5 -17.5t12.5 -16t16.5 -13.5t23 -13t25 -11.5t29.5 -12.5l30 -12q34 -14 58.5 -27.5t49.5 -33.5t38 -47.5t13 -61.5zM172 332q0 -26 20.5 -44t60.5 -34
q10 -4 30.5 -11.5t38 -14t32.5 -13.5q20 25 20 54t-22.5 46.5t-67.5 35.5q-77 29 -92 36q-20 -25 -20 -55z" />
    <glyph glyph-name="dieresis" unicode="&#xa8;" horiz-adv-x="343" 
d="M205 561v118h118v-118h-118zM20 679h118v-118h-118v118z" />
    <glyph glyph-name="copyright" unicode="&#xa9;" horiz-adv-x="789" 
d="M395 -12q-150 0 -256 106t-106 256t106 256t256 106t256 -106t106 -256t-106 -256t-256 -106zM395 22q134 0 229 96t95 232t-95 232t-229 96q-135 0 -230 -96t-95 -232t95 -232t230 -96zM398 154q-82 0 -140 58t-58 138t58 138t140 58q69 0 123 -43t67 -113h-117
q-20 45 -76 45q-38 0 -61 -25t-23 -60t23 -60t61 -25q57 0 76 46h117q-13 -70 -67 -113.5t-123 -43.5z" />
    <glyph glyph-name="ordfeminine" unicode="&#xaa;" horiz-adv-x="273" 
d="M105 450q-35 0 -58.5 21t-23.5 58t23.5 57.5t58.5 20.5q42 0 68 -21v26q0 38 -36 38t-36 -28h-67q0 43 29.5 67.5t73.5 24.5q45 0 74 -26t29 -72v-159h-67v21q-25 -28 -68 -28zM91 529q0 -13 10 -21t28 -8t31 8t13 21q0 28 -44 28q-38 0 -38 -28z" />
    <glyph glyph-name="guillemotleft" unicode="&#xab;" horiz-adv-x="545" 
d="M363 122l-110 187l110 188h119l-110 -188l110 -187h-119zM173 122l-110 187l110 188h119l-110 -188l110 -187h-119z" />
    <glyph glyph-name="logicalnot" unicode="&#xac;" horiz-adv-x="550" 
d="M45 411h460v-240h-129v119h-331v121z" />
    <glyph glyph-name="registered" unicode="&#xae;" horiz-adv-x="789" 
d="M395 -12q-150 0 -256 106t-106 256t106 256t256 106t256 -106t106 -256t-106 -256t-256 -106zM70 350q0 -136 95 -232t230 -96q134 0 229 96t95 232t-95 232t-229 96q-135 0 -230 -96t-95 -232zM258 535h159q60 0 100 -36t40 -90q0 -76 -56 -116l89 -128h-116l-71 102
h-38v-102h-107v370zM365 438v-81h34q51 0 51 40q0 41 -51 41h-34z" />
    <glyph glyph-name="macron" unicode="&#xaf;" horiz-adv-x="330" 
d="M20 564v105h290v-105h-290z" />
    <glyph glyph-name="degree" unicode="&#xb0;" horiz-adv-x="401" 
d="M201 480q-72 0 -120 48.5t-48 116.5q0 69 48 117t120 48t120 -48t48 -117t-47.5 -117t-120.5 -48zM201 585q26 0 42.5 17t16.5 43t-16.5 43t-42.5 17t-42.5 -17t-16.5 -43t16.5 -43t42.5 -17z" />
    <glyph glyph-name="plusminus" unicode="&#xb1;" horiz-adv-x="555" 
d="M53 381v121h164v146h121v-146h165v-121h-165v-146h-121v146h-164zM503 53h-450v121h450v-121z" />
    <glyph glyph-name="acute" unicode="&#xb4;" horiz-adv-x="275" 
d="M144 563h-124l80 137h155z" />
    <glyph glyph-name="mu" unicode="&#xb5;" horiz-adv-x="577" 
d="M59 -200v700h129v-310q0 -41 22 -62.5t57 -21.5q41 0 65.5 25.5t24.5 79.5v289h129v-347q0 -32 32 -32h36v-121h-60q-77 0 -113 52q-45 -66 -132 -66q-31 0 -61 10v-196h-129z" />
    <glyph glyph-name="paragraph" unicode="&#xb6;" horiz-adv-x="669" 
d="M240 270q-89 0 -152 63t-63 152t63 152t152 63h383v-113h-62v-787h-121v787h-79v-787h-121v470z" />
    <glyph glyph-name="periodcentered" unicode="&#xb7;" 
d="M63 275v143h142v-143h-142z" />
    <glyph glyph-name="cedilla" unicode="&#xb8;" horiz-adv-x="260" 
d="M170 -46q29 -7 49.5 -26.5t20.5 -51.5q0 -93 -173 -93q-30 0 -47 1v91q14 -1 39 -1q69 0 69 21q0 20 -63 25v80h105v-46z" />
    <glyph glyph-name="ordmasculine" unicode="&#xba;" horiz-adv-x="310" 
d="M155 450q-55 0 -93.5 38t-38.5 94t38 94t94 38t94 -38t38 -94t-38.5 -94t-93.5 -38zM155 517q28 0 45.5 18t17.5 47t-17.5 47t-45.5 18t-46 -18t-18 -47t18 -47t46 -18z" />
    <glyph glyph-name="guillemotright" unicode="&#xbb;" horiz-adv-x="545" 
d="M372 122h-119l110 187l-110 188h119l110 -188zM173 309l-110 188h119l110 -188l-110 -187h-119z" />
    <glyph glyph-name="onequarter" unicode="&#xbc;" horiz-adv-x="814" 
d="M468 162l129 238h114l-123 -238h67v69h102v-69h41v-97h-41v-65h-102v65h-187v97zM207 0h-90l400 700h90zM13 646l99 54h107v-400h-107v292l-99 -53v107z" />
    <glyph glyph-name="onehalf" unicode="&#xbd;" horiz-adv-x="813" 
d="M591 272h-108q0 68 43 105t108 37t105.5 -34.5t40.5 -96.5q0 -58 -68 -124l-65 -61h140v-98h-300v71l151 148q34 34 34 62q0 16 -10 25.5t-28 9.5q-43 0 -43 -44zM117 0l400 700h90l-400 -700h-90zM112 592l-99 -53v107l99 54h107v-400h-107v292z" />
    <glyph glyph-name="threequarters" unicode="&#xbe;" horiz-adv-x="895" 
d="M14 421h108q0 -41 47 -41t47 41q0 40 -47 40h-60v61l67 81h-146v97h275v-79l-70 -86q89 -27 89 -114q0 -64 -41.5 -99t-113.5 -35q-73 0 -114 34.5t-41 99.5zM549 162l129 238h114l-123 -238h67v69h102v-69h41v-97h-41v-65h-102v65h-187v97zM288 0h-90l400 700h90z" />
    <glyph glyph-name="questiondown" unicode="&#xbf;" horiz-adv-x="546" 
d="M353 500v-142h-142v142h142zM351 265q0 -44 -26.5 -84t-57.5 -64.5t-57.5 -57.5t-26.5 -66q0 -35 23.5 -54t66.5 -19q47 0 75 23.5t28 68.5h138q0 -109 -70.5 -167.5t-174.5 -58.5q-91 0 -157.5 52.5t-66.5 144.5q0 42 17.5 78t42 61.5t49 48t42 46.5t17.5 48h138z" />
    <glyph glyph-name="Agrave" unicode="&#xc0;" horiz-adv-x="653" 
d="M3 0l238 700h171l238 -700h-150l-40 126h-268l-40 -126h-149zM326 547l-93 -292h186zM280 763l-111 137h155l80 -137h-124z" />
    <glyph glyph-name="Aacute" unicode="&#xc1;" horiz-adv-x="653" 
d="M3 0l238 700h171l238 -700h-150l-40 126h-268l-40 -126h-149zM326 547l-93 -292h186zM370 763h-124l80 137h155z" />
    <glyph glyph-name="Acircumflex" unicode="&#xc2;" horiz-adv-x="653" 
d="M152 0h-149l238 700h171l238 -700h-150l-40 126h-268zM151 755l106 145h131l106 -145h-128l-43 65l-44 -65h-128zM233 255h186l-93 292z" />
    <glyph glyph-name="Atilde" unicode="&#xc3;" horiz-adv-x="653" 
d="M152 0h-149l238 700h171l238 -700h-150l-40 126h-268zM261 760h-104q0 76 27 112.5t71 36.5q40 0 84 -28q25 -17 36 -17q16 0 16 41h105q0 -76 -27 -112.5t-71 -36.5q-40 0 -84 28q-25 17 -37 17q-16 0 -16 -41zM326 547l-93 -292h186z" />
    <glyph glyph-name="Adieresis" unicode="&#xc4;" horiz-adv-x="653" 
d="M152 0h-149l238 700h171l238 -700h-150l-40 126h-268zM326 547l-93 -292h186zM478 761h-118v118h118v-118zM175 879h118v-118h-118v118z" />
    <glyph glyph-name="Aring" unicode="&#xc5;" horiz-adv-x="653" 
d="M152 0h-149l238 700h171l238 -700h-150l-40 126h-268zM200 858q0 51 35.5 84.5t90.5 33.5q56 0 91 -33.5t35 -84.5q0 -52 -35 -85.5t-91 -33.5q-55 0 -90.5 34t-35.5 85zM233 255h186l-93 292zM287 858q0 -17 10.5 -27.5t28.5 -10.5q40 0 40 38q0 37 -40 37
q-18 0 -28.5 -10.5t-10.5 -26.5z" />
    <glyph glyph-name="AE" unicode="&#xc6;" horiz-adv-x="880" 
d="M0 0l414 700h429v-132h-259v-150h236v-129h-236v-157h264v-132h-398v126h-221l-74 -126h-155zM305 255h145v246z" />
    <glyph glyph-name="Ccedilla" unicode="&#xc7;" horiz-adv-x="752" 
d="M397 121q69 0 122.5 35t72.5 94h145q-22 -102 -99 -172t-183 -87v-37q29 -7 49.5 -26.5t20.5 -51.5q0 -93 -173 -93q-30 0 -47 1v91q14 -1 39 -1q69 0 69 21q0 20 -63 25v69q-140 16 -228.5 117.5t-88.5 243.5q0 155 103 259.5t261 104.5q125 0 220 -74t120 -190h-145
q-19 59 -72.5 94.5t-122.5 35.5q-102 0 -164.5 -64t-62.5 -166q0 -101 62.5 -165t164.5 -64z" />
    <glyph glyph-name="Egrave" unicode="&#xc8;" horiz-adv-x="513" 
d="M65 700h410v-132h-272v-150h247v-129h-247v-157h277v-132h-415v700zM113 900h155l80 -137h-124z" />
    <glyph glyph-name="Eacute" unicode="&#xc9;" horiz-adv-x="513" 
d="M65 700h410v-132h-272v-150h247v-129h-247v-157h277v-132h-415v700zM191 763l80 137h155l-111 -137h-124z" />
    <glyph glyph-name="Ecircumflex" unicode="&#xca;" horiz-adv-x="513" 
d="M480 0h-415v700h410v-132h-272v-150h247v-129h-247v-157h277v-132zM224 755h-128l106 145h131l106 -145h-128l-43 65z" />
    <glyph glyph-name="Edieresis" unicode="&#xcb;" horiz-adv-x="513" 
d="M65 0v700h410v-132h-272v-150h247v-129h-247v-157h277v-132h-415zM304 879h118v-118h-118v118zM119 879h118v-118h-118v118z" />
    <glyph glyph-name="Igrave" unicode="&#xcc;" 
d="M211 763l-80 137h-155l111 -137h124zM65 700h138v-700h-138v700z" />
    <glyph glyph-name="Iacute" unicode="&#xcd;" 
d="M54 763h124l111 137h-155zM65 700h138v-700h-138v700z" />
    <glyph glyph-name="Icircumflex" unicode="&#xce;" 
d="M65 700h138v-700h-138v700zM87 755h-128l106 145h131l106 -145h-128l-43 65z" />
    <glyph glyph-name="Idieresis" unicode="&#xcf;" 
d="M203 0h-138v700h138v-700zM285 761h-118v118h118v-118zM-18 879h118v-118h-118v118z" />
    <glyph glyph-name="Eth" unicode="&#xd0;" horiz-adv-x="768" 
d="M100 281h-77v124h77v295h298q144 0 240.5 -101t96.5 -249t-96.5 -249t-240.5 -101h-298v281zM398 568h-160v-163h160v-124h-160v-149h160q91 0 148 60.5t57 157.5t-57 157.5t-148 60.5z" />
    <glyph glyph-name="Ntilde" unicode="&#xd1;" horiz-adv-x="645" 
d="M65 0v700h105l273 -432v432h137v-700h-105l-272 433v-433h-138zM154 760q0 76 27 112.5t71 36.5q40 0 84 -28q25 -17 36 -17q16 0 16 41h105q0 -76 -27 -112.5t-71 -36.5q-40 0 -84 28q-25 17 -37 17q-16 0 -16 -41h-104z" />
    <glyph glyph-name="Ograve" unicode="&#xd2;" horiz-adv-x="792" 
d="M474 771l-80 137h-155l111 -137h124zM396 -14q-152 0 -257.5 105.5t-105.5 258.5t105.5 258.5t257.5 105.5t258 -105.5t106 -258.5t-106 -258.5t-258 -105.5zM396 121q96 0 161 64.5t65 164.5t-65 165t-161 65t-161 -65t-65 -165t65 -164.5t161 -64.5z" />
    <glyph glyph-name="Oacute" unicode="&#xd3;" horiz-adv-x="792" 
d="M316 771h124l111 137h-155zM396 -14q-152 0 -257.5 105.5t-105.5 258.5t105.5 258.5t257.5 105.5t258 -105.5t106 -258.5t-106 -258.5t-258 -105.5zM396 121q96 0 161 64.5t65 164.5t-65 165t-161 65t-161 -65t-65 -165t65 -164.5t161 -64.5z" />
    <glyph glyph-name="Ocircumflex" unicode="&#xd4;" horiz-adv-x="792" 
d="M396 -14q-152 0 -257.5 105.5t-105.5 258.5t105.5 258.5t257.5 105.5t258 -105.5t106 -258.5t-106 -258.5t-258 -105.5zM396 580q-96 0 -161 -65t-65 -165t65 -164.5t161 -64.5t161 64.5t65 164.5t-65 165t-161 65zM349 763h-128l106 145h131l106 -145h-128l-43 65z" />
    <glyph glyph-name="Otilde" unicode="&#xd5;" horiz-adv-x="792" 
d="M227 768q0 76 27 112.5t71 36.5q40 0 84 -28q25 -17 36 -17q16 0 16 41h105q0 -76 -27 -112.5t-71 -36.5q-40 0 -84 28q-25 17 -37 17q-16 0 -16 -41h-104zM396 -14q-152 0 -257.5 105.5t-105.5 258.5t105.5 258.5t257.5 105.5t258 -105.5t106 -258.5t-106 -258.5
t-258 -105.5zM396 121q96 0 161 64.5t65 164.5t-65 165t-161 65t-161 -65t-65 -165t65 -164.5t161 -64.5z" />
    <glyph glyph-name="Odieresis" unicode="&#xd6;" horiz-adv-x="792" 
d="M33 350q0 153 105.5 258.5t257.5 105.5t258 -105.5t106 -258.5t-106 -258.5t-258 -105.5t-257.5 105.5t-105.5 258.5zM396 580q-96 0 -161 -65t-65 -165t65 -164.5t161 -64.5t161 64.5t65 164.5t-65 165t-161 65zM430 769v118h118v-118h-118zM245 887h118v-118h-118v118z
" />
    <glyph glyph-name="multiply" unicode="&#xd7;" horiz-adv-x="512" 
d="M171 350l-121 121l86 84l120 -120l120 120l86 -84l-121 -121l121 -121l-86 -84l-120 120l-120 -120l-86 84z" />
    <glyph glyph-name="Oslash" unicode="&#xd8;" horiz-adv-x="798" 
d="M659 609q107 -105 107 -259q0 -153 -106 -258.5t-258 -105.5q-115 0 -206 63l-41 -49h-100l82 99q-98 104 -98 251q0 153 106 258.5t257 105.5q107 0 197 -57l35 43h100zM176 350q0 -84 48 -146l289 349q-52 27 -111 27q-96 0 -161 -65t-65 -165zM402 121q96 0 161 64.5
t65 164.5q0 90 -55 155l-291 -352q56 -32 120 -32z" />
    <glyph glyph-name="Ugrave" unicode="&#xd9;" horiz-adv-x="620" 
d="M55 214v486h138v-475q0 -104 117 -104q118 0 118 104v475h137v-486q0 -107 -72.5 -167.5t-182.5 -60.5t-182.5 60.5t-72.5 167.5zM153 900h155l80 -137h-124z" />
    <glyph glyph-name="Uacute" unicode="&#xda;" horiz-adv-x="620" 
d="M55 214v486h138v-475q0 -104 117 -104q118 0 118 104v475h137v-486q0 -107 -72.5 -167.5t-182.5 -60.5t-182.5 60.5t-72.5 167.5zM354 763h-124l80 137h155z" />
    <glyph glyph-name="Ucircumflex" unicode="&#xdb;" horiz-adv-x="620" 
d="M55 700h138v-475q0 -104 117 -104q118 0 118 104v475h137v-486q0 -107 -72.5 -167.5t-182.5 -60.5t-182.5 60.5t-72.5 167.5v486zM263 755h-128l106 145h131l106 -145h-128l-43 65z" />
    <glyph glyph-name="Udieresis" unicode="&#xdc;" horiz-adv-x="620" 
d="M55 700h138v-475q0 -104 117 -104q118 0 118 104v475h137v-486q0 -107 -72.5 -167.5t-182.5 -60.5t-182.5 60.5t-72.5 167.5v486zM462 761h-118v118h118v-118zM159 879h118v-118h-118v118z" />
    <glyph glyph-name="Yacute" unicode="&#xdd;" horiz-adv-x="601" 
d="M232 311l-229 389h156l142 -256l142 256h156l-230 -389v-311h-137v311zM344 763h-124l80 137h155z" />
    <glyph glyph-name="Thorn" unicode="&#xde;" horiz-adv-x="588" 
d="M65 700h138v-117h127q97 0 165 -68t68 -165q0 -96 -68 -164t-165 -68h-127v-118h-138v700zM330 454h-127v-207h127q39 0 67 30t28 73t-28 73.5t-67 30.5z" />
    <glyph glyph-name="germandbls" unicode="&#xdf;" horiz-adv-x="513" 
d="M269 -6v114q9 -1 26 -1q77 0 77 60q0 28 -30 67.5t-59.5 79t-29.5 68.5q0 26 33.5 77.5t33.5 82.5q0 25 -17 39.5t-44 14.5q-31 0 -51 -18.5t-20 -59.5v-518h-129v518q0 89 54.5 142.5t149.5 53.5q87 0 136.5 -42.5t49.5 -109.5q0 -38 -17.5 -72t-35.5 -59.5t-18 -41.5
q0 -19 19 -46.5t42.5 -53t42.5 -65t19 -79.5q0 -68 -44 -110.5t-141 -42.5q-30 0 -47 2z" />
    <glyph glyph-name="agrave" unicode="&#xe0;" horiz-adv-x="509" 
d="M33 144q0 75 48.5 116t119.5 41q85 0 136 -44v53q0 84 -78 84q-35 0 -56 -17.5t-21 -46.5h-126q0 85 58.5 134.5t144.5 49.5q88 0 146 -51.5t58 -144.5v-318h-126v43q-47 -57 -136 -57q-71 0 -119.5 41.5t-48.5 116.5zM162 144q0 -28 21 -45t62 -17q42 0 67 17.5t25 44.5
q0 29 -24.5 45.5t-67.5 16.5q-41 0 -62 -17t-21 -45zM102 708h155l80 -137h-124z" />
    <glyph glyph-name="aacute" unicode="&#xe1;" horiz-adv-x="509" 
d="M33 144q0 75 48.5 116t119.5 41q85 0 136 -44v53q0 84 -78 84q-35 0 -56 -17.5t-21 -46.5h-126q0 85 58.5 134.5t144.5 49.5q88 0 146 -51.5t58 -144.5v-318h-126v43q-47 -57 -136 -57q-71 0 -119.5 41.5t-48.5 116.5zM245 206q-41 0 -62 -17t-21 -45t21 -45t62 -17
q42 0 67 17.5t25 44.5q0 29 -24.5 45.5t-67.5 16.5zM180 571l80 137h155l-111 -137h-124z" />
    <glyph glyph-name="acircumflex" unicode="&#xe2;" horiz-adv-x="509" 
d="M33 144q0 75 48.5 116t119.5 41q85 0 136 -44v53q0 84 -78 84q-35 0 -56 -17.5t-21 -46.5h-126q0 85 58.5 134.5t144.5 49.5q88 0 146 -51.5t58 -144.5v-318h-126v43q-47 -57 -136 -57q-71 0 -119.5 41.5t-48.5 116.5zM213 563h-128l106 145h131l106 -145h-128l-43 65z
M245 206q-41 0 -62 -17t-21 -45t21 -45t62 -17q42 0 67 17.5t25 44.5q0 29 -24.5 45.5t-67.5 16.5z" />
    <glyph glyph-name="atilde" unicode="&#xe3;" horiz-adv-x="509" 
d="M201 -14q-71 0 -119.5 41.5t-48.5 116.5t48.5 116t119.5 41q85 0 136 -44v53q0 84 -78 84q-35 0 -56 -17.5t-21 -46.5h-126q0 85 58.5 134.5t144.5 49.5q88 0 146 -51.5t58 -144.5v-318h-126v43q-47 -57 -136 -57zM91 568q0 76 27 112.5t71 36.5q40 0 84 -28
q25 -17 36 -17q16 0 16 41h105q0 -76 -27 -112.5t-71 -36.5q-40 0 -84 28q-25 17 -37 17q-16 0 -16 -41h-104zM245 206q-41 0 -62 -17t-21 -45t21 -45t62 -17q42 0 67 17.5t25 44.5q0 29 -24.5 45.5t-67.5 16.5z" />
    <glyph glyph-name="adieresis" unicode="&#xe4;" horiz-adv-x="509" 
d="M33 144q0 75 48.5 116t119.5 41q85 0 136 -44v53q0 84 -78 84q-35 0 -56 -17.5t-21 -46.5h-126q0 85 58.5 134.5t144.5 49.5q88 0 146 -51.5t58 -144.5v-318h-126v43q-47 -57 -136 -57q-71 0 -119.5 41.5t-48.5 116.5zM245 206q-41 0 -62 -17t-21 -45t21 -45t62 -17
q42 0 67 17.5t25 44.5q0 29 -24.5 45.5t-67.5 16.5zM293 569v118h118v-118h-118zM108 569v118h118v-118h-118z" />
    <glyph glyph-name="aring" unicode="&#xe5;" horiz-adv-x="509" 
d="M201 -14q-71 0 -119.5 41.5t-48.5 116.5t48.5 116t119.5 41q85 0 136 -44v53q0 84 -78 84q-35 0 -56 -17.5t-21 -46.5h-126q0 85 58.5 134.5t144.5 49.5q88 0 146 -51.5t58 -144.5v-318h-126v43q-47 -57 -136 -57zM259 547q-55 0 -90.5 34t-35.5 85t35.5 84.5t90.5 33.5
q56 0 91 -33.5t35 -84.5q0 -52 -35 -85.5t-91 -33.5zM162 144q0 -28 21 -45t62 -17q42 0 67 17.5t25 44.5q0 29 -24.5 45.5t-67.5 16.5q-41 0 -62 -17t-21 -45zM220 666q0 -17 10.5 -27.5t28.5 -10.5q40 0 40 38q0 37 -40 37q-18 0 -28.5 -10.5t-10.5 -26.5z" />
    <glyph glyph-name="ae" unicode="&#xe6;" horiz-adv-x="835" 
d="M470 197q21 -104 114 -104q55 0 80 50l127 1q-15 -73 -70 -114.5t-127 -41.5q-115 0 -172 83q-51 -85 -188 -85q-91 0 -146 42.5t-55 115.5q0 75 48.5 116t119.5 41q83 0 136 -42v51l44 3l-44 -3q0 84 -78 84q-35 0 -56 -17.5t-21 -46.5h-126q0 85 57.5 134.5t140.5 49.5
q117 0 167 -89q57 89 166 89q101 0 160 -75t59 -189q0 -32 -5 -53h-331zM470 298h210q-8 51 -35.5 75.5t-65.5 24.5q-45 0 -73 -26t-36 -74zM246 82q43 0 67 17t24 45q0 29 -24.5 45.5t-67.5 16.5q-41 0 -62 -17t-21 -45t21.5 -45t62.5 -17z" />
    <glyph glyph-name="ccedilla" unicode="&#xe7;" horiz-adv-x="566" 
d="M297 114q40 0 70.5 18.5t43.5 50.5h136q-14 -72 -66.5 -123.5t-126.5 -67.5v-38q29 -7 49.5 -26.5t20.5 -51.5q0 -93 -173 -93q-30 0 -47 1v91q14 -1 39 -1q69 0 69 21q0 20 -63 25v70q-96 17 -156 89t-60 171q0 112 75.5 188t188.5 76q93 0 163 -55t87 -141h-136
q-14 32 -44.5 50.5t-69.5 18.5q-57 0 -96 -38.5t-39 -98.5q0 -59 39 -97.5t96 -38.5z" />
    <glyph glyph-name="egrave" unicode="&#xe8;" horiz-adv-x="576" 
d="M376 567h-124l-111 137h155zM167 197q12 -51 48.5 -77.5t86.5 -26.5q34 0 62 14t41 36l127 1q-23 -75 -84.5 -116.5t-146.5 -41.5q-120 0 -194 75t-74 189q0 113 74 188.5t191 75.5q109 0 179 -76t70 -188q0 -32 -5 -53h-375zM166 298h252q-11 51 -44 75.5t-77 24.5
q-51 0 -85 -26t-46 -74z" />
    <glyph glyph-name="eacute" unicode="&#xe9;" horiz-adv-x="576" 
d="M454 704l-111 -137h-124l80 137h155zM167 197q12 -51 48.5 -77.5t86.5 -26.5q34 0 62 14t41 36l127 1q-23 -75 -84.5 -116.5t-146.5 -41.5q-120 0 -194 75t-74 189q0 113 74 188.5t191 75.5q109 0 179 -76t70 -188q0 -32 -5 -53h-375zM166 298h252q-11 51 -44 75.5
t-77 24.5q-51 0 -85 -26t-46 -74z" />
    <glyph glyph-name="ecircumflex" unicode="&#xea;" horiz-adv-x="576" 
d="M33 250q0 113 74 188.5t191 75.5q109 0 179 -76t70 -188q0 -32 -5 -53h-375q12 -51 48.5 -77.5t86.5 -26.5q34 0 62 14t41 36l127 1q-23 -75 -84.5 -116.5t-146.5 -41.5q-120 0 -194 75t-74 189zM124 559l106 145h131l106 -145h-128l-43 65l-44 -65h-128zM297 398
q-51 0 -85 -26t-46 -74h252q-11 51 -44 75.5t-77 24.5z" />
    <glyph glyph-name="edieresis" unicode="&#xeb;" horiz-adv-x="576" 
d="M33 250q0 113 74 188.5t191 75.5q109 0 179 -76t70 -188q0 -32 -5 -53h-375q12 -51 48.5 -77.5t86.5 -26.5q34 0 62 14t41 36l127 1q-23 -75 -84.5 -116.5t-146.5 -41.5q-120 0 -194 75t-74 189zM297 398q-51 0 -85 -26t-46 -74h252q-11 51 -44 75.5t-77 24.5zM451 565
h-118v118h118v-118zM148 565v118h118v-118h-118z" />
    <glyph glyph-name="igrave" unicode="&#xec;" horiz-adv-x="247" 
d="M184 555l-43 145h-148l67 -145h124zM188 0h-129v500h129v-500z" />
    <glyph glyph-name="iacute" unicode="&#xed;" horiz-adv-x="247" 
d="M60 555h124l66 145h-148zM59 0v500h129v-500h-129z" />
    <glyph glyph-name="icircumflex" unicode="&#xee;" horiz-adv-x="247" 
d="M59 500h129v-500h-129v500zM92 555h-128l94 145h131l93 -145h-127l-32 53z" />
    <glyph glyph-name="idieresis" unicode="&#xef;" horiz-adv-x="247" 
d="M59 500h129v-500h-129v500zM97 561h-118v118h118v-118zM267 561h-117v118h117v-118z" />
    <glyph glyph-name="eth" unicode="&#xf0;" horiz-adv-x="571" 
d="M493 370q46 -63 46 -140q0 -110 -74 -176t-179 -66t-179 66t-74 176q0 95 66 160.5t161 65.5q2 0 7.5 -0.5t8.5 -0.5l-58 80l-127 -63v90l79 39l-72 99h149l33 -45l118 59v-90l-69 -35zM286 109q54 0 89 32.5t35 88.5q0 53 -34.5 85t-89.5 32t-89.5 -32t-34.5 -85
q0 -56 34.5 -88.5t89.5 -32.5z" />
    <glyph glyph-name="ntilde" unicode="&#xf1;" horiz-adv-x="532" 
d="M59 0v500h129v-51q43 65 136 65q71 0 116.5 -52t45.5 -142v-320h-129v310q0 41 -22 62.5t-57 21.5q-41 0 -65.5 -25.5t-24.5 -78.5v-290h-129zM101 568q0 76 27 112.5t71 36.5q40 0 84 -28q25 -17 36 -17q16 0 16 41h105q0 -76 -27 -112.5t-71 -36.5q-40 0 -84 28
q-25 17 -37 17q-16 0 -16 -41h-104z" />
    <glyph glyph-name="ograve" unicode="&#xf2;" horiz-adv-x="594" 
d="M375 571l-80 137h-155l111 -137h124zM297 -14q-111 0 -187.5 76.5t-76.5 187.5t76.5 187.5t187.5 76.5t188 -76.5t77 -187.5t-77 -187.5t-188 -76.5zM297 112q58 0 97 39t39 99t-39 99t-97 39t-96.5 -39t-38.5 -99t38.5 -99t96.5 -39z" />
    <glyph glyph-name="oacute" unicode="&#xf3;" horiz-adv-x="594" 
d="M217 571h124l111 137h-155zM297 -14q-111 0 -187.5 76.5t-76.5 187.5t76.5 187.5t187.5 76.5t188 -76.5t77 -187.5t-77 -187.5t-188 -76.5zM297 112q58 0 97 39t39 99t-39 99t-97 39t-96.5 -39t-38.5 -99t38.5 -99t96.5 -39z" />
    <glyph glyph-name="ocircumflex" unicode="&#xf4;" horiz-adv-x="594" 
d="M297 -14q-111 0 -187.5 76.5t-76.5 187.5t76.5 187.5t187.5 76.5t188 -76.5t77 -187.5t-77 -187.5t-188 -76.5zM297 388q-58 0 -96.5 -39t-38.5 -99t38.5 -99t96.5 -39t97 39t39 99t-39 99t-97 39zM250 563h-128l106 145h131l106 -145h-128l-43 65z" />
    <glyph glyph-name="otilde" unicode="&#xf5;" horiz-adv-x="594" 
d="M128 568q0 76 27 112.5t71 36.5q40 0 84 -28q25 -17 36 -17q16 0 16 41h105q0 -76 -27 -112.5t-71 -36.5q-40 0 -84 28q-25 17 -37 17q-16 0 -16 -41h-104zM297 -14q-111 0 -187.5 76.5t-76.5 187.5t76.5 187.5t187.5 76.5t188 -76.5t77 -187.5t-77 -187.5t-188 -76.5z
M297 112q58 0 97 39t39 99t-39 99t-97 39t-96.5 -39t-38.5 -99t38.5 -99t96.5 -39z" />
    <glyph glyph-name="odieresis" unicode="&#xf6;" horiz-adv-x="594" 
d="M33 250q0 111 76.5 187.5t187.5 76.5t188 -76.5t77 -187.5t-77 -187.5t-188 -76.5t-187.5 76.5t-76.5 187.5zM297 388q-58 0 -96.5 -39t-38.5 -99t38.5 -99t96.5 -39t97 39t39 99t-39 99t-97 39zM331 569v118h118v-118h-118zM146 687h118v-118h-118v118z" />
    <glyph glyph-name="divide" unicode="&#xf7;" horiz-adv-x="565" 
d="M283 463q-35 0 -58.5 23.5t-23.5 58.5q0 34 23.5 57.5t58.5 23.5t58 -23t23 -58t-23.5 -58.5t-57.5 -23.5zM45 290v121h475v-121h-475zM283 74q-35 0 -58.5 24t-23.5 58t23.5 57.5t58.5 23.5t58 -23.5t23 -57.5q0 -35 -23.5 -58.5t-57.5 -23.5z" />
    <glyph glyph-name="oslash" unicode="&#xf8;" horiz-adv-x="594" 
d="M486 436q76 -76 76 -186q0 -111 -77 -187.5t-188 -76.5q-80 0 -149 45l-25 -31h-83l60 72q-67 75 -67 178q0 111 76.5 187.5t187.5 76.5q77 0 139 -39l21 25h82zM162 250q0 -45 21 -78l171 204q-25 12 -57 12q-58 0 -96.5 -39t-38.5 -99zM297 112q58 0 97 39t39 99
q0 49 -29 88l-174 -209q29 -17 67 -17z" />
    <glyph glyph-name="ugrave" unicode="&#xf9;" horiz-adv-x="533" 
d="M46 181v319h129v-310q0 -41 22 -62.5t57 -21.5q41 0 66 25.5t25 79.5v289h129v-500h-129v52q-43 -66 -136 -66q-72 0 -117.5 52.5t-45.5 142.5zM110 700h155l80 -137h-124z" />
    <glyph glyph-name="uacute" unicode="&#xfa;" horiz-adv-x="533" 
d="M46 500h129v-310q0 -41 22 -62.5t57 -21.5q41 0 66 25.5t25 79.5v289h129v-500h-129v52q-43 -66 -136 -66q-72 0 -117.5 52.5t-45.5 142.5v319zM187 563l80 137h155l-111 -137h-124z" />
    <glyph glyph-name="ucircumflex" unicode="&#xfb;" horiz-adv-x="533" 
d="M46 181v319h129v-310q0 -41 22 -62.5t57 -21.5q41 0 66 25.5t25 79.5v289h129v-500h-129v52q-43 -66 -136 -66q-72 0 -117.5 52.5t-45.5 142.5zM220 555h-128l106 145h131l106 -145h-128l-43 65z" />
    <glyph glyph-name="udieresis" unicode="&#xfc;" horiz-adv-x="533" 
d="M46 181v319h129v-310q0 -41 22 -62.5t57 -21.5q41 0 66 25.5t25 79.5v289h129v-500h-129v52q-43 -66 -136 -66q-72 0 -117.5 52.5t-45.5 142.5zM301 679h118v-118h-118v118zM234 561h-118v118h118v-118z" />
    <glyph glyph-name="yacute" unicode="&#xfd;" horiz-adv-x="500" 
d="M194 7l-191 493h137l118 -315l102 315h138l-237 -700h-137zM294 563h-124l80 137h155z" />
    <glyph glyph-name="thorn" unicode="&#xfe;" horiz-adv-x="626" 
d="M59 700h129v-259q57 73 162 73q101 0 172.5 -76.5t71.5 -187.5t-71.5 -187.5t-172.5 -76.5q-105 0 -162 73v-259h-129v900zM326 391q-60 0 -99 -39.5t-39 -101.5t39 -101.5t99 -39.5t99.5 39.5t39.5 101.5t-39.5 101.5t-99.5 39.5z" />
    <glyph glyph-name="ydieresis" unicode="&#xff;" horiz-adv-x="500" 
d="M3 500h137l118 -315l102 315h138l-237 -700h-137l70 207zM284 679h118v-118h-118v118zM99 679h118v-118h-118v118z" />
    <glyph glyph-name="Amacron" unicode="&#x100;" horiz-adv-x="653" 
d="M3 0l238 700h171l238 -700h-150l-40 126h-268l-40 -126h-149zM471 764h-290v105h290v-105zM326 547l-93 -292h186z" />
    <glyph glyph-name="amacron" unicode="&#x101;" horiz-adv-x="509" 
d="M201 -14q-71 0 -119.5 41.5t-48.5 116.5t48.5 116t119.5 41q85 0 136 -44v53q0 84 -78 84q-35 0 -56 -17.5t-21 -46.5h-126q0 85 58.5 134.5t144.5 49.5q88 0 146 -51.5t58 -144.5v-318h-126v43q-47 -57 -136 -57zM115 677h290v-105h-290v105zM162 144q0 -28 21 -45
t62 -17q42 0 67 17.5t25 44.5q0 29 -24.5 45.5t-67.5 16.5q-41 0 -62 -17t-21 -45z" />
    <glyph glyph-name="Abreve" unicode="&#x102;" horiz-adv-x="653" 
d="M152 0h-149l238 700h171l238 -700h-150l-40 126h-268zM160 892h115q0 -52 51 -52q52 0 52 52h115q0 -69 -43.5 -107t-123.5 -38q-79 0 -122.5 38t-43.5 107zM233 255h186l-93 292z" />
    <glyph glyph-name="abreve" unicode="&#x103;" horiz-adv-x="509" 
d="M33 144q0 75 48.5 116t119.5 41q85 0 136 -44v53q0 84 -78 84q-35 0 -56 -17.5t-21 -46.5h-126q0 85 58.5 134.5t144.5 49.5q88 0 146 -51.5t58 -144.5v-318h-126v43q-47 -57 -136 -57q-71 0 -119.5 41.5t-48.5 116.5zM259 555q-79 0 -122.5 38t-43.5 107h115
q0 -52 51 -52q52 0 52 52h115q0 -69 -43.5 -107t-123.5 -38zM245 206q-41 0 -62 -17t-21 -45t21 -45t62 -17q42 0 67 17.5t25 44.5q0 29 -24.5 45.5t-67.5 16.5z" />
    <glyph glyph-name="Aogonek" unicode="&#x104;" horiz-adv-x="653" 
d="M152 0h-149l238 700h171l238 -700q-53 -56 -53 -95q0 -27 25 -27q16 0 28 5v-81q-38 -16 -81 -16q-42 0 -68.5 22.5t-26.5 65.5q0 57 66 126h-40l-40 126h-268zM233 255h186l-93 292z" />
    <glyph glyph-name="aogonek" unicode="&#x105;" horiz-adv-x="509" 
d="M33 144q0 75 48.5 116t119.5 41q85 0 136 -44v53q0 84 -78 84q-35 0 -56 -17.5t-21 -46.5h-126q0 85 58.5 134.5t144.5 49.5q88 0 146 -51.5t58 -144.5v-318q-53 -55 -53 -95q-2 -27 25 -27q13 0 28 5v-81q-40 -16 -81 -16q-43 0 -69.5 22.5t-26.5 65.5q0 56 64 126h-13
v43q-47 -57 -136 -57q-71 0 -119.5 41.5t-48.5 116.5zM162 144q0 -28 21 -45t62 -17q42 0 67 17.5t25 44.5q0 29 -24.5 45.5t-67.5 16.5q-41 0 -62 -17t-21 -45z" />
    <glyph glyph-name="Cacute" unicode="&#x106;" horiz-adv-x="752" 
d="M317 771h124l111 137h-155zM397 -14q-158 0 -261 105t-103 259q0 155 103 259.5t261 104.5q125 0 220 -74t120 -190h-145q-19 59 -72.5 94.5t-122.5 35.5q-102 0 -164.5 -64t-62.5 -166q0 -101 62.5 -165t164.5 -64q69 0 122.5 35t72.5 94h145q-25 -116 -120 -190
t-220 -74z" />
    <glyph glyph-name="cacute" unicode="&#x107;" horiz-adv-x="566" 
d="M216 563h124l111 137h-155zM547 183q-17 -86 -87 -141.5t-163 -55.5q-113 0 -188.5 76t-75.5 188t75.5 188t188.5 76q93 0 163 -55t87 -141h-136q-14 32 -44.5 50.5t-69.5 18.5q-57 0 -96 -38.5t-39 -98.5q0 -59 39 -97.5t96 -38.5q40 0 70.5 18.5t43.5 50.5h136z" />
    <glyph glyph-name="Cdotaccent" unicode="&#x10a;" horiz-adv-x="752" 
d="M330 766v135h135v-135h-135zM397 -14q-158 0 -261 105t-103 259q0 155 103 259.5t261 104.5q125 0 220 -74t120 -190h-145q-19 59 -72.5 94.5t-122.5 35.5q-102 0 -164.5 -64t-62.5 -166q0 -101 62.5 -165t164.5 -64q69 0 122.5 35t72.5 94h145q-25 -116 -120 -190
t-220 -74z" />
    <glyph glyph-name="cdotaccent" unicode="&#x10b;" horiz-adv-x="566" 
d="M228 558v135h135v-135h-135zM547 183q-17 -86 -87 -141.5t-163 -55.5q-113 0 -188.5 76t-75.5 188t75.5 188t188.5 76q93 0 163 -55t87 -141h-136q-14 32 -44.5 50.5t-69.5 18.5q-57 0 -96 -38.5t-39 -98.5q0 -59 39 -97.5t96 -38.5q40 0 70.5 18.5t43.5 50.5h136z" />
    <glyph glyph-name="Ccaron" unicode="&#x10c;" horiz-adv-x="752" 
d="M33 350q0 155 103 259.5t261 104.5q125 0 220 -74t120 -190h-145q-19 59 -72.5 94.5t-122.5 35.5q-102 0 -164.5 -64t-62.5 -166q0 -101 62.5 -165t164.5 -64q69 0 122.5 35t72.5 94h145q-25 -116 -120 -190t-220 -74q-158 0 -261 105t-103 259zM222 908h128l44 -65
l43 65h128l-106 -145h-131z" />
    <glyph glyph-name="ccaron" unicode="&#x10d;" horiz-adv-x="566" 
d="M33 250q0 112 75.5 188t188.5 76q93 0 163 -55t87 -141h-136q-14 32 -44.5 50.5t-69.5 18.5q-57 0 -96 -38.5t-39 -98.5q0 -59 39 -97.5t96 -38.5q40 0 70.5 18.5t43.5 50.5h136q-17 -86 -87 -141.5t-163 -55.5q-113 0 -188.5 76t-75.5 188zM121 700h128l44 -65l43 65
h128l-106 -145h-131z" />
    <glyph glyph-name="Dcaron" unicode="&#x10e;" horiz-adv-x="733" 
d="M65 700h298q144 0 240.5 -101t96.5 -249t-96.5 -249t-240.5 -101h-298v700zM203 132h160q91 0 148 60.5t57 157.5t-57 157.5t-148 60.5h-160v-436zM266 755l-106 145h128l44 -65l43 65h128l-106 -145h-131z" />
    <glyph glyph-name="dcaron" unicode="&#x10f;" horiz-adv-x="735" 
d="M276 -14q-100 0 -171.5 76.5t-71.5 187.5t71.5 187.5t171.5 76.5q105 0 163 -73v259h129v-700h-129v59q-58 -73 -163 -73zM300 391q-60 0 -99 -39.5t-39 -101.5t39 -101.5t99 -39.5t99.5 39.5t39.5 101.5t-39.5 101.5t-99.5 39.5zM614 500l10 200h121l-30 -200h-101z" />
    <glyph glyph-name="Dcroat" unicode="&#x110;" horiz-adv-x="768" 
d="M100 281h-77v124h77v295h298q144 0 240.5 -101t96.5 -249t-96.5 -249t-240.5 -101h-298v281zM398 568h-160v-163h160v-124h-160v-149h160q91 0 148 60.5t57 157.5t-57 157.5t-148 60.5z" />
    <glyph glyph-name="dcroat" unicode="&#x111;" horiz-adv-x="633" 
d="M276 -14q-100 0 -171.5 76.5t-71.5 187.5t71.5 187.5t171.5 76.5q105 0 163 -73v113h-151v84h151v62h129v-62h62v-84h-62v-554h-129v59q-58 -73 -163 -73zM300 391q-60 0 -99 -39.5t-39 -101.5t39 -101.5t99 -39.5t99.5 39.5t39.5 101.5t-39.5 101.5t-99.5 39.5z" />
    <glyph glyph-name="Emacron" unicode="&#x112;" horiz-adv-x="513" 
d="M480 0h-415v700h410v-132h-272v-150h247v-129h-247v-157h277v-132zM126 764v105h290v-105h-290z" />
    <glyph glyph-name="emacron" unicode="&#x113;" horiz-adv-x="576" 
d="M444 673v-105h-290v105h290zM167 197q12 -51 48.5 -77.5t86.5 -26.5q34 0 62 14t41 36l127 1q-23 -75 -84.5 -116.5t-146.5 -41.5q-120 0 -194 75t-74 189q0 113 74 188.5t191 75.5q109 0 179 -76t70 -188q0 -32 -5 -53h-375zM166 298h252q-11 51 -44 75.5t-77 24.5
q-51 0 -85 -26t-46 -74z" />
    <glyph glyph-name="Edotaccent" unicode="&#x116;" horiz-adv-x="513" 
d="M65 0v700h410v-132h-272v-150h247v-129h-247v-157h277v-132h-415zM338 758h-135v135h135v-135z" />
    <glyph glyph-name="edotaccent" unicode="&#x117;" horiz-adv-x="576" 
d="M366 697v-135h-135v135h135zM167 197q12 -51 48.5 -77.5t86.5 -26.5q34 0 62 14t41 36l127 1q-23 -75 -84.5 -116.5t-146.5 -41.5q-120 0 -194 75t-74 189q0 113 74 188.5t191 75.5q109 0 179 -76t70 -188q0 -32 -5 -53h-375zM166 298h252q-11 51 -44 75.5t-77 24.5
q-51 0 -85 -26t-46 -74z" />
    <glyph glyph-name="Eogonek" unicode="&#x118;" horiz-adv-x="513" 
d="M65 0v700h410v-132h-272v-150h247v-129h-247v-157h277v-132q-52 -55 -52 -95q-2 -27 25 -27q12 0 27 5v-81q-38 -16 -80 -16q-43 0 -69.5 22.5t-26.5 65.5q0 57 66 126h-305z" />
    <glyph glyph-name="eogonek" unicode="&#x119;" horiz-adv-x="576" 
d="M167 197q12 -51 48.5 -77.5t86.5 -26.5q34 0 62 14t41 36l127 1q-22 -70 -79 -112q-67 -77 -67 -127q-2 -27 25 -27q13 0 28 5v-81q-40 -16 -81 -16q-43 0 -69 22.5t-26 65.5q0 57 64 114q-18 -2 -26 -2q-120 0 -194 75t-74 189q0 113 74 188.5t191 75.5q109 0 179 -76
t70 -188q0 -32 -5 -53h-375zM166 298h252q-11 51 -44 75.5t-77 24.5q-51 0 -85 -26t-46 -74z" />
    <glyph glyph-name="Ecaron" unicode="&#x11a;" horiz-adv-x="513" 
d="M480 0h-415v700h410v-132h-272v-150h247v-129h-247v-157h277v-132zM96 900h128l44 -65l43 65h128l-106 -145h-131z" />
    <glyph glyph-name="ecaron" unicode="&#x11b;" horiz-adv-x="576" 
d="M33 250q0 113 74 188.5t191 75.5q109 0 179 -76t70 -188q0 -32 -5 -53h-375q12 -51 48.5 -77.5t86.5 -26.5q34 0 62 14t41 36l127 1q-23 -75 -84.5 -116.5t-146.5 -41.5q-120 0 -194 75t-74 189zM230 559l-106 145h128l44 -65l43 65h128l-106 -145h-131zM297 398
q-51 0 -85 -26t-46 -74h252q-11 51 -44 75.5t-77 24.5z" />
    <glyph glyph-name="Gbreve" unicode="&#x11e;" horiz-adv-x="785" 
d="M33 350q0 155 103 259.5t260 104.5q123 0 218.5 -71.5t120.5 -177.5h-144q-20 49 -74 82t-121 33q-101 0 -163.5 -64t-62.5 -166q0 -106 63.5 -171.5t162.5 -65.5q74 0 130 35.5t72 105.5h-195v122h332v-376h-130v89q-74 -103 -224 -103q-149 0 -248.5 105t-99.5 259z
M393 755q-79 0 -122.5 38t-43.5 107h115q0 -52 51 -52q52 0 52 52h115q0 -69 -43.5 -107t-123.5 -38z" />
    <glyph glyph-name="gbreve" unicode="&#x11f;" horiz-adv-x="623" 
d="M276 2q-100 0 -171.5 75t-71.5 181t71.5 181t171.5 75q108 0 166 -76v62h126v-476q0 -115 -76 -176.5t-180 -61.5q-103 0 -176 53.5t-73 146.5h129q0 -35 32 -60t88 -25q61 0 95.5 32t34.5 91v53q-57 -75 -166 -75zM162 258q0 -60 39.5 -98.5t100.5 -38.5t100.5 38.5
t39.5 98.5q0 59 -39.5 97.5t-100.5 38.5t-100.5 -38.5t-39.5 -97.5zM131 700h115q0 -52 51 -52q52 0 52 52h115q0 -69 -43.5 -107t-123.5 -38q-79 0 -122.5 38t-43.5 107z" />
    <glyph glyph-name="Gdotaccent" unicode="&#x120;" horiz-adv-x="785" 
d="M461 901v-135h-135v135h135zM403 254v122h332v-376h-130v89q-74 -103 -224 -103q-149 0 -248.5 105t-99.5 259q0 155 103 259.5t260 104.5q123 0 218.5 -71.5t120.5 -177.5h-144q-20 49 -74 82t-121 33q-101 0 -163.5 -64t-62.5 -166q0 -106 63.5 -171.5t162.5 -65.5
q74 0 130 35.5t72 105.5h-195z" />
    <glyph glyph-name="gdotaccent" unicode="&#x121;" horiz-adv-x="623" 
d="M276 2q-100 0 -171.5 75t-71.5 181t71.5 181t171.5 75q108 0 166 -76v62h126v-476q0 -115 -76 -176.5t-180 -61.5q-103 0 -176 53.5t-73 146.5h129q0 -35 32 -60t88 -25q61 0 95.5 32t34.5 91v53q-57 -75 -166 -75zM302 394q-61 0 -100.5 -38.5t-39.5 -97.5
q0 -60 39.5 -98.5t100.5 -38.5t100.5 38.5t39.5 98.5q0 59 -39.5 97.5t-100.5 38.5zM364 566h-135v135h135v-135z" />
    <glyph glyph-name="uni0122" unicode="&#x122;" horiz-adv-x="785" 
d="M403 254v122h332v-376h-130v89q-74 -103 -224 -103q-149 0 -248.5 105t-99.5 259q0 155 103 259.5t260 104.5q123 0 218.5 -71.5t120.5 -177.5h-144q-20 49 -74 82t-121 33q-101 0 -163.5 -64t-62.5 -166q0 -106 63.5 -171.5t162.5 -65.5q74 0 130 35.5t72 105.5h-195z
M338 -263l10 200h122l-30 -200h-102z" />
    <glyph glyph-name="uni0123" unicode="&#x123;" horiz-adv-x="623" 
d="M276 2q-100 0 -171.5 75t-71.5 181t71.5 181t171.5 75q108 0 166 -76v62h126v-476q0 -115 -76 -176.5t-180 -61.5q-103 0 -176 53.5t-73 146.5h129q0 -35 32 -60t88 -25q61 0 95.5 32t34.5 91v53q-57 -75 -166 -75zM302 394q-61 0 -100.5 -38.5t-39.5 -97.5
q0 -60 39.5 -98.5t100.5 -38.5t100.5 38.5t39.5 98.5q0 59 -39.5 97.5t-100.5 38.5zM229 582l30 200h102l-10 -200h-122z" />
    <glyph glyph-name="Hbar" unicode="&#x126;" horiz-adv-x="680" 
d="M86 501h-61v101h61v98h138v-98h232v98h138v-98h61v-101h-61v-501h-138v272h-232v-272h-138v501zM224 404h232v97h-232v-97z" />
    <glyph glyph-name="hbar" unicode="&#x127;" horiz-adv-x="539" 
d="M65 554h-62v84h62v62h129v-62h141v-84h-141v-105q43 65 136 65q71 0 117 -52t46 -142v-320h-129v310q0 41 -22 62.5t-58 21.5q-40 0 -65 -25.5t-25 -78.5v-290h-129v554z" />
    <glyph glyph-name="Imacron" unicode="&#x12a;" 
d="M-11 764v105h290v-105h-290zM65 700h138v-700h-138v700z" />
    <glyph glyph-name="imacron" unicode="&#x12b;" horiz-adv-x="247" 
d="M8 564v112h230v-112h-230zM59 0v500h129v-500h-129z" />
    <glyph glyph-name="Iogonek" unicode="&#x12e;" 
d="M194 -122q13 0 28 5v-81q-40 -16 -81 -16q-43 0 -69.5 22.5t-26.5 65.5q0 58 46 126h-26v700h138v-700q-34 -56 -34 -95q-2 -27 25 -27z" />
    <glyph glyph-name="iogonek" unicode="&#x12f;" horiz-adv-x="247" 
d="M30 -124q0 54 43 124h-14v500h129v-500q-34 -55 -34 -92q-2 -30 25 -30q12 0 27 5v-81q-38 -16 -80 -16q-43 0 -69.5 24t-26.5 66zM59 570v130h129v-130h-129z" />
    <glyph glyph-name="Idotaccent" unicode="&#x130;" 
d="M66 758v135h135v-135h-135zM65 700h138v-700h-138v700z" />
    <glyph glyph-name="dotlessi" unicode="&#x131;" horiz-adv-x="247" 
d="M59 0v500h129v-500h-129z" />
    <glyph glyph-name="uni0136" unicode="&#x136;" horiz-adv-x="615" 
d="M203 0h-138v700h138v-309l240 309h159l-259 -341l269 -359h-159l-250 329v-329zM243 -263l10 200h122l-30 -200h-102z" />
    <glyph glyph-name="uni0137" unicode="&#x137;" horiz-adv-x="517" 
d="M188 0h-129v700h129v-420l165 220h149l-190 -247l200 -253h-149l-175 226v-226zM216 -263l10 200h122l-30 -200h-102z" />
    <glyph glyph-name="Lacute" unicode="&#x139;" horiz-adv-x="475" 
d="M302 900l-111 -137h-124l80 137h155zM203 132h260v-132h-398v700h138v-568z" />
    <glyph glyph-name="lacute" unicode="&#x13a;" horiz-adv-x="247" 
d="M57 763h124l111 137h-155zM59 0v720h129v-720h-129z" />
    <glyph glyph-name="uni013B" unicode="&#x13b;" horiz-adv-x="475" 
d="M203 132h260v-132h-398v700h138v-568zM209 -263l10 200h122l-30 -200h-102z" />
    <glyph glyph-name="uni013C" unicode="&#x13c;" horiz-adv-x="247" 
d="M59 0v720h129v-720h-129zM157 -263l30 200h-122l-10 -200h102z" />
    <glyph glyph-name="Lcaron" unicode="&#x13d;" horiz-adv-x="475" 
d="M463 0h-398v700h138v-568h260v-132zM267 515l10 185h129l-30 -185h-109z" />
    <glyph glyph-name="lcaron" unicode="&#x13e;" horiz-adv-x="354" 
d="M59 0v720h129v-720h-129zM334 520h-102l10 200h122z" />
    <glyph glyph-name="Lslash" unicode="&#x141;" horiz-adv-x="503" 
d="M33 313l52 34v353h138v-263l140 92v-138l-140 -92v-167h260v-132h-398v209l-52 -34v138z" />
    <glyph glyph-name="lslash" unicode="&#x142;" horiz-adv-x="263" 
d="M67 242l-54 -37v123l54 37v355h129v-267l54 37v-123l-54 -37v-330h-129v242z" />
    <glyph glyph-name="Nacute" unicode="&#x143;" horiz-adv-x="645" 
d="M65 0v700h105l273 -432v432h137v-700h-105l-272 433v-433h-138zM243 763l80 137h155l-111 -137h-124z" />
    <glyph glyph-name="nacute" unicode="&#x144;" horiz-adv-x="532" 
d="M59 500h129v-51q43 65 136 65q71 0 116.5 -52t45.5 -142v-320h-129v310q0 41 -22 62.5t-57 21.5q-41 0 -65.5 -25.5t-24.5 -78.5v-290h-129v500zM314 571h-124l80 137h155z" />
    <glyph glyph-name="uni0145" unicode="&#x145;" horiz-adv-x="645" 
d="M65 0v700h105l273 -432v432h137v-700h-105l-272 433v-433h-138zM360 -263h-102l10 200h122z" />
    <glyph glyph-name="uni0146" unicode="&#x146;" horiz-adv-x="532" 
d="M59 0v500h129v-51q43 65 136 65q71 0 116.5 -52t45.5 -142v-320h-129v310q0 41 -22 62.5t-57 21.5q-41 0 -65.5 -25.5t-24.5 -78.5v-290h-129zM313 -263h-102l10 200h122z" />
    <glyph glyph-name="Ncaron" unicode="&#x147;" horiz-adv-x="645" 
d="M65 700h105l273 -432v432h137v-700h-105l-272 433v-433h-138v700zM148 900h128l44 -65l43 65h128l-106 -145h-131z" />
    <glyph glyph-name="ncaron" unicode="&#x148;" horiz-adv-x="532" 
d="M59 500h129v-51q43 65 136 65q71 0 116.5 -52t45.5 -142v-320h-129v310q0 41 -22 62.5t-57 21.5q-41 0 -65.5 -25.5t-24.5 -78.5v-290h-129v500zM201 563l-106 145h128l44 -65l43 65h128l-106 -145h-131z" />
    <glyph glyph-name="Eng" unicode="&#x14a;" horiz-adv-x="645" 
d="M65 700h105l273 -432v432h137v-700q0 -101 -60 -150.5t-172 -49.5v122q95 0 95 78v52l-240 381v-433h-138v700z" />
    <glyph glyph-name="eng" unicode="&#x14b;" horiz-adv-x="532" 
d="M59 500h129v-51q43 65 136 65q71 0 116.5 -52t45.5 -142v-330q0 -98 -46.5 -151.5t-139.5 -53.5q-16 0 -24 1v124q3 0 7.5 -0.5t6.5 -0.5q67 0 67 81v320q0 41 -22 62.5t-57 21.5q-41 0 -65.5 -25.5t-24.5 -78.5v-290h-129v500z" />
    <glyph glyph-name="Omacron" unicode="&#x14c;" horiz-adv-x="792" 
d="M251 772v105h290v-105h-290zM396 -14q-152 0 -257.5 105.5t-105.5 258.5t105.5 258.5t257.5 105.5t258 -105.5t106 -258.5t-106 -258.5t-258 -105.5zM396 121q96 0 161 64.5t65 164.5t-65 165t-161 65t-161 -65t-65 -165t65 -164.5t161 -64.5z" />
    <glyph glyph-name="omacron" unicode="&#x14d;" horiz-adv-x="594" 
d="M152 572v105h290v-105h-290zM297 -14q-111 0 -187.5 76.5t-76.5 187.5t76.5 187.5t187.5 76.5t188 -76.5t77 -187.5t-77 -187.5t-188 -76.5zM297 112q58 0 97 39t39 99t-39 99t-97 39t-96.5 -39t-38.5 -99t38.5 -99t96.5 -39z" />
    <glyph glyph-name="Ohungarumlaut" unicode="&#x150;" horiz-adv-x="792" 
d="M396 -14q-152 0 -257.5 105.5t-105.5 258.5t105.5 258.5t257.5 105.5t258 -105.5t106 -258.5t-106 -258.5t-258 -105.5zM170 350q0 -100 65 -164.5t161 -64.5t161 64.5t65 164.5t-65 165t-161 65t-161 -65t-65 -165zM404 763l88 138h134l-94 -138h-128zM359 763h-128
l78 138h134z" />
    <glyph glyph-name="ohungarumlaut" unicode="&#x151;" horiz-adv-x="594" 
d="M297 -14q-111 0 -187.5 76.5t-76.5 187.5t76.5 187.5t187.5 76.5t188 -76.5t77 -187.5t-77 -187.5t-188 -76.5zM162 250q0 -60 38.5 -99t96.5 -39t97 39t39 99t-39 99t-97 39t-96.5 -39t-38.5 -99zM305 563l88 138h134l-94 -138h-128zM260 563h-128l78 138h134z" />
    <glyph glyph-name="OE" unicode="&#x152;" horiz-adv-x="916" 
d="M33 350q0 154 101 259t252 105q52 0 100 -14h392v-132h-255v-150h233v-129h-233v-157h260v-132h-397q-48 -14 -100 -14q-151 0 -252 105t-101 259zM386 580q-95 0 -155.5 -64.5t-60.5 -165.5t60.5 -165t155.5 -64q59 0 100 15v429q-45 15 -100 15z" />
    <glyph glyph-name="oe" unicode="&#x153;" horiz-adv-x="976" 
d="M567 197q12 -51 48.5 -77.5t86.5 -26.5q34 0 62 14t41 36l127 1q-23 -75 -83 -116.5t-145 -41.5q-145 0 -209 110q-31 -51 -83.5 -80.5t-118.5 -29.5q-111 0 -185.5 76t-74.5 188t74.5 188t185.5 76q134 0 203 -111q64 111 205 111q109 0 177.5 -76t68.5 -188
q0 -32 -5 -53h-375zM566 298h252q-11 51 -44 75.5t-77 24.5q-51 0 -85 -26t-46 -74zM297 112q58 0 97 39t39 99t-39 99t-97 39q-59 0 -97 -38.5t-38 -99.5t38 -99.5t97 -38.5z" />
    <glyph glyph-name="Racute" unicode="&#x154;" horiz-adv-x="630" 
d="M203 0h-138v700h265q97 0 165 -68t68 -164q0 -64 -36 -119t-95 -83l216 -266h-162l-198 243h-85v-243zM330 571h-127v-207h127q39 0 67 30.5t28 73.5t-28 73t-67 30zM200 763l80 137h155l-111 -137h-124z" />
    <glyph glyph-name="racute" unicode="&#x155;" horiz-adv-x="337" 
d="M188 0h-129v500h129v-75q36 85 137 85v-144q-7 1 -20 1q-50 0 -83.5 -29.5t-33.5 -90.5v-247zM237 563h-124l80 137h155z" />
    <glyph glyph-name="uni0156" unicode="&#x156;" horiz-adv-x="630" 
d="M203 0h-138v700h265q97 0 165 -68t68 -164q0 -64 -36 -119t-95 -83l216 -266h-162l-198 243h-85v-243zM203 571v-207h127q39 0 67 30.5t28 73.5t-28 73t-67 30h-127zM286 -263l10 200h122l-30 -200h-102z" />
    <glyph glyph-name="uni0157" unicode="&#x157;" horiz-adv-x="337" 
d="M188 0h-129v500h129v-75q36 85 137 85v-144q-7 1 -20 1q-50 0 -83.5 -29.5t-33.5 -90.5v-247zM56 -263l10 200h122l-30 -200h-102z" />
    <glyph glyph-name="Rcaron" unicode="&#x158;" horiz-adv-x="630" 
d="M65 0v700h265q97 0 165 -68t68 -164q0 -64 -36 -119t-95 -83l216 -266h-162l-198 243h-85v-243h-138zM203 571v-207h127q39 0 67 30.5t28 73.5t-28 73t-67 30h-127zM105 900h128l44 -65l43 65h128l-106 -145h-131z" />
    <glyph glyph-name="rcaron" unicode="&#x159;" horiz-adv-x="337" 
d="M188 0h-129v500h129v-75q36 85 137 85v-144q-7 1 -20 1q-50 0 -83.5 -29.5t-33.5 -90.5v-247zM124 555l-106 145h128l44 -65l43 65h128l-106 -145h-131z" />
    <glyph glyph-name="Sacute" unicode="&#x15a;" horiz-adv-x="546" 
d="M191 771h124l111 137h-155zM281 -14q-111 0 -183.5 58.5t-72.5 171.5h138q0 -95 118 -95q51 0 77 19.5t26 50.5q0 34 -30.5 54t-92.5 41q-26 10 -31 11.5t-30 11t-32 14t-28 15t-28.5 18.5t-23 21t-21.5 26t-14.5 30t-11.5 36t-3 41q0 96 67 150t160 54q99 0 167.5 -58
t68.5 -168h-137q0 92 -99 92q-42 0 -66 -19.5t-24 -50.5q0 -35 28 -56t85 -42q102 -36 137 -57q96 -58 96 -164q0 -97 -69 -151t-171 -54z" />
    <glyph glyph-name="sacute" unicode="&#x15b;" horiz-adv-x="480" 
d="M393 708l-111 -137h-124l80 137h155zM173 355q0 -23 27.5 -36t67.5 -20.5t79.5 -20.5t67 -46t27.5 -87q0 -76 -57.5 -117.5t-144.5 -41.5q-88 0 -145 44.5t-57 128.5h126q0 -59 76 -59q73 0 73 45q0 20 -20 32.5t-50 17.5t-64.5 15.5t-64.5 24t-50 44.5t-20 76
q0 75 56.5 117t139.5 42q81 0 136.5 -45t55.5 -128h-126q0 28 -18.5 43.5t-47.5 15.5q-67 0 -67 -45z" />
    <glyph glyph-name="Scedilla" unicode="&#x15e;" horiz-adv-x="546" 
d="M521 191q0 -82 -51 -134t-133 -66v-37q29 -7 49.5 -26.5t20.5 -51.5q0 -93 -173 -93q-30 0 -47 1v91q14 -1 39 -1q69 0 69 21q0 20 -63 25v70q-92 12 -149.5 69t-57.5 157h138q0 -95 118 -95q51 0 77 19.5t26 50.5q0 34 -30.5 54t-92.5 41q-26 10 -31 11.5t-30 11t-32 14
t-28 15t-28.5 18.5t-23 21t-21.5 26t-14.5 30t-11.5 36t-3 41q0 96 67 150t160 54q99 0 167.5 -58t68.5 -168h-137q0 92 -99 92q-42 0 -66 -19.5t-24 -50.5q0 -35 28 -56t85 -42q102 -36 137 -57q96 -58 96 -164z" />
    <glyph glyph-name="scedilla" unicode="&#x15f;" horiz-adv-x="480" 
d="M442 145q0 -61 -38 -100t-101 -52v-39q29 -7 49.5 -26.5t20.5 -51.5q0 -93 -173 -93q-30 0 -47 1v91q14 -1 39 -1q69 0 69 21q0 20 -63 25v69q-72 10 -116 53.5t-44 116.5h126q0 -59 76 -59q73 0 73 45q0 20 -20 32.5t-50 17.5t-64.5 15.5t-64.5 24t-50 44.5t-20 76
q0 75 56.5 117t139.5 42q81 0 136.5 -45t55.5 -128h-126q0 28 -18.5 43.5t-47.5 15.5q-67 0 -67 -45q0 -23 27.5 -36t67.5 -20.5t79.5 -20.5t67 -46t27.5 -87z" />
    <glyph glyph-name="Scaron" unicode="&#x160;" horiz-adv-x="546" 
d="M25 216h138q0 -95 118 -95q51 0 77 19.5t26 50.5q0 34 -30.5 54t-92.5 41q-26 10 -31 11.5t-30 11t-32 14t-28 15t-28.5 18.5t-23 21t-21.5 26t-14.5 30t-11.5 36t-3 41q0 96 67 150t160 54q99 0 167.5 -58t68.5 -168h-137q0 92 -99 92q-42 0 -66 -19.5t-24 -50.5
q0 -35 28 -56t85 -42q102 -36 137 -57q96 -58 96 -164q0 -97 -69 -151t-171 -54q-111 0 -183.5 58.5t-72.5 171.5zM96 908h128l44 -65l43 65h128l-106 -145h-131z" />
    <glyph glyph-name="scaron" unicode="&#x161;" horiz-adv-x="480" 
d="M38 159h126q0 -59 76 -59q73 0 73 45q0 20 -20 32.5t-50 17.5t-64.5 15.5t-64.5 24t-50 44.5t-20 76q0 75 56.5 117t139.5 42q81 0 136.5 -45t55.5 -128h-126q0 28 -18.5 43.5t-47.5 15.5q-67 0 -67 -45q0 -23 27.5 -36t67.5 -20.5t79.5 -20.5t67 -46t27.5 -87
q0 -76 -57.5 -117.5t-144.5 -41.5q-88 0 -145 44.5t-57 128.5zM63 708h128l44 -65l43 65h128l-106 -145h-131z" />
    <glyph glyph-name="uni0162" unicode="&#x162;" horiz-adv-x="500" 
d="M181 568h-168v132h475v-132h-169v-568h-138v568zM186 -263l10 200h122l-30 -200h-102z" />
    <glyph glyph-name="uni0163" unicode="&#x163;" horiz-adv-x="334" 
d="M103 376h-87v124h87v160h129v-160h86v-124h-86v-376h-129v376zM100 -263l10 200h122l-30 -200h-102z" />
    <glyph glyph-name="Tcaron" unicode="&#x164;" horiz-adv-x="500" 
d="M13 700h475v-132h-169v-568h-138v568h-168v132zM181 755l-106 145h128l44 -65l43 65h128l-106 -145h-131z" />
    <glyph glyph-name="tcaron" unicode="&#x165;" horiz-adv-x="393" 
d="M16 500h87v160h129v-160h86v-124h-86v-376h-129v376h-87v124zM378 553h-102l10 182h122z" />
    <glyph glyph-name="Tbar" unicode="&#x166;" horiz-adv-x="500" 
d="M13 700h475v-132h-169v-163h119v-124h-119v-281h-138v281h-118v124h118v163h-168v132z" />
    <glyph glyph-name="tbar" unicode="&#x167;" horiz-adv-x="334" 
d="M16 500h87v160h129v-160h86v-124h-86v-58h64v-103h-64v-215h-129v215h-72v103h72v58h-87v124z" />
    <glyph glyph-name="Umacron" unicode="&#x16a;" horiz-adv-x="620" 
d="M55 700h138v-475q0 -104 117 -104q118 0 118 104v475h137v-486q0 -107 -72.5 -167.5t-182.5 -60.5t-182.5 60.5t-72.5 167.5v486zM165 764v105h290v-105h-290z" />
    <glyph glyph-name="umacron" unicode="&#x16b;" horiz-adv-x="533" 
d="M46 500h129v-310q0 -41 22 -62.5t57 -21.5q41 0 66 25.5t25 79.5v289h129v-500h-129v52q-43 -66 -136 -66q-72 0 -117.5 52.5t-45.5 142.5v319zM412 564h-290v105h290v-105z" />
    <glyph glyph-name="Uring" unicode="&#x16e;" horiz-adv-x="620" 
d="M310 -14q-110 0 -182.5 60.5t-72.5 167.5v486h138v-475q0 -104 117 -104q118 0 118 104v475h137v-486q0 -107 -72.5 -167.5t-182.5 -60.5zM310 739q-55 0 -90.5 34t-35.5 85t35.5 84.5t90.5 33.5q56 0 91 -33.5t35 -84.5q0 -52 -35 -85.5t-91 -33.5zM310 895
q-18 0 -28.5 -10.5t-10.5 -26.5q0 -17 10.5 -27.5t28.5 -10.5q40 0 40 38q0 37 -40 37z" />
    <glyph glyph-name="uring" unicode="&#x16f;" horiz-adv-x="533" 
d="M46 500h129v-310q0 -41 22 -62.5t57 -21.5q41 0 66 25.5t25 79.5v289h129v-500h-129v52q-43 -66 -136 -66q-72 0 -117.5 52.5t-45.5 142.5v319zM267 539q-55 0 -90.5 34t-35.5 85t35.5 84.5t90.5 33.5q56 0 91 -33.5t35 -84.5q0 -52 -35 -85.5t-91 -33.5zM267 695
q-18 0 -28.5 -10.5t-10.5 -26.5q0 -17 10.5 -27.5t28.5 -10.5q40 0 40 38q0 37 -40 37z" />
    <glyph glyph-name="Uhungarumlaut" unicode="&#x170;" horiz-adv-x="620" 
d="M55 214v486h138v-475q0 -104 117 -104q118 0 118 104v475h137v-486q0 -107 -72.5 -167.5t-182.5 -60.5t-182.5 60.5t-72.5 167.5zM318 755l88 138h134l-94 -138h-128zM273 755h-128l78 138h134z" />
    <glyph glyph-name="uhungarumlaut" unicode="&#x171;" horiz-adv-x="533" 
d="M46 181v319h129v-310q0 -41 22 -62.5t57 -21.5q41 0 66 25.5t25 79.5v289h129v-500h-129v52q-43 -66 -136 -66q-72 0 -117.5 52.5t-45.5 142.5zM403 555h-128l88 138h134zM230 555h-128l78 138h134z" />
    <glyph glyph-name="Uogonek" unicode="&#x172;" horiz-adv-x="620" 
d="M55 700h138v-475q0 -104 117 -104q118 0 118 104v475h137v-486q0 -106 -72 -167q-56 -51 -78 -81.5t-22 -60.5q-2 -27 25 -27q13 0 28 5v-81q-40 -16 -81 -16q-43 0 -69.5 22.5t-26.5 65.5q0 51 54 113q-2 0 -6.5 -0.5t-6.5 -0.5q-110 0 -182.5 60.5t-72.5 167.5v486z
" />
    <glyph glyph-name="uogonek" unicode="&#x173;" horiz-adv-x="532" 
d="M209 -14q-72 0 -117.5 52.5t-45.5 142.5v319h129v-310q0 -41 22 -62.5t57 -21.5q41 0 66 25.5t25 79.5v289h129v-500q-53 -55 -53 -95q-2 -27 25 -27q13 0 28 5v-81q-40 -16 -81 -16q-43 0 -69.5 22.5t-26.5 65.5q0 56 64 126h-16v52q-43 -66 -136 -66z" />
    <glyph glyph-name="Wcircumflex" unicode="&#x174;" horiz-adv-x="890" 
d="M3 700h143l139 -525l100 357l-48 168h128l140 -525l140 525h143l-200 -700h-152l-91 320l-91 -320h-152zM398 755h-128l106 145h131l106 -145h-128l-43 65z" />
    <glyph glyph-name="wcircumflex" unicode="&#x175;" horiz-adv-x="725" 
d="M174 0l-164 500h138l97 -342l65 204l-45 138h115l104 -329l94 329h137l-163 -500h-123l-66 201l-66 -201h-123zM316 555h-128l106 145h131l106 -145h-128l-43 65z" />
    <glyph glyph-name="Ycircumflex" unicode="&#x176;" horiz-adv-x="601" 
d="M232 311l-229 389h156l142 -256l142 256h156l-230 -389v-311h-137v311zM253 755h-128l106 145h131l106 -145h-128l-43 65z" />
    <glyph glyph-name="ycircumflex" unicode="&#x177;" horiz-adv-x="500" 
d="M194 7l-191 493h137l118 -315l102 315h138l-237 -700h-137zM203 555h-128l106 145h131l106 -145h-128l-43 65z" />
    <glyph glyph-name="Ydieresis" unicode="&#x178;" horiz-adv-x="601" 
d="M3 700h156l142 -256l142 256h156l-230 -389v-311h-137v311zM452 761h-118v118h118v-118zM149 879h118v-118h-118v118z" />
    <glyph glyph-name="Zacute" unicode="&#x179;" horiz-adv-x="535" 
d="M428 900l-111 -137h-124l80 137h155zM211 132h298v-132h-473v110l291 458h-284v132h460v-109z" />
    <glyph glyph-name="zacute" unicode="&#x17a;" horiz-adv-x="454" 
d="M386 700l-111 -137h-124l80 137h155zM206 121h222v-121h-395v86l211 293h-201v121h375v-86z" />
    <glyph glyph-name="Zdotaccent" unicode="&#x17b;" horiz-adv-x="535" 
d="M340 893v-135h-135v135h135zM211 132h298v-132h-473v110l291 458h-284v132h460v-109z" />
    <glyph glyph-name="zdotaccent" unicode="&#x17c;" horiz-adv-x="454" 
d="M298 693v-135h-135v135h135zM206 121h222v-121h-395v86l211 293h-201v121h375v-86z" />
    <glyph glyph-name="Zcaron" unicode="&#x17d;" horiz-adv-x="535" 
d="M36 0v110l291 458h-284v132h460v-109l-292 -459h298v-132h-473zM98 900h128l44 -65l43 65h128l-106 -145h-131z" />
    <glyph glyph-name="zcaron" unicode="&#x17e;" horiz-adv-x="454" 
d="M33 0v86l211 293h-201v121h375v-86l-212 -293h222v-121h-395zM56 700h128l44 -65l43 65h128l-106 -145h-131z" />
    <glyph glyph-name="florin" unicode="&#x192;" horiz-adv-x="441" 
d="M0 -201v128q16 -8 38 -8q27 0 46 16t24 48l52 307h-84v124h105l23 131q14 86 59.5 127.5t111.5 41.5q31 0 66 -9v-129q-18 9 -37 9q-59 0 -71 -65l-18 -106h91v-124h-112l-56 -331q-14 -86 -59.5 -127.5t-112.5 -41.5q-32 0 -66 9z" />
    <glyph glyph-name="uni0218" unicode="&#x218;" horiz-adv-x="546" 
d="M281 -14q-111 0 -183.5 58.5t-72.5 171.5h138q0 -95 118 -95q51 0 77 19.5t26 50.5q0 34 -30.5 54t-92.5 41q-26 10 -31 11.5t-30 11t-32 14t-28 15t-28.5 18.5t-23 21t-21.5 26t-14.5 30t-11.5 36t-3 41q0 96 67 150t160 54q99 0 167.5 -58t68.5 -168h-137q0 92 -99 92
q-42 0 -66 -19.5t-24 -50.5q0 -35 28 -56t85 -42q102 -36 137 -57q96 -58 96 -164q0 -97 -69 -151t-171 -54zM320 -263l30 200h-122l-10 -200h102z" />
    <glyph glyph-name="uni0219" unicode="&#x219;" horiz-adv-x="480" 
d="M173 355q0 -23 27.5 -36t67.5 -20.5t79.5 -20.5t67 -46t27.5 -87q0 -76 -57.5 -117.5t-144.5 -41.5q-88 0 -145 44.5t-57 128.5h126q0 -59 76 -59q73 0 73 45q0 20 -20 32.5t-50 17.5t-64.5 15.5t-64.5 24t-50 44.5t-20 76q0 75 56.5 117t139.5 42q81 0 136.5 -45
t55.5 -128h-126q0 28 -18.5 43.5t-47.5 15.5q-67 0 -67 -45zM185 -263l10 200h122l-30 -200h-102z" />
    <glyph glyph-name="uni021A" unicode="&#x21a;" horiz-adv-x="500" 
d="M181 568h-168v132h475v-132h-169v-568h-138v568zM186 -263l10 200h122l-30 -200h-102z" />
    <glyph glyph-name="uni021B" unicode="&#x21b;" horiz-adv-x="334" 
d="M103 376h-87v124h87v160h129v-160h86v-124h-86v-376h-129v376zM100 -263l10 200h122l-30 -200h-102z" />
    <glyph glyph-name="circumflex" unicode="&#x2c6;" horiz-adv-x="383" 
d="M20 555l106 145h131l106 -145h-128l-44 65l-43 -65h-128z" />
    <glyph glyph-name="caron" unicode="&#x2c7;" horiz-adv-x="383" 
d="M20 700h128l43 -65l44 65h128l-106 -145h-131z" />
    <glyph glyph-name="breve" unicode="&#x2d8;" horiz-adv-x="373" 
d="M186 547q-79 0 -122.5 38t-43.5 107h115q0 -52 51 -52q52 0 52 52h115q0 -69 -43.5 -107t-123.5 -38z" />
    <glyph glyph-name="dotaccent" unicode="&#x2d9;" horiz-adv-x="175" 
d="M20 558v135h135v-135h-135z" />
    <glyph glyph-name="ring" unicode="&#x2da;" horiz-adv-x="293" 
d="M146 539q-55 0 -90.5 34t-35.5 85t35.5 84.5t90.5 33.5q56 0 91.5 -33.5t35.5 -84.5q0 -52 -35.5 -85.5t-91.5 -33.5zM146 620q40 0 40 38q0 37 -40 37q-18 0 -28.5 -10.5t-10.5 -26.5q0 -17 10.5 -27.5t28.5 -10.5z" />
    <glyph glyph-name="ogonek" unicode="&#x2db;" horiz-adv-x="216" 
d="M116 -214q-43 0 -69.5 22.5t-26.5 65.5q0 57 66 126h110q-52 -55 -52 -95q-2 -27 25 -27q12 0 27 5v-81q-38 -16 -80 -16z" />
    <glyph glyph-name="tilde" unicode="&#x2dc;" horiz-adv-x="379" 
d="M20 560q0 76 27 112.5t71 36.5q40 0 84 -28q25 -17 37 -17q16 0 16 41h104q0 -76 -27 -112.5t-71 -36.5q-40 0 -84 28q-25 17 -36 17q-16 0 -16 -41h-105z" />
    <glyph glyph-name="hungarumlaut" unicode="&#x2dd;" horiz-adv-x="435" 
d="M193 555l88 138h134l-94 -138h-128zM148 555h-128l78 138h134z" />
    <glyph glyph-name="gravecomb" unicode="&#x300;" horiz-adv-x="0" 
d="M-100 700l80 -137h-124l-111 137h155z" />
    <glyph glyph-name="acutecomb" unicode="&#x301;" horiz-adv-x="0" 
d="M-131 563h-124l80 137h155z" />
    <glyph glyph-name="uni0302" unicode="&#x302;" horiz-adv-x="0" 
d="M-363 555l106 145h131l106 -145h-128l-44 65l-43 -65h-128z" />
    <glyph glyph-name="tildecomb" unicode="&#x303;" horiz-adv-x="0" 
d="M-351 560q0 76 27 112.5t71 36.5q40 0 84 -28q25 -17 36 -17q16 0 16 41h105q0 -76 -27 -112.5t-71 -36.5q-40 0 -84 28q-25 17 -37 17q-16 0 -16 -41h-104z" />
    <glyph glyph-name="uni0304" unicode="&#x304;" horiz-adv-x="0" 
d="M-310 564v105h290v-105h-290z" />
    <glyph glyph-name="uni0306" unicode="&#x306;" horiz-adv-x="0" 
d="M-187 547q-79 0 -122.5 38t-43.5 107h115q0 -52 51 -52q52 0 52 52h115q0 -69 -43.5 -107t-123.5 -38z" />
    <glyph glyph-name="uni0307" unicode="&#x307;" horiz-adv-x="0" 
d="M-157 558v135h135v-135h-135z" />
    <glyph glyph-name="uni0308" unicode="&#x308;" horiz-adv-x="0" 
d="M-138 561v118h118v-118h-118zM-323 679h118v-118h-118v118z" />
    <glyph glyph-name="uni030A" unicode="&#x30a;" horiz-adv-x="0" 
d="M-150 539q-55 0 -90.5 34t-35.5 85t35.5 84.5t90.5 33.5q56 0 91 -33.5t35 -84.5q0 -52 -35 -85.5t-91 -33.5zM-150 620q40 0 40 38q0 37 -40 37q-18 0 -28.5 -10.5t-10.5 -26.5q0 -17 10.5 -27.5t28.5 -10.5z" />
    <glyph glyph-name="uni030B" unicode="&#x30b;" horiz-adv-x="0" 
d="M-242 555l88 138h134l-94 -138h-128zM-287 555h-128l78 138h134z" />
    <glyph glyph-name="uni030C" unicode="&#x30c;" horiz-adv-x="0" 
d="M-363 700h128l43 -65l44 65h128l-106 -145h-131z" />
    <glyph glyph-name="uni0312" unicode="&#x312;" horiz-adv-x="0" 
d="M-152 775l30 200h102l-10 -200h-122z" />
    <glyph glyph-name="uni0326" unicode="&#x326;" horiz-adv-x="0" 
d="M-20 -63l-30 -200h-102l10 200h122z" />
    <glyph glyph-name="uni0327" unicode="&#x327;" horiz-adv-x="0" 
d="M-90 -46q29 -7 49.5 -26.5t20.5 -51.5q0 -93 -173 -93q-30 0 -47 1v91q14 -1 39 -1q69 0 69 21q0 20 -63 25v80h105v-46z" />
    <glyph glyph-name="uni0328" unicode="&#x328;" horiz-adv-x="0" 
d="M-108 -214q-43 0 -69.5 22.5t-26.5 65.5q0 57 66 126h110q-52 -55 -52 -95q-2 -27 25 -27q12 0 27 5v-81q-38 -16 -80 -16z" />
    <glyph glyph-name="uni0394" unicode="&#x394;" horiz-adv-x="653" 
d="M412 700l238 -700h-647l238 700h171zM193 129h266l-133 418z" />
    <glyph glyph-name="uni03A9" unicode="&#x3a9;" horiz-adv-x="777" 
d="M25 365q0 147 106 248t258 101q151 0 257 -101t106 -248q0 -141 -107 -233h94v-132h-277v132q69 22 111 80.5t42 137.5q0 100 -65 165t-161 65t-161 -65t-65 -165q0 -79 41.5 -137.5t110.5 -80.5v-132h-276v132h93q-107 92 -107 233z" />
    <glyph glyph-name="pi" unicode="&#x3c0;" horiz-adv-x="635" 
d="M23 500h590v-121h-80v-379h-129v379h-169v-379h-129v379h-83v121z" />
    <glyph glyph-name="uni0401" unicode="&#x401;" horiz-adv-x="513" 
d="M65 0v700h410v-132h-272v-150h247v-129h-247v-157h277v-132h-415zM304 879h118v-118h-118v118zM119 879h118v-118h-118v118z" />
    <glyph glyph-name="uni0402" unicode="&#x402;" horiz-adv-x="663" 
d="M13 700h502v-132h-199v-131q62 22 119 22q86 0 137 -50.5t51 -145.5v-69q0 -205 -191 -205q-17 0 -26 1v128q46 0 63 15.5t17 60.5v56q0 85 -81 85q-39 0 -89 -20v-315h-137v568h-166v132z" />
    <glyph glyph-name="uni0403" unicode="&#x403;" horiz-adv-x="475" 
d="M424 899l-111 -137h-124l80 137h155zM463 700v-132h-260v-568h-138v700h398z" />
    <glyph glyph-name="uni0404" unicode="&#x404;" horiz-adv-x="749" 
d="M390 121q74 0 127 35t69 94h144q-21 -116 -115.5 -190t-224.5 -74q-156 0 -256.5 104.5t-100.5 259.5q0 156 100 260t257 104q129 0 223.5 -73.5t116.5 -190.5h-144q-17 60 -69.5 95t-126.5 35q-84 0 -139.5 -44.5t-73.5 -120.5h312v-129h-312q18 -76 74 -120.5
t139 -44.5z" />
    <glyph glyph-name="uni0405" unicode="&#x405;" horiz-adv-x="546" 
d="M281 -14q-111 0 -183.5 58.5t-72.5 171.5h138q0 -95 118 -95q51 0 77 19.5t26 50.5q0 34 -30.5 54t-92.5 41q-26 10 -31 11.5t-30 11t-32 14t-28 15t-28.5 18.5t-23 21t-21.5 26t-14.5 30t-11.5 36t-3 41q0 96 67 150t160 54q99 0 167.5 -58t68.5 -168h-137q0 92 -99 92
q-42 0 -66 -19.5t-24 -50.5q0 -35 28 -56t85 -42q102 -36 137 -57q96 -58 96 -164q0 -97 -69 -151t-171 -54z" />
    <glyph glyph-name="uni0406" unicode="&#x406;" 
d="M65 700h138v-700h-138v700z" />
    <glyph glyph-name="uni0407" unicode="&#x407;" 
d="M203 0h-138v700h138v-700zM285 761h-118v118h118v-118zM-18 879h118v-118h-118v118z" />
    <glyph glyph-name="uni0408" unicode="&#x408;" horiz-adv-x="538" 
d="M248 -14q-99 0 -167 57t-68 164v18h137v-18q0 -86 98 -86q46 0 71.5 22t25.5 64v493h138v-493q0 -107 -68.5 -164t-166.5 -57z" />
    <glyph glyph-name="uni0409" unicode="&#x409;" horiz-adv-x="921" 
d="M44 -4q-11 0 -33 2v128q8 -1 23 -1q50 0 75.5 36t25.5 125v414h421v-262h104q101 0 168.5 -62t67.5 -157q0 -96 -67.5 -157.5t-168.5 -61.5h-241v568h-147v-278q0 -83 -18.5 -142.5t-51.5 -91.5t-71.5 -46t-86.5 -14zM556 129h104q43 0 71 24t28 66t-28 66t-71 24h-104
v-180z" />
    <glyph glyph-name="uni040A" unicode="&#x40a;" horiz-adv-x="918" 
d="M65 700h138v-262h212v262h138v-262h103q101 0 169 -62t68 -157q0 -96 -68 -157.5t-169 -61.5h-241v309h-212v-309h-138v700zM553 309v-180h103q43 0 71 24t28 66t-28 66t-71 24h-103z" />
    <glyph glyph-name="uni040B" unicode="&#x40b;" horiz-adv-x="668" 
d="M13 700h502v-132h-199v-131q62 22 119 22q86 0 137 -50.5t51 -145.5v-263h-137v250q0 85 -81 85q-39 0 -89 -20v-315h-137v568h-166v132z" />
    <glyph glyph-name="uni040C" unicode="&#x40c;" horiz-adv-x="615" 
d="M203 0h-138v700h138v-309l240 309h159l-259 -341l269 -359h-159l-250 329v-329zM229 762l80 137h155l-111 -137h-124z" />
    <glyph glyph-name="uni040E" unicode="&#x40e;" horiz-adv-x="600" 
d="M251 211l-228 489h138l153 -338l138 338h138l-210 -507q-80 -194 -257 -194q-3 0 -9 0.5t-10 0.5v129q8 -1 23 -1q85 0 124 83zM149 875h290v-112h-290v112z" />
    <glyph glyph-name="uni040F" unicode="&#x40f;" horiz-adv-x="638" 
d="M65 700h138v-568h232v568h138v-700h-185v-144h-138v144h-185v700z" />
    <glyph glyph-name="uni0410" unicode="&#x410;" horiz-adv-x="653" 
d="M152 0h-149l238 700h171l238 -700h-150l-40 126h-268zM233 255h186l-93 292z" />
    <glyph glyph-name="uni0411" unicode="&#x411;" horiz-adv-x="585" 
d="M333 0h-268v700h440v-132h-302v-133h130q102 0 167 -60.5t65 -156.5q0 -97 -65 -157.5t-167 -60.5zM333 306h-130v-177h130q41 0 68 23.5t27 65.5t-27 65t-68 23z" />
    <glyph glyph-name="uni0412" unicode="&#x412;" horiz-adv-x="685" 
d="M437 0h-372v700h291q90 0 148.5 -54t58.5 -135q0 -44 -26 -85q56 -29 88.5 -82.5t32.5 -120.5q0 -95 -63 -159t-158 -64zM203 331v-202h216q49 0 75 28.5t26 72.5q0 45 -26 73t-74 28h-217zM356 571h-153v-118h201q21 21 21 51t-18.5 48.5t-50.5 18.5z" />
    <glyph glyph-name="uni0413" unicode="&#x413;" horiz-adv-x="475" 
d="M463 700v-132h-260v-568h-138v700h398z" />
    <glyph glyph-name="uni0414" unicode="&#x414;" horiz-adv-x="683" 
d="M15 129h66q60 79 60 240v331h439v-571h75v-273h-137v144h-365v-144h-138v273zM229 129h214v442h-164v-204q0 -155 -50 -238z" />
    <glyph glyph-name="uni0415" unicode="&#x415;" horiz-adv-x="513" 
d="M480 0h-415v700h410v-132h-272v-150h247v-129h-247v-157h277v-132z" />
    <glyph glyph-name="uni0416" unicode="&#x416;" horiz-adv-x="904" 
d="M166 0h-153l243 356l-233 344h153l207 -314v314h138v-314l207 314h154l-234 -344l244 -356h-154l-217 319v-319h-138v319z" />
    <glyph glyph-name="uni0417" unicode="&#x417;" horiz-adv-x="545" 
d="M435 411q98 -65 98 -190q0 -104 -71 -169.5t-189 -65.5t-189 68.5t-71 174.5h137q0 -48 32 -80.5t91 -32.5t90.5 29t31.5 76t-31 76.5t-88 29.5h-53v128h53q11 0 31 -2q36 24 36 64q0 30 -20.5 49t-58.5 19t-58.5 -19t-20.5 -49h-138q0 87 60 142t157 55q96 0 156 -53.5
t60 -135.5q0 -64 -45 -114z" />
    <glyph glyph-name="uni0418" unicode="&#x418;" horiz-adv-x="645" 
d="M65 700h138v-432l272 432h105v-700h-137v433l-273 -433h-105v700z" />
    <glyph glyph-name="uni0419" unicode="&#x419;" horiz-adv-x="645" 
d="M170 0h-105v700h138v-432l272 432h105v-700h-137v433zM478 764h-290v112h290v-112z" />
    <glyph glyph-name="uni041A" unicode="&#x41a;" horiz-adv-x="615" 
d="M203 0h-138v700h138v-309l240 309h159l-259 -341l269 -359h-159l-250 329v-329z" />
    <glyph glyph-name="uni041B" unicode="&#x41b;" horiz-adv-x="641" 
d="M11 -2v128q8 -1 23 -1q50 0 75.5 36t25.5 125v414h441v-700h-137v568h-167v-278q0 -83 -18.5 -142.5t-51.5 -91.5t-71.5 -46t-86.5 -14q-11 0 -33 2z" />
    <glyph glyph-name="uni041C" unicode="&#x41c;" horiz-adv-x="815" 
d="M203 0h-138v700h157l186 -428l185 428h157v-700h-137v470l-155 -358h-100l-155 358v-470z" />
    <glyph glyph-name="uni041D" unicode="&#x41d;" horiz-adv-x="638" 
d="M203 0h-138v700h138v-274h232v274h138v-700h-138v294h-232v-294z" />
    <glyph glyph-name="uni041E" unicode="&#x41e;" horiz-adv-x="792" 
d="M396 -14q-152 0 -257.5 105.5t-105.5 258.5t105.5 258.5t257.5 105.5t258 -105.5t106 -258.5t-106 -258.5t-258 -105.5zM396 121q96 0 161 64.5t65 164.5t-65 165t-161 65t-161 -65t-65 -165t65 -164.5t161 -64.5z" />
    <glyph glyph-name="uni041F" unicode="&#x41f;" horiz-adv-x="638" 
d="M203 0h-138v700h508v-700h-138v568h-232v-568z" />
    <glyph glyph-name="uni0420" unicode="&#x420;" horiz-adv-x="588" 
d="M203 0h-138v700h261q99 0 168 -68t69 -164q0 -97 -69 -165t-168 -68h-123v-235zM326 571h-123v-207h123q42 0 70.5 30t28.5 74t-28.5 73.5t-70.5 29.5z" />
    <glyph glyph-name="uni0421" unicode="&#x421;" horiz-adv-x="752" 
d="M397 -14q-158 0 -261 105t-103 259q0 155 103 259.5t261 104.5q125 0 220 -74t120 -190h-145q-19 59 -72.5 94.5t-122.5 35.5q-102 0 -164.5 -64t-62.5 -166q0 -101 62.5 -165t164.5 -64q69 0 122.5 35t72.5 94h145q-25 -116 -120 -190t-220 -74z" />
    <glyph glyph-name="uni0422" unicode="&#x422;" horiz-adv-x="500" 
d="M181 568h-168v132h475v-132h-169v-568h-138v568z" />
    <glyph glyph-name="uni0423" unicode="&#x423;" horiz-adv-x="600" 
d="M251 211l-228 489h138l153 -338l138 338h138l-210 -507q-80 -194 -257 -194q-3 0 -9 0.5t-10 0.5v129q8 -1 23 -1q85 0 124 83z" />
    <glyph glyph-name="uni0424" unicode="&#x424;" horiz-adv-x="819" 
d="M23 350q0 120 86.5 195t232.5 89v81h135v-81q146 -14 233 -89t87 -195t-87 -195t-233 -89v-81h-135v81q-146 14 -232.5 89t-86.5 195zM477 508v-316q182 20 182 158t-182 158zM160 350q0 -138 182 -158v316q-182 -20 -182 -158z" />
    <glyph glyph-name="uni0425" unicode="&#x425;" horiz-adv-x="600" 
d="M13 0l209 360l-198 340h156l120 -207l121 207h155l-198 -340l210 -360h-156l-132 226l-132 -226h-155z" />
    <glyph glyph-name="uni0426" unicode="&#x426;" horiz-adv-x="675" 
d="M65 700h138v-568h232v568h138v-568h75v-276h-138v144h-445v700z" />
    <glyph glyph-name="uni0427" unicode="&#x427;" horiz-adv-x="616" 
d="M50 700h138v-232q0 -50 29.5 -78.5t78.5 -28.5q64 0 118 22v317h137v-700h-137v250q-58 -21 -121 -21q-106 0 -174.5 59.5t-68.5 161.5v250z" />
    <glyph glyph-name="uni0428" unicode="&#x428;" horiz-adv-x="903" 
d="M838 0h-773v700h138v-568h180v568h137v-568h180v568h138v-700z" />
    <glyph glyph-name="uni0429" unicode="&#x429;" horiz-adv-x="940" 
d="M775 0h-710v700h138v-568h180v568h137v-568h180v568h138v-568h75v-276h-138v144z" />
    <glyph glyph-name="uni042A" unicode="&#x42a;" horiz-adv-x="690" 
d="M168 568h-168v132h305v-235h124q99 0 167.5 -68t68.5 -164q0 -97 -68.5 -165t-167.5 -68h-261v568zM305 336v-207h124q42 0 70.5 30t28.5 74t-28.5 73.5t-70.5 29.5h-124z" />
    <glyph glyph-name="uni042B" unicode="&#x42b;" horiz-adv-x="829" 
d="M65 0v700h138v-235h123q99 0 168 -68t69 -164q0 -97 -69 -165t-168 -68h-261zM626 700h138v-700h-138v700zM203 129h123q42 0 70.5 30t28.5 74t-28.5 73.5t-70.5 29.5h-123v-207z" />
    <glyph glyph-name="uni042C" unicode="&#x42c;" horiz-adv-x="588" 
d="M326 0h-261v700h138v-235h123q99 0 168 -68t69 -164q0 -97 -69 -165t-168 -68zM326 336h-123v-207h123q42 0 70.5 30t28.5 74t-28.5 73.5t-70.5 29.5z" />
    <glyph glyph-name="uni042D" unicode="&#x42d;" horiz-adv-x="749" 
d="M359 714q157 0 257.5 -104.5t100.5 -259.5t-101 -259.5t-257 -104.5q-130 0 -224.5 74t-115.5 190h144q16 -59 69 -94t127 -35q84 0 139.5 44.5t73.5 120.5h-312v129h312q-18 76 -74 120.5t-139 44.5q-74 0 -126.5 -35t-69.5 -95h-144q22 117 116.5 190.5t223.5 73.5z
" />
    <glyph glyph-name="uni042E" unicode="&#x42e;" horiz-adv-x="1055" 
d="M65 700h138v-274h104q26 126 123.5 207t228.5 81q152 0 258 -105.5t106 -258.5q0 -152 -106 -258t-258 -106q-137 0 -236.5 87.5t-118.5 220.5h-101v-294h-138v700zM433 350q0 -100 65 -164.5t161 -64.5t161 64.5t65 164.5t-65 165t-161 65q-97 0 -161.5 -64t-64.5 -166z
" />
    <glyph glyph-name="uni042F" unicode="&#x42f;" horiz-adv-x="635" 
d="M5 0l217 258q-67 26 -108 83.5t-41 126.5q0 96 68.5 164t167.5 68h261v-700h-137v243h-65l-198 -243h-165zM210 468q0 -43 30.5 -73.5t72.5 -30.5h120v207h-120q-42 0 -72.5 -30t-30.5 -73z" />
    <glyph glyph-name="uni0430" unicode="&#x430;" horiz-adv-x="509" 
d="M201 -14q-71 0 -119.5 41.5t-48.5 116.5t48.5 116t119.5 41q85 0 136 -44v53q0 84 -78 84q-35 0 -56 -17.5t-21 -46.5h-126q0 85 58.5 134.5t144.5 49.5q88 0 146 -51.5t58 -144.5v-318h-126v43q-47 -57 -136 -57zM162 144q0 -28 21 -45t62 -17q42 0 67 17.5t25 44.5
q0 29 -24.5 45.5t-67.5 16.5q-41 0 -62 -17t-21 -45z" />
    <glyph glyph-name="uni0431" unicode="&#x431;" horiz-adv-x="563" 
d="M292 -14q-114 0 -186.5 72t-72.5 183q0 58 17 107.5t44.5 85t61 65.5t67 54.5t61 47t44.5 48t17 51.5h137q0 -52 -22 -91t-56.5 -64t-71.5 -45t-74 -45.5t-55 -52.5q53 40 126 40q82 0 149 -62t67 -159q0 -102 -71 -168.5t-182 -66.5zM291 104q55 0 90 33.5t35 83.5
q0 51 -36.5 84.5t-91.5 33.5q-49 0 -86.5 -31t-37.5 -83q0 -53 36.5 -87t90.5 -34z" />
    <glyph glyph-name="uni0432" unicode="&#x432;" horiz-adv-x="525" 
d="M59 0v500h230q72 0 116 -39t44 -96q0 -35 -24 -69q41 -19 63.5 -55t22.5 -82q0 -70 -46.5 -114.5t-133.5 -44.5h-272zM180 217v-110h140q65 0 65 56q0 54 -65 54h-140zM270 396h-90v-81h139q8 14 8 30q0 25 -16 38t-41 13z" />
    <glyph glyph-name="uni0433" unicode="&#x433;" horiz-adv-x="383" 
d="M381 500v-124h-193v-376h-129v500h322z" />
    <glyph glyph-name="uni0434" unicode="&#x434;" horiz-adv-x="578" 
d="M13 117h58q46 63 46 181v202h372v-383h66v-261h-126v144h-290v-144h-126v261zM210 117h153v267h-120v-86q0 -109 -33 -181z" />
    <glyph glyph-name="uni0435" unicode="&#x435;" horiz-adv-x="576" 
d="M167 197q12 -51 48.5 -77.5t86.5 -26.5q34 0 62 14t41 36l127 1q-23 -75 -84.5 -116.5t-146.5 -41.5q-120 0 -194 75t-74 189q0 113 74 188.5t191 75.5q109 0 179 -76t70 -188q0 -32 -5 -53h-375zM166 298h252q-11 51 -44 75.5t-77 24.5q-51 0 -85 -26t-46 -74z" />
    <glyph glyph-name="uni0436" unicode="&#x436;" horiz-adv-x="746" 
d="M734 0h-145l-153 224v-224h-126v224l-153 -224h-144l180 253l-170 247h144l143 -217v217h126v-217l143 217h145l-171 -247z" />
    <glyph glyph-name="uni0437" unicode="&#x437;" horiz-adv-x="435" 
d="M352 285q67 -43 67 -129q0 -72 -53 -121t-148 -49q-96 0 -149 49t-53 126h128q0 -59 74 -59q73 0 73 60q0 27 -19.5 42.5t-53.5 15.5h-47v98h52q2 0 6 -0.5t6 -0.5q24 18 24 42q0 43 -50 43q-51 0 -51 -47h-124q0 74 47 116.5t132 42.5q79 0 125 -41t46 -102
q0 -49 -32 -86z" />
    <glyph glyph-name="uni0438" unicode="&#x438;" horiz-adv-x="545" 
d="M59 500h126v-290l205 290h96v-500h-126v290l-205 -290h-96v500z" />
    <glyph glyph-name="uni0439" unicode="&#x439;" horiz-adv-x="545" 
d="M155 0h-96v500h126v-290l205 290h96v-500h-126v290zM128 676h290v-112h-290v112z" />
    <glyph glyph-name="uni043A" unicode="&#x43a;" horiz-adv-x="517" 
d="M188 0h-129v500h129v-220l165 220h149l-190 -247l200 -253h-149l-175 226v-226z" />
    <glyph glyph-name="uni043B" unicode="&#x43b;" horiz-adv-x="519" 
d="M460 500v-500h-129v376h-110v-167q0 -216 -187 -216q-16 0 -24 1v121q5 -1 14 -1q68 0 68 102v284h368z" />
    <glyph glyph-name="uni043C" unicode="&#x43c;" horiz-adv-x="653" 
d="M183 0h-124v500h136l131 -261l132 261h136v-500h-125v309l-108 -215h-70l-108 215v-309z" />
    <glyph glyph-name="uni043D" unicode="&#x43d;" horiz-adv-x="545" 
d="M188 0h-129v500h129v-189h169v189h129v-500h-129v190h-169v-190z" />
    <glyph glyph-name="uni043E" unicode="&#x43e;" horiz-adv-x="594" 
d="M297 -14q-111 0 -187.5 76.5t-76.5 187.5t76.5 187.5t187.5 76.5t188 -76.5t77 -187.5t-77 -187.5t-188 -76.5zM297 112q58 0 97 39t39 99t-39 99t-97 39t-96.5 -39t-38.5 -99t38.5 -99t96.5 -39z" />
    <glyph glyph-name="uni043F" unicode="&#x43f;" horiz-adv-x="545" 
d="M188 0h-129v500h427v-500h-129v379h-169v-379z" />
    <glyph glyph-name="uni0440" unicode="&#x440;" horiz-adv-x="626" 
d="M59 500h129v-58q58 72 162 72q101 0 172.5 -76.5t71.5 -187.5t-71.5 -187.5t-172.5 -76.5q-104 0 -162 72v-258h-129v700zM188 259v-18q3 -59 42 -95.5t96 -36.5q60 0 99.5 39.5t39.5 101.5t-39.5 101.5t-99.5 39.5q-57 0 -96 -36.5t-42 -95.5z" />
    <glyph glyph-name="uni0441" unicode="&#x441;" horiz-adv-x="566" 
d="M547 183q-17 -86 -87 -141.5t-163 -55.5q-113 0 -188.5 76t-75.5 188t75.5 188t188.5 76q93 0 163 -55t87 -141h-136q-14 32 -44.5 50.5t-69.5 18.5q-57 0 -96 -38.5t-39 -98.5q0 -59 39 -97.5t96 -38.5q40 0 70.5 18.5t43.5 50.5h136z" />
    <glyph glyph-name="uni0442" unicode="&#x442;" horiz-adv-x="423" 
d="M148 379h-138v121h403v-121h-136v-379h-129v379z" />
    <glyph glyph-name="uni0443" unicode="&#x443;" horiz-adv-x="495" 
d="M188 8l-191 492h138l121 -329l99 329h138l-170 -500q-67 -201 -246 -201q-3 0 -9 0.5t-9 0.5v120q53 0 82 19.5t47 68.5z" />
    <glyph glyph-name="uni0444" unicode="&#x444;" horiz-adv-x="685" 
d="M33 250q0 100 66 171t181 87v192h126v-192q115 -16 181 -87t66 -171t-66 -171t-181 -87v-192h-126v192q-115 16 -181 87t-66 171zM280 385q-58 -13 -89 -49t-31 -86t31 -86t89 -49v270zM406 385v-270q57 13 88 49t31 86t-31 86t-88 49z" />
    <glyph glyph-name="uni0445" unicode="&#x445;" horiz-adv-x="473" 
d="M5 0l162 256l-154 244h138l85 -135l86 135h138l-155 -244l163 -256h-138l-94 147l-93 -147h-138z" />
    <glyph glyph-name="uni0446" unicode="&#x446;" horiz-adv-x="575" 
d="M59 500h129v-379h152v379h129v-379h84v-265h-126v144h-368v500z" />
    <glyph glyph-name="uni0447" unicode="&#x447;" horiz-adv-x="511" 
d="M35 500h129v-174q0 -65 74 -65q43 0 86 19v220h129v-500h-129v159q-54 -18 -109 -18q-81 0 -130.5 44t-49.5 126v189z" />
    <glyph glyph-name="uni0448" unicode="&#x448;" horiz-adv-x="773" 
d="M714 0h-655v500h129v-379h134v379h129v-379h134v379h129v-500z" />
    <glyph glyph-name="uni0449" unicode="&#x449;" horiz-adv-x="788" 
d="M59 500h129v-379h126v379h129v-379h127v379h129v-379h66v-265h-126v144h-580v500z" />
    <glyph glyph-name="uni044A" unicode="&#x44a;" horiz-adv-x="574" 
d="M136 379h-136v121h265v-160h98q85 0 136.5 -46.5t51.5 -123.5t-51.5 -123.5t-136.5 -46.5h-227v379zM265 227v-113h98q27 0 44.5 15.5t17.5 40.5t-17.5 41t-44.5 16h-98z" />
    <glyph glyph-name="uni044B" unicode="&#x44b;" horiz-adv-x="717" 
d="M59 0v500h129v-160h97q85 0 137 -46.5t52 -123.5t-52 -123.5t-137 -46.5h-226zM529 500h129v-500h-129v500zM286 227h-98v-113h98q27 0 44.5 15.5t17.5 40.5t-17.5 41t-44.5 16z" />
    <glyph glyph-name="uni044C" unicode="&#x44c;" horiz-adv-x="496" 
d="M285 0h-226v500h129v-160h97q85 0 137 -46.5t52 -123.5t-52 -123.5t-137 -46.5zM286 227h-98v-113h98q27 0 44.5 15.5t17.5 40.5t-17.5 41t-44.5 16z" />
    <glyph glyph-name="uni044D" unicode="&#x44d;" horiz-adv-x="561" 
d="M266 514q113 0 188 -76t75 -188t-75 -188t-188 -76q-93 0 -163.5 55.5t-87.5 141.5h132q13 -35 46.5 -56.5t76.5 -21.5q44 0 77 23.5t47 63.5h-170v116h170q-14 40 -47 63.5t-77 23.5q-43 0 -76 -21t-47 -56h-132q17 86 87.5 141t163.5 55z" />
    <glyph glyph-name="uni044E" unicode="&#x44e;" horiz-adv-x="811" 
d="M59 500h129v-189h72q20 89 90 146t164 57q111 0 188 -76.5t77 -187.5t-77 -187.5t-188 -76.5q-94 0 -164 57t-90 147h-72v-190h-129v500zM379 250q0 -60 38.5 -99t96.5 -39t97 39t39 99t-39 99t-97 39t-96.5 -39t-38.5 -99z" />
    <glyph glyph-name="uni044F" unicode="&#x44f;" horiz-adv-x="519" 
d="M5 0l142 172q-47 21 -74.5 64t-27.5 92q0 70 50 121t131 51h234v-500h-126v156h-52l-128 -156h-149zM171 324q0 -27 18.5 -43t46.5 -16h98v120h-98q-28 0 -46.5 -16.5t-18.5 -44.5z" />
    <glyph glyph-name="uni0451" unicode="&#x451;" horiz-adv-x="576" 
d="M33 250q0 113 74 188.5t191 75.5q109 0 179 -76t70 -188q0 -32 -5 -53h-375q12 -51 48.5 -77.5t86.5 -26.5q34 0 62 14t41 36l127 1q-23 -75 -84.5 -116.5t-146.5 -41.5q-120 0 -194 75t-74 189zM297 398q-51 0 -85 -26t-46 -74h252q-11 51 -44 75.5t-77 24.5zM451 565
h-118v118h118v-118zM148 565v118h118v-118h-118z" />
    <glyph glyph-name="uni0452" unicode="&#x452;" horiz-adv-x="533" 
d="M3 638h62v62h129v-62h141v-84h-141v-105q43 65 136 65q71 0 117 -52t46 -142v-330q0 -205 -192 -205q-17 0 -26 1v124q48 0 68.5 16.5t20.5 63.5v320q0 41 -22 62.5t-58 21.5q-40 0 -65 -25.5t-25 -78.5v-290h-129v554h-62v84z" />
    <glyph glyph-name="uni0453" unicode="&#x453;" horiz-adv-x="383" 
d="M359 700l-111 -137h-124l80 137h155zM381 500v-124h-193v-376h-129v500h322z" />
    <glyph glyph-name="uni0454" unicode="&#x454;" horiz-adv-x="561" 
d="M291 105q43 0 76.5 21.5t46.5 56.5h132q-17 -86 -87.5 -141.5t-163.5 -55.5q-113 0 -187.5 76t-74.5 188t74.5 188t187.5 76q93 0 163.5 -55t87.5 -141h-132q-14 35 -47 56t-76 21q-44 0 -77 -23.5t-47 -63.5h171v-116h-171q14 -40 47 -63.5t77 -23.5z" />
    <glyph glyph-name="uni0455" unicode="&#x455;" horiz-adv-x="480" 
d="M173 355q0 -23 27.5 -36t67.5 -20.5t79.5 -20.5t67 -46t27.5 -87q0 -76 -57.5 -117.5t-144.5 -41.5q-88 0 -145 44.5t-57 128.5h126q0 -59 76 -59q73 0 73 45q0 20 -20 32.5t-50 17.5t-64.5 15.5t-64.5 24t-50 44.5t-20 76q0 75 56.5 117t139.5 42q81 0 136.5 -45
t55.5 -128h-126q0 28 -18.5 43.5t-47.5 15.5q-67 0 -67 -45z" />
    <glyph glyph-name="uni0456" unicode="&#x456;" horiz-adv-x="247" 
d="M59 500h129v-500h-129v500zM188 570h-129v130h129v-130z" />
    <glyph glyph-name="uni0457" unicode="&#x457;" horiz-adv-x="247" 
d="M59 500h129v-500h-129v500zM157 679h118v-118h-118v118zM-28 561v118h118v-118h-118z" />
    <glyph glyph-name="uni0458" unicode="&#x458;" horiz-adv-x="264" 
d="M13 -215q-17 0 -26 1v124q48 0 68.5 16.5t20.5 63.5v510h129v-510q0 -205 -192 -205zM205 570h-129v130h129v-130z" />
    <glyph glyph-name="uni0459" unicode="&#x459;" horiz-adv-x="741" 
d="M34 -7q-16 0 -24 1v121q5 -1 14 -1q68 0 68 102v284h358v-172h90q80 0 129.5 -44.5t49.5 -119.5t-50.5 -119.5t-128.5 -44.5h-219v376h-100v-167q0 -216 -187 -216zM541 214h-91v-100h91q22 0 37 13t15 37t-15 37t-37 13z" />
    <glyph glyph-name="uni045A" unicode="&#x45a;" horiz-adv-x="760" 
d="M51 0v500h129v-172h160v172h129v-172h90q79 0 128.5 -44.5t49.5 -119.5t-50 -119.5t-128 -44.5h-219v207h-160v-207h-129zM559 214h-90v-100h90q22 0 37 13t15 37t-15 37t-37 13z" />
    <glyph glyph-name="uni045B" unicode="&#x45b;" horiz-adv-x="539" 
d="M65 554h-62v84h62v62h129v-62h141v-84h-141v-105q43 65 136 65q71 0 117 -52t46 -142v-320h-129v310q0 41 -22 62.5t-58 21.5q-40 0 -65 -25.5t-25 -78.5v-290h-129v554z" />
    <glyph glyph-name="uni045C" unicode="&#x45c;" horiz-adv-x="517" 
d="M59 500h129v-220l165 220h149l-190 -247l200 -253h-149l-175 226v-226h-129v500zM181 563l80 137h155l-111 -137h-124z" />
    <glyph glyph-name="uni045E" unicode="&#x45e;" horiz-adv-x="495" 
d="M-3 500h138l121 -329l99 329h138l-170 -500q-67 -201 -246 -201q-3 0 -9 0.5t-9 0.5v120q53 0 82 19.5t47 68.5zM100 676h290v-112h-290v112z" />
    <glyph glyph-name="uni045F" unicode="&#x45f;" horiz-adv-x="545" 
d="M59 500h129v-379h169v379h129v-500h-150v-144h-126v144h-151v500z" />
    <glyph glyph-name="uni0490" unicode="&#x490;" horiz-adv-x="475" 
d="M325 820h138v-252h-260v-568h-138v700h260v120z" />
    <glyph glyph-name="uni0491" unicode="&#x491;" horiz-adv-x="383" 
d="M255 601h126v-225h-193v-376h-129v500h196v101z" />
    <glyph glyph-name="Wgrave" unicode="&#x1e80;" horiz-adv-x="890" 
d="M3 700h143l139 -525l100 357l-48 168h128l140 -525l140 525h143l-200 -700h-152l-91 320l-91 -320h-152zM399 763l-111 137h155l80 -137h-124z" />
    <glyph glyph-name="wgrave" unicode="&#x1e81;" horiz-adv-x="725" 
d="M174 0l-164 500h138l97 -342l65 204l-45 138h115l104 -329l94 329h137l-163 -500h-123l-66 201l-66 -201h-123zM205 700h155l80 -137h-124z" />
    <glyph glyph-name="Wacute" unicode="&#x1e82;" horiz-adv-x="890" 
d="M3 700h143l139 -525l100 357l-48 168h128l140 -525l140 525h143l-200 -700h-152l-91 320l-91 -320h-152zM489 763h-124l80 137h155z" />
    <glyph glyph-name="wacute" unicode="&#x1e83;" horiz-adv-x="725" 
d="M174 0l-164 500h138l97 -342l65 204l-45 138h115l104 -329l94 329h137l-163 -500h-123l-66 201l-66 -201h-123zM407 563h-124l80 137h155z" />
    <glyph glyph-name="Wdieresis" unicode="&#x1e84;" horiz-adv-x="890" 
d="M202 0l-199 700h143l139 -525l100 357l-48 168h128l140 -525l140 525h143l-200 -700h-152l-91 320l-91 -320h-152zM597 761h-118v118h118v-118zM294 879h118v-118h-118v118z" />
    <glyph glyph-name="wdieresis" unicode="&#x1e85;" horiz-adv-x="725" 
d="M174 0l-164 500h138l97 -342l65 204l-45 138h115l104 -329l94 329h137l-163 -500h-123l-66 201l-66 -201h-123zM396 561v118h118v-118h-118zM211 561v118h118v-118h-118z" />
    <glyph glyph-name="Ygrave" unicode="&#x1ef2;" horiz-adv-x="601" 
d="M3 700h156l142 -256l142 256h156l-230 -389v-311h-137v311zM142 900h155l80 -137h-124z" />
    <glyph glyph-name="ygrave" unicode="&#x1ef3;" horiz-adv-x="500" 
d="M3 500h137l118 -315l102 315h138l-237 -700h-137l70 207zM204 563l-111 137h155l80 -137h-124z" />
    <glyph glyph-name="endash" unicode="&#x2013;" horiz-adv-x="645" 
d="M65 240v124h515v-124h-515z" />
    <glyph glyph-name="emdash" unicode="&#x2014;" horiz-adv-x="745" 
d="M65 240v124h615v-124h-615z" />
    <glyph glyph-name="quoteleft" unicode="&#x2018;" 
d="M205 424h-142v143q0 63 37.5 100.5t104.5 38.5v-58q-35 -2 -51 -20.5t-16 -60.5h67v-143z" />
    <glyph glyph-name="quoteright" unicode="&#x2019;" 
d="M63 700h142v-142q0 -64 -37.5 -101t-104.5 -38v58q35 2 50.5 20t15.5 61h-66v142z" />
    <glyph glyph-name="quotesinglbase" unicode="&#x201a;" 
d="M63 143h142v-143q0 -63 -37.5 -100.5t-104.5 -38.5v58q35 2 50.5 20t15.5 61h-66v143z" />
    <glyph glyph-name="quotedblleft" unicode="&#x201c;" horiz-adv-x="453" 
d="M205 424h-142v143q0 63 37.5 100.5t104.5 38.5v-58q-35 -2 -50.5 -20t-15.5 -61h66v-143zM248 567q0 63 37.5 100.5t104.5 38.5v-58q-35 -2 -51 -20.5t-16 -60.5h67v-143h-142v143z" />
    <glyph glyph-name="quotedblright" unicode="&#x201d;" horiz-adv-x="453" 
d="M314 558h-66v143h142v-143q0 -63 -37.5 -100.5t-104.5 -38.5v58q35 2 50.5 20t15.5 61zM63 558v142h142v-142q0 -64 -37.5 -101t-104.5 -38v58q35 2 50.5 20t15.5 61h-66z" />
    <glyph glyph-name="quotedblbase" unicode="&#x201e;" horiz-adv-x="453" 
d="M248 143h142v-143q0 -63 -37.5 -100.5t-104.5 -38.5v58q35 2 50.5 20t15.5 61h-66v143zM129 0h-66v143h142v-143q0 -63 -37.5 -100.5t-104.5 -38.5v58q35 2 50.5 20t15.5 61z" />
    <glyph glyph-name="dagger" unicode="&#x2020;" horiz-adv-x="480" 
d="M176 441h-131v124h131v135h129v-135h130v-124h-130v-441h-129v441z" />
    <glyph glyph-name="daggerdbl" unicode="&#x2021;" horiz-adv-x="480" 
d="M176 441h-131v124h131v135h129v-135h130v-124h-130v-182h130v-124h-130v-135h-129v135h-131v124h131v182z" />
    <glyph glyph-name="bullet" unicode="&#x2022;" horiz-adv-x="360" 
d="M182 213q-58 0 -98.5 40.5t-40.5 98.5q0 56 40.5 96t98.5 40q56 0 96 -40t40 -96q0 -58 -40 -98.5t-96 -40.5z" />
    <glyph glyph-name="ellipsis" unicode="&#x2026;" horiz-adv-x="723" 
d="M290 143h143v-143h-143v143zM518 0v143h142v-143h-142zM205 0h-142v143h142v-143z" />
    <glyph glyph-name="perthousand" unicode="&#x2030;" horiz-adv-x="1160" 
d="M214 384q-72 0 -120.5 48t-48.5 117t48.5 117t120.5 48q71 0 119.5 -48t48.5 -117q0 -70 -48 -117.5t-120 -47.5zM92 0l491 700h123l-492 -700h-122zM213 485q27 0 45 18.5t18 45.5t-18 45t-45 18t-44.5 -18t-17.5 -45t17.5 -45.5t44.5 -18.5zM585 -12q-72 0 -120.5 48
t-48.5 117t48.5 117t120.5 48q71 0 119.5 -48t48.5 -117t-48.5 -117t-119.5 -48zM960 -12q-72 0 -120.5 48t-48.5 117t48.5 117t120.5 48q71 0 119.5 -48t48.5 -117t-48.5 -117t-119.5 -48zM584 89q27 0 45 19t18 45q0 27 -18 45.5t-45 18.5t-44.5 -18.5t-17.5 -45.5
t17.5 -45.5t44.5 -18.5zM959 89q27 0 45 19t18 45q0 27 -18 45.5t-45 18.5t-44.5 -18.5t-17.5 -45.5t17.5 -45.5t44.5 -18.5z" />
    <glyph glyph-name="guilsinglleft" unicode="&#x2039;" horiz-adv-x="355" 
d="M292 497l-110 -188l110 -187h-119l-110 187l110 188h119z" />
    <glyph glyph-name="guilsinglright" unicode="&#x203a;" horiz-adv-x="355" 
d="M182 497l110 -188l-110 -187h-119l110 187l-110 188h119z" />
    <glyph glyph-name="fraction" unicode="&#x2044;" horiz-adv-x="190" 
d="M-60 0h-90l400 700h90z" />
    <glyph glyph-name="Euro" unicode="&#x20ac;" horiz-adv-x="645" 
d="M18 451h70q21 123 91.5 193t180.5 70q109 0 177.5 -68.5t82.5 -186.5h-139q-7 58 -38.5 89.5t-82.5 31.5q-104 0 -133 -129h206v-77h-215v-39h215v-78h-207q26 -136 134 -136q53 0 85 33t38 95h139q-13 -121 -82 -192t-180 -71q-112 0 -183 72.5t-90 198.5h-69v78h62v39
h-62v77z" />
    <glyph glyph-name="uni20BD" unicode="&#x20bd;" horiz-adv-x="601" 
d="M88 243h-75v121h75v336h261q99 0 167.5 -68t68.5 -164t-68 -160.5t-168 -64.5h-124v-55h223v-88h-223v-100h-137v100h-75v88h75v55zM225 571v-207h124q42 0 70.5 30t28.5 74t-28.5 73.5t-70.5 29.5h-124z" />
    <glyph glyph-name="uni2116" unicode="&#x2116;" horiz-adv-x="1004" 
d="M203 0h-138v700h105l273 -432v432h137v-700h-105l-272 433v-433zM803 384q-72 0 -120 48t-48 117t48 117t120 48t120 -48t48 -117t-47.5 -117t-120.5 -48zM649 208v121h312v-121h-312zM803 609q-26 0 -42.5 -17t-16.5 -43t16.5 -43t42.5 -17q27 0 43 16.5t16 43.5
q0 26 -16.5 43t-42.5 17z" />
    <glyph glyph-name="trademark" unicode="&#x2122;" horiz-adv-x="466" 
d="M217 500v200h64l44 -89l44 89h64v-200h-60v104l-34 -63h-29l-35 67v-108h-58zM33 700h164v-56h-52v-144h-60v144h-52v56z" />
    <glyph glyph-name="estimated" unicode="&#x212e;" horiz-adv-x="790" 
d="M415 -10q-176 0 -283 103.5t-107 256.5q0 152 103.5 256t266.5 104t266.5 -104t103.5 -256q0 -15 -15 -15h-560q-15 0 -15 -15v-192q0 -11 7 -19q84 -89 233 -89q145 0 231 97q8 9 18 9h37q10 0 13 -6t-4 -13q-109 -117 -295 -117zM182 591q-7 -8 -7 -19v-192
q0 -15 15 -15h410q15 0 15 15v192q0 11 -7 19q-84 89 -213 89t-213 -89z" />
    <glyph glyph-name="oneeighth" unicode="&#x215b;" horiz-adv-x="807" 
d="M478 109q0 67 59 101q-45 31 -45 84q0 55 39.5 87.5t100.5 32.5t100.5 -32.5t39.5 -87.5q0 -53 -45 -84q58 -34 58 -101q0 -56 -40.5 -89.5t-112.5 -33.5t-113 33.5t-41 89.5zM207 0h-90l400 700h90zM13 646l99 54h107v-400h-107v292l-99 -53v107zM579 124
q0 -21 14 -33.5t39 -12.5t38.5 12.5t13.5 33.5q0 20 -14 32.5t-38 12.5q-25 0 -39 -12t-14 -33zM632 323q-48 0 -48 -38q0 -39 48 -39q21 0 34.5 10.5t13.5 28.5t-13.5 28t-34.5 10z" />
    <glyph glyph-name="threeeighths" unicode="&#x215c;" horiz-adv-x="887" 
d="M559 109q0 67 59 101q-45 31 -45 84q0 55 39.5 87.5t100.5 32.5t100.5 -32.5t39.5 -87.5q0 -53 -45 -84q58 -34 58 -101q0 -56 -40.5 -89.5t-112.5 -33.5t-113 33.5t-41 89.5zM14 421h108q0 -41 47 -41t47 41q0 40 -47 40h-60v61l67 81h-146v97h275v-79l-70 -86
q89 -27 89 -114q0 -64 -41.5 -99t-113.5 -35q-73 0 -114 34.5t-41 99.5zM288 0h-90l400 700h90zM713 169q-25 0 -39 -12t-14 -33t14 -33.5t39 -12.5t38.5 12.5t13.5 33.5q0 20 -14 32.5t-38 12.5zM713 323q-48 0 -48 -38q0 -39 48 -39q21 0 34.5 10.5t13.5 28.5t-13.5 28
t-34.5 10z" />
    <glyph glyph-name="fiveeighths" unicode="&#x215d;" horiz-adv-x="874" 
d="M699 -14q-72 0 -113 33.5t-41 89.5q0 67 59 101q-45 31 -45 84q0 55 39.5 87.5t100.5 32.5t100.5 -32.5t39.5 -87.5q0 -53 -45 -84q58 -34 58 -101q0 -56 -40.5 -89.5t-112.5 -33.5zM17 419h98q0 -18 13 -29.5t36 -11.5t35.5 11.5t12.5 29.5q0 20 -13 31.5t-35 11.5h-133
l16 238h244v-97h-149l-4 -54h30q66 0 104.5 -33t38.5 -99q0 -63 -40.5 -96.5t-106.5 -33.5t-106.5 34t-40.5 98zM184 0l400 700h90l-400 -700h-90zM699 169q-25 0 -39 -12t-14 -33t14 -33.5t39 -12.5t38.5 12.5t13.5 33.5q0 20 -14 32.5t-38 12.5zM651 285q0 -39 48 -39
q21 0 34.5 10.5t13.5 28.5t-13.5 28t-34.5 10q-48 0 -48 -38z" />
    <glyph glyph-name="seveneighths" unicode="&#x215e;" horiz-adv-x="835" 
d="M506 109q0 67 59 101q-45 31 -45 84q0 55 39.5 87.5t100.5 32.5t100.5 -32.5t39.5 -87.5q0 -53 -45 -84q58 -34 58 -101q0 -56 -40.5 -89.5t-112.5 -33.5t-113 33.5t-41 89.5zM235 0h-90l400 700h90zM3 700h276v-82l-126 -318h-111l121 303h-160v97zM607 124
q0 -21 14 -33.5t39 -12.5t38.5 12.5t13.5 33.5q0 20 -14 32.5t-38 12.5q-25 0 -39 -12t-14 -33zM612 285q0 -39 48 -39q21 0 34.5 10.5t13.5 28.5t-13.5 28t-34.5 10q-48 0 -48 -38z" />
    <glyph glyph-name="arrowleft" unicode="&#x2190;" horiz-adv-x="798" 
d="M753 412v-124h-475l238 -238h-171l-300 300l300 300h171l-238 -238h475z" />
    <glyph glyph-name="arrowup" unicode="&#x2191;" horiz-adv-x="690" 
d="M645 400v-171l-235 236v-465h-129v465l-236 -236v171l300 300z" />
    <glyph glyph-name="arrowright" unicode="&#x2192;" horiz-adv-x="798" 
d="M453 650l300 -300l-300 -300h-171l238 238h-475v124h475l-238 238h171z" />
    <glyph glyph-name="arrowdown" unicode="&#x2193;" horiz-adv-x="690" 
d="M410 236l235 235v-171l-300 -300l-300 300v171l236 -235v464h129v-464z" />
    <glyph glyph-name="arrowboth" unicode="&#x2194;" horiz-adv-x="1085" 
d="M45 350l272 273h168l-210 -211h535l-210 211h168l272 -273l-272 -272h-168l208 210h-533l210 -210h-168z" />
    <glyph glyph-name="arrowupdn" unicode="&#x2195;" horiz-adv-x="635" 
d="M318 -148l-273 273v168l208 -208v530l-208 -208v168l273 273l272 -273v-168l-208 208v-530l208 208v-168z" />
    <glyph glyph-name="uni2196" unicode="&#x2196;" horiz-adv-x="643" 
d="M598 148l-87 -88l-345 344v-335l-121 120v424h424l121 -120h-336z" />
    <glyph glyph-name="uni2197" unicode="&#x2197;" horiz-adv-x="643" 
d="M174 613h424v-424l-120 -120v335l-345 -344l-88 88l344 345h-335z" />
    <glyph glyph-name="uni2198" unicode="&#x2198;" horiz-adv-x="643" 
d="M478 617l120 -120v-424h-424l-120 120h335l-344 345l88 88l345 -345v336z" />
    <glyph glyph-name="uni2199" unicode="&#x2199;" horiz-adv-x="643" 
d="M598 538l-344 -345h336l-121 -120h-424v424l121 120v-336l345 345z" />
    <glyph glyph-name="partialdiff" unicode="&#x2202;" horiz-adv-x="584" 
d="M240 714q122 0 210.5 -101.5t88.5 -262.5q0 -174 -79 -269t-200 -95q-101 0 -159 61t-58 153q0 103 61 168.5t165 65.5q76 0 138 -40q-10 92 -57 144.5t-126 53.5q-59 0 -115 -32v118q56 36 131 36zM265 108q59 0 95.5 46.5t45.5 128.5q-49 37 -119 37q-50 0 -82.5 -30.5
t-32.5 -85.5q0 -44 25.5 -70t67.5 -26z" />
    <glyph glyph-name="emptyset" unicode="&#x2205;" horiz-adv-x="804" 
d="M659 605q105 -107 105 -255q0 -150 -106 -256t-256 -106q-104 0 -192 55l-50 -63h-107l92 115q-105 107 -105 255q0 150 106 256t256 106q104 0 192 -55l50 63h108zM130 350q0 -105 70 -185l338 423q-63 36 -136 36q-113 0 -192.5 -79.5t-79.5 -194.5zM402 76
q114 0 193 80t79 194q0 105 -70 185l-338 -423q63 -36 136 -36z" />
    <glyph glyph-name="product" unicode="&#x220f;" horiz-adv-x="640" 
d="M194 -200h-129v900h510v-900h-129v776h-252v-776z" />
    <glyph glyph-name="summation" unicode="&#x2211;" horiz-adv-x="563" 
d="M35 -200v110l213 350l-198 329v111h460v-124h-308l191 -316l-205 -336h337v-124h-490z" />
    <glyph glyph-name="minus" unicode="&#x2212;" horiz-adv-x="555" 
d="M53 290v121h450v-121h-450z" />
    <glyph glyph-name="radical" unicode="&#x221a;" horiz-adv-x="676" 
d="M269 0l-122 199h-102v124h176l100 -173l218 650h132l-277 -800h-125z" />
    <glyph glyph-name="infinity" unicode="&#x221e;" horiz-adv-x="808" 
d="M575 525q78 0 129.5 -48.5t51.5 -126.5t-51.5 -126.5t-129.5 -48.5q-86 0 -171 87q-87 -87 -171 -87q-79 0 -130.5 48.5t-51.5 126.5t51.5 126.5t130.5 48.5q84 0 171 -87q85 87 171 87zM215 316q12 -9 28 -9q23 0 48 18q-3 37 -16 59q-19 8 -34 8q-23 0 -37 -17
q-11 -14 -8 -31t19 -28zM593 316q16 11 19 28t-8 31q-14 17 -37 17q-15 0 -34 -8q-13 -22 -16 -59q25 -18 48 -18q16 0 28 9z" />
    <glyph glyph-name="integral" unicode="&#x222b;" horiz-adv-x="441" 
d="M0 -204v129q18 -9 38 -9q57 0 69 65l95 561q14 86 59.5 127.5t112.5 41.5q32 0 67 -9v-128q-17 8 -39 8q-27 0 -46 -16t-24 -48l-96 -562q-14 -86 -59 -127.5t-111 -41.5q-32 0 -66 9z" />
    <glyph glyph-name="approxequal" unicode="&#x2248;" horiz-adv-x="569" 
d="M289 379q-64 30 -99 30q-32 0 -62 -32l-83 28q37 138 140 138q43 0 95 -24q59 -28 87 -28q39 0 52 52l105 -51q-16 -67 -53 -102t-89 -35q-44 0 -93 24zM150 157l-105 51q16 67 52.5 102t89.5 35q43 0 93 -24q62 -29 98 -29q32 0 63 31l83 -28q-37 -138 -140 -138
q-42 0 -95 24q-59 28 -87 28q-39 0 -52 -52z" />
    <glyph glyph-name="notequal" unicode="&#x2260;" horiz-adv-x="525" 
d="M45 514h251l59 131h80l-59 -131h104v-121h-158l-39 -86h197v-121h-251l-59 -131h-80l59 131h-104v121h158l39 86h-197v121z" />
    <glyph glyph-name="lessequal" unicode="&#x2264;" horiz-adv-x="528" 
d="M45 372v114l438 167v-134l-290 -90l290 -89v-134zM45 55v121h438v-121h-438z" />
    <glyph glyph-name="greaterequal" unicode="&#x2265;" horiz-adv-x="528" 
d="M45 653l438 -167v-114l-438 -166v134l289 89l-289 90v134zM483 55h-438v121h438v-121z" />
    <glyph glyph-name="lozenge" unicode="&#x25ca;" horiz-adv-x="555" 
d="M229 0l-186 350l186 350h98l186 -350l-186 -350h-98zM278 170l95 180l-95 180l-96 -180z" />
    <glyph glyph-name="fi" unicode="&#xfb01;" horiz-adv-x="540" 
d="M5 376v124h72v5q0 209 234 209q54 0 118 -14v-118q-67 8 -118 8q-53 0 -79 -18.5t-26 -66.5v-5h276v-500h-129v376h-147v-376h-129v376h-72z" />
    <glyph glyph-name="fl" unicode="&#xfb02;" horiz-adv-x="540" 
d="M77 376h-72v124h72v5q0 209 234 209q66 0 171 -21v-693h-129v600q-15 1 -42 1q-105 0 -105 -96v-5h83v-124h-83v-376h-129v376z" />
    <glyph glyph-name="uni0000.1" horiz-adv-x="0" 
 />
    <glyph glyph-name="uni000D.1" horiz-adv-x="250" 
 />
    <glyph glyph-name="i.loclTRK" horiz-adv-x="247" 
d="M56 558v135h135v-135h-135zM59 0v500h129v-500h-129z" />
    <glyph glyph-name="a.ss01" horiz-adv-x="626" 
d="M33 250q0 111 71.5 187.5t171.5 76.5q105 0 163 -73v59h129v-500h-129v59q-58 -73 -163 -73q-100 0 -171.5 76.5t-71.5 187.5zM300 391q-60 0 -99 -39.5t-39 -101.5t39 -101.5t99 -39.5t99.5 39.5t39.5 101.5t-39.5 101.5t-99.5 39.5z" />
    <glyph glyph-name="aacute.ss01" horiz-adv-x="626" 
d="M276 -14q-100 0 -171.5 76.5t-71.5 187.5t71.5 187.5t171.5 76.5q105 0 163 -73v59h129v-500h-129v59q-58 -73 -163 -73zM300 391q-60 0 -99 -39.5t-39 -101.5t39 -101.5t99 -39.5t99.5 39.5t39.5 101.5t-39.5 101.5t-99.5 39.5zM228 563l80 137h155l-111 -137h-124z" />
    <glyph glyph-name="abreve.ss01" horiz-adv-x="626" 
d="M276 -14q-100 0 -171.5 76.5t-71.5 187.5t71.5 187.5t171.5 76.5q105 0 163 -73v59h129v-500h-129v59q-58 -73 -163 -73zM300 391q-60 0 -99 -39.5t-39 -101.5t39 -101.5t99 -39.5t99.5 39.5t39.5 101.5t-39.5 101.5t-99.5 39.5zM307 547q-79 0 -122.5 38t-43.5 107h115
q0 -52 51 -52q52 0 52 52h115q0 -69 -43.5 -107t-123.5 -38z" />
    <glyph glyph-name="acircumflex.ss01" horiz-adv-x="626" 
d="M276 -14q-100 0 -171.5 76.5t-71.5 187.5t71.5 187.5t171.5 76.5q105 0 163 -73v59h129v-500h-129v59q-58 -73 -163 -73zM300 391q-60 0 -99 -39.5t-39 -101.5t39 -101.5t99 -39.5t99.5 39.5t39.5 101.5t-39.5 101.5t-99.5 39.5zM261 555h-128l106 145h131l106 -145h-128
l-43 65z" />
    <glyph glyph-name="adieresis.ss01" horiz-adv-x="626" 
d="M276 -14q-100 0 -171.5 76.5t-71.5 187.5t71.5 187.5t171.5 76.5q105 0 163 -73v59h129v-500h-129v59q-58 -73 -163 -73zM300 391q-60 0 -99 -39.5t-39 -101.5t39 -101.5t99 -39.5t99.5 39.5t39.5 101.5t-39.5 101.5t-99.5 39.5zM459 561h-118v118h118v-118zM156 679h118
v-118h-118v118z" />
    <glyph glyph-name="agrave.ss01" horiz-adv-x="626" 
d="M276 -14q-100 0 -171.5 76.5t-71.5 187.5t71.5 187.5t171.5 76.5q105 0 163 -73v59h129v-500h-129v59q-58 -73 -163 -73zM162 250q0 -62 39 -101.5t99 -39.5t99.5 39.5t39.5 101.5t-39.5 101.5t-99.5 39.5t-99 -39.5t-39 -101.5zM261 563l-111 137h155l80 -137h-124z" />
    <glyph glyph-name="amacron.ss01" horiz-adv-x="626" 
d="M276 -14q-100 0 -171.5 76.5t-71.5 187.5t71.5 187.5t171.5 76.5q105 0 163 -73v59h129v-500h-129v59q-58 -73 -163 -73zM300 391q-60 0 -99 -39.5t-39 -101.5t39 -101.5t99 -39.5t99.5 39.5t39.5 101.5t-39.5 101.5t-99.5 39.5zM163 669h290v-105h-290v105z" />
    <glyph glyph-name="aogonek.ss01" horiz-adv-x="626" 
d="M276 -14q-100 0 -171.5 76.5t-71.5 187.5t71.5 187.5t171.5 76.5q105 0 163 -73v59h129v-500q-53 -55 -53 -95q-2 -27 25 -27q13 0 28 5v-81q-40 -16 -81 -16q-43 0 -69.5 22.5t-26.5 65.5q0 56 64 126h-16v59q-58 -73 -163 -73zM162 250q0 -62 39 -101.5t99 -39.5
t99.5 39.5t39.5 101.5t-39.5 101.5t-99.5 39.5t-99 -39.5t-39 -101.5z" />
    <glyph glyph-name="aring.ss01" horiz-adv-x="626" 
d="M276 -14q-100 0 -171.5 76.5t-71.5 187.5t71.5 187.5t171.5 76.5q105 0 163 -73v59h129v-500h-129v59q-58 -73 -163 -73zM300 391q-60 0 -99 -39.5t-39 -101.5t39 -101.5t99 -39.5t99.5 39.5t39.5 101.5t-39.5 101.5t-99.5 39.5zM182 658q0 51 35.5 84.5t90.5 33.5
q56 0 91 -33.5t35 -84.5q0 -52 -35 -85.5t-91 -33.5q-55 0 -90.5 34t-35.5 85zM308 695q-18 0 -28.5 -10.5t-10.5 -26.5q0 -17 10.5 -27.5t28.5 -10.5q40 0 40 38q0 37 -40 37z" />
    <glyph glyph-name="atilde.ss01" horiz-adv-x="626" 
d="M276 -14q-100 0 -171.5 76.5t-71.5 187.5t71.5 187.5t171.5 76.5q105 0 163 -73v59h129v-500h-129v59q-58 -73 -163 -73zM162 250q0 -62 39 -101.5t99 -39.5t99.5 39.5t39.5 101.5t-39.5 101.5t-99.5 39.5t-99 -39.5t-39 -101.5zM242 560h-104q0 76 27 112.5t71 36.5
q40 0 84 -28q25 -17 36 -17q16 0 16 41h105q0 -76 -27 -112.5t-71 -36.5q-40 0 -84 28q-25 17 -37 17q-16 0 -16 -41z" />
    <glyph glyph-name="ae.ss01" horiz-adv-x="983" 
d="M276 -14q-100 0 -171.5 76.5t-71.5 187.5t71.5 187.5t171.5 76.5q105 0 163 -73v59h121v-62q63 76 165 76q107 0 168.5 -75t61.5 -189q0 -25 -5 -53h-376q13 -51 49.5 -77.5t86.5 -26.5q33 0 61 14t41 36l128 1q-50 -158 -211 -158q-107 0 -169 75v-61h-121v59
q-58 -73 -163 -73zM162 250q0 -62 39 -101.5t99 -39.5t99.5 39.5t39.5 101.5t-39.5 101.5t-99.5 39.5t-99 -39.5t-39 -101.5zM704 398q-51 0 -85 -26.5t-45 -73.5h252q-11 51 -44.5 75.5t-77.5 24.5z" />
    <glyph glyph-name="y.ss01" horiz-adv-x="532" 
d="M46 500h129v-310q0 -41 22 -62.5t57 -21.5q41 0 66 25.5t25 79.5v289h129v-518q0 -97 -58.5 -146.5t-148.5 -49.5q-87 0 -145 45t-58 124h126q0 -27 20.5 -42t55.5 -15q79 0 79 84v69q-43 -65 -136 -65q-72 0 -117.5 52.5t-45.5 142.5v319z" />
    <glyph glyph-name="yacute.ss01" horiz-adv-x="532" 
d="M46 181v319h129v-310q0 -41 22 -62.5t57 -21.5q41 0 66 25.5t25 79.5v289h129v-518q0 -97 -58.5 -146.5t-148.5 -49.5q-87 0 -145 45t-58 124h126q0 -27 20.5 -42t55.5 -15q79 0 79 84v69q-43 -65 -136 -65q-72 0 -117.5 52.5t-45.5 142.5zM180 563l80 137h155l-111 -137
h-124z" />
    <glyph glyph-name="ycircumflex.ss01" horiz-adv-x="532" 
d="M46 500h129v-310q0 -41 22 -62.5t57 -21.5q41 0 66 25.5t25 79.5v289h129v-518q0 -97 -58.5 -146.5t-148.5 -49.5q-87 0 -145 45t-58 124h126q0 -27 20.5 -42t55.5 -15q79 0 79 84v69q-43 -65 -136 -65q-72 0 -117.5 52.5t-45.5 142.5v319zM85 555l106 145h131l106 -145
h-128l-43 65l-44 -65h-128z" />
    <glyph glyph-name="ydieresis.ss01" horiz-adv-x="532" 
d="M46 181v319h129v-310q0 -41 22 -62.5t57 -21.5q41 0 66 25.5t25 79.5v289h129v-518q0 -97 -58.5 -146.5t-148.5 -49.5q-87 0 -145 45t-58 124h126q0 -27 20.5 -42t55.5 -15q79 0 79 84v69q-43 -65 -136 -65q-72 0 -117.5 52.5t-45.5 142.5zM412 561h-118v118h118v-118z
M109 561v118h118v-118h-118z" />
    <glyph glyph-name="ygrave.ss01" horiz-adv-x="532" 
d="M46 500h129v-310q0 -41 22 -62.5t57 -21.5q41 0 66 25.5t25 79.5v289h129v-518q0 -97 -58.5 -146.5t-148.5 -49.5q-87 0 -145 45t-58 124h126q0 -27 20.5 -42t55.5 -15q79 0 79 84v69q-43 -65 -136 -65q-72 0 -117.5 52.5t-45.5 142.5v319zM213 563l-111 137h155l80 -137
h-124z" />
    <glyph glyph-name="f_f" horiz-adv-x="589" 
d="M5 500h72v5q0 100 52.5 155t155.5 55q17 0 26 -1v-124q-3 0 -9 0.5t-8 0.5q-88 0 -88 -86v-5h148v15q0 100 53 155t156 55q17 0 26 -1v-124q-3 0 -9 0.5t-8 0.5q-89 0 -89 -86v-15h106v-124h-106v-376h-129v376h-148v-376h-129v376h-72v124z" />
    <glyph glyph-name="f_f_i" horiz-adv-x="818" 
d="M5 376v124h72v5q0 100 52.5 155t155.5 55q17 0 26 -1v-124q-3 0 -9 0.5t-8 0.5q-88 0 -88 -86v-5h148v15q0 209 235 209q53 0 118 -14v-118q-69 8 -118 8q-53 0 -79.5 -18.5t-26.5 -66.5v-15h276v-500h-129v376h-147v-376h-129v376h-148v-376h-129v376h-72z" />
    <glyph glyph-name="f_f_j" horiz-adv-x="818" 
d="M5 376v124h72v5q0 100 52.5 155t155.5 55q17 0 26 -1v-124q-3 0 -9 0.5t-8 0.5q-88 0 -88 -86v-5h148v15q0 209 235 209q53 0 118 -14v-118q-69 8 -118 8q-53 0 -79.5 -18.5t-26.5 -66.5v-15h276v-510q0 -205 -191 -205q-17 0 -26 1v124q47 0 67.5 16.5t20.5 63.5v386
h-147v-376h-129v376h-148v-376h-129v376h-72z" />
    <glyph glyph-name="f_f_l" horiz-adv-x="818" 
d="M5 500h72v5q0 100 52.5 155t155.5 55q17 0 26 -1v-124q-3 0 -9 0.5t-8 0.5q-88 0 -88 -86v-5h148v15q0 209 235 209q65 0 170 -21v-703h-129v610q-14 1 -41 1q-106 0 -106 -96v-15h83v-124h-83v-376h-129v376h-148v-376h-129v376h-72v124z" />
    <glyph glyph-name="f_j" horiz-adv-x="540" 
d="M5 500h72v5q0 209 234 209q54 0 118 -14v-118q-67 8 -118 8q-53 0 -79 -18.5t-26 -66.5v-5h276v-510q0 -205 -192 -205q-17 0 -26 1v124q48 0 68.5 16.5t20.5 63.5v386h-147v-376h-129v376h-72v124z" />
    <glyph glyph-name="uni0414.loclBGR" horiz-adv-x="730" 
d="M18 -144v273h78l184 571h171l183 -571h79v-273h-138v144h-420v-144h-137zM365 544l-125 -415h250z" />
    <glyph glyph-name="uni041B.loclBGR" horiz-adv-x="632" 
d="M3 0l228 700h171l228 -700h-150l-164 540l-164 -540h-149z" />
    <glyph glyph-name="uni0424.loclBGR" horiz-adv-x="859" 
d="M33 350q0 149 89.5 245t242.5 113v92h130v-92q152 -17 242 -113.5t90 -244.5t-90 -244.5t-242 -113.5v-92h-130v92q-153 17 -242.5 113t-89.5 245zM365 582q-96 -15 -145.5 -74.5t-49.5 -157.5t49.5 -157.5t145.5 -74.5v464zM495 582v-464q96 15 145 74.5t49 157.5
t-49 157.5t-145 74.5z" />
    <glyph glyph-name="uni0414.ss01" horiz-adv-x="683" 
d="M15 129h66q60 79 60 240v331h439v-571h75v-129h-640v129zM279 367q0 -155 -50 -238h214v442h-164v-204z" />
    <glyph glyph-name="uni0426.ss01" horiz-adv-x="675" 
d="M65 700h138v-568h232v568h138v-568h75v-132h-583v700z" />
    <glyph glyph-name="uni0429.ss01" horiz-adv-x="940" 
d="M65 0v700h138v-568h180v568h137v-568h180v568h138v-568h75v-132h-848z" />
    <glyph glyph-name="uni0414.loclBGR.ss01" horiz-adv-x="730" 
d="M18 0v129h78l184 571h171l183 -571h79v-129h-695zM240 129h250l-125 415z" />
    <glyph glyph-name="uni0432.loclBGR" horiz-adv-x="566" 
d="M59 229v238q0 111 62 179t165 68q87 0 141 -47.5t54 -126.5q0 -68 -62 -131q55 -23 85 -73t30 -122q0 -107 -63 -167.5t-175 -60.5q-108 0 -172.5 66.5t-64.5 176.5zM188 229q0 -55 29 -86.5t79 -31.5q52 0 80.5 27t28.5 76q0 46 -29.5 70.5t-81.5 24.5q-22 0 -59 -7
l-47 -10v-63zM188 467v-58l47 10q21 4 61 8q59 46 59 98q0 31 -18.5 49.5t-50.5 18.5q-45 0 -71.5 -34.5t-26.5 -91.5z" />
    <glyph glyph-name="uni0433.loclBGR" horiz-adv-x="455" 
d="M304 159h126q0 -84 -57 -128.5t-144 -44.5q-90 0 -147 40t-57 117q0 45 20 76.5t49.5 45.5t64.5 24.5t64.5 16t49 17.5t19.5 32q0 45 -64 45q-30 0 -49.5 -15.5t-19.5 -44.5h-126q0 83 56.5 128.5t138.5 45.5q81 0 137 -41.5t56 -117.5q0 -45 -20 -76t-49.5 -45
t-64.5 -24.5t-64.5 -16t-49 -18t-19.5 -32.5q0 -43 75 -43q35 0 55 15t20 44z" />
    <glyph glyph-name="uni0434.loclBGR" horiz-adv-x="623" 
d="M33 258q0 106 71.5 181t171.5 75q108 0 166 -76v62h126v-476q0 -115 -76 -176.5t-180 -61.5q-103 0 -176 53.5t-73 146.5h129q0 -35 32 -60t88 -25q61 0 95.5 32t34.5 91v53q-57 -75 -166 -75q-100 0 -171.5 75t-71.5 181zM302 394q-61 0 -100.5 -38.5t-39.5 -97.5
q0 -60 39.5 -98.5t100.5 -38.5t100.5 38.5t39.5 98.5q0 59 -39.5 97.5t-100.5 38.5z" />
    <glyph glyph-name="uni0436.loclBGR" horiz-adv-x="746" 
d="M13 0l180 253l-170 247h144l143 -216v416h126v-416l143 216h145l-171 -247l181 -253h-145l-153 223v-223h-126v223l-153 -223h-144z" />
    <glyph glyph-name="uni0438.loclBGR" horiz-adv-x="533" 
d="M46 500h129v-310q0 -41 22 -62.5t57 -21.5q41 0 66 25.5t25 79.5v289h129v-500h-129v52q-43 -66 -136 -66q-72 0 -117.5 52.5t-45.5 142.5v319z" />
    <glyph glyph-name="uni0439.loclBGR" horiz-adv-x="533" 
d="M46 500h129v-310q0 -41 22 -62.5t57 -21.5q41 0 66 25.5t25 79.5v289h129v-500h-129v52q-43 -66 -136 -66q-72 0 -117.5 52.5t-45.5 142.5v319zM415 564h-290v112h290v-112z" />
    <glyph glyph-name="uni043A.loclBGR" horiz-adv-x="517" 
d="M59 700h129v-420l165 220h149l-190 -247l200 -253h-149l-175 226v-226h-129v700z" />
    <glyph glyph-name="uni043B.loclBGR" horiz-adv-x="500" 
d="M3 0l181 500h132l182 -500h-138l-110 341l-110 -341h-137z" />
    <glyph glyph-name="uni043F.loclBGR" horiz-adv-x="532" 
d="M59 0v500h129v-51q43 65 136 65q71 0 116.5 -52t45.5 -142v-320h-129v310q0 41 -22 62.5t-57 21.5q-41 0 -65.5 -25.5t-24.5 -78.5v-290h-129z" />
    <glyph glyph-name="uni0442.loclBGR" horiz-adv-x="767" 
d="M59 500h129v-49q41 63 120 63q80 0 120 -66q53 66 138 66q72 0 113.5 -46t41.5 -131v-337h-129v327q0 67 -63 67q-31 0 -52.5 -19.5t-21.5 -64.5v-310h-129v327q0 67 -64 67q-31 0 -52.5 -19.5t-21.5 -64.5v-310h-129v500z" />
    <glyph glyph-name="uni0446.loclBGR" horiz-adv-x="571" 
d="M46 500h129v-310q0 -41 22 -62.5t57 -21.5q41 0 66 25.5t25 79.5v289h129v-347q0 -32 31 -32h44v-265h-126v154q-35 13 -56 43q-50 -67 -147 -67q-77 0 -125.5 52t-48.5 143v319z" />
    <glyph glyph-name="uni0448.loclBGR" horiz-adv-x="768" 
d="M46 500h129v-327q0 -67 64 -67q31 0 52.5 20t21.5 65v309h129v-327q0 -67 64 -67q31 0 52.5 20t21.5 65v309h129v-500h-129v49q-41 -63 -120 -63q-81 0 -121 67q-52 -67 -137 -67q-72 0 -114 46t-42 131v337z" />
    <glyph glyph-name="uni0449.loclBGR" horiz-adv-x="806" 
d="M202 -14q-72 0 -114 46t-42 131v337h129v-327q0 -67 64 -67q31 0 52.5 20t21.5 65v309h129v-327q0 -67 64 -67q31 0 52.5 20t21.5 65v309h129v-347q0 -32 31 -32h44v-265h-126v154q-36 14 -56 44q-51 -68 -142 -68q-81 0 -121 66q-53 -66 -137 -66z" />
    <glyph glyph-name="uni044C.loclBGR" horiz-adv-x="489" 
d="M46 186v314h126v-139h92q98 0 150 -48t52 -134q0 -82 -58.5 -137.5t-151.5 -55.5q-98 0 -154 54.5t-56 145.5zM172 247v-61q0 -34 23 -56t61 -22q36 0 60 22t24 50q0 30 -20 48.5t-56 18.5h-92z" />
    <glyph glyph-name="uni044A.loclBGR" horiz-adv-x="579" 
d="M0 500h262v-139h92q98 0 150 -48t52 -134q0 -82 -58.5 -137.5t-151.5 -55.5q-98 0 -154 54.5t-56 145.5v193h-136v121zM262 247v-61q0 -34 23 -56t61 -22q36 0 60 22t24 50q0 30 -20 48.5t-56 18.5h-92z" />
    <glyph glyph-name="uni044E.loclBGR" horiz-adv-x="811" 
d="M59 700h129v-389h72q20 89 90 146t164 57q111 0 188 -76.5t77 -187.5t-77 -187.5t-188 -76.5q-94 0 -164 57t-90 147h-72v-190h-129v700zM379 250q0 -60 38.5 -99t96.5 -39t97 39t39 99t-39 99t-97 39t-96.5 -39t-38.5 -99z" />
    <glyph glyph-name="uni0430.ss01" horiz-adv-x="626" 
d="M33 250q0 111 71.5 187.5t171.5 76.5q105 0 163 -73v59h129v-500h-129v59q-58 -73 -163 -73q-100 0 -171.5 76.5t-71.5 187.5zM300 391q-60 0 -99 -39.5t-39 -101.5t39 -101.5t99 -39.5t99.5 39.5t39.5 101.5t-39.5 101.5t-99.5 39.5z" />
    <glyph glyph-name="uni0443.ss01" horiz-adv-x="532" 
d="M46 500h129v-310q0 -41 22 -62.5t57 -21.5q41 0 66 25.5t25 79.5v289h129v-518q0 -97 -58.5 -146.5t-148.5 -49.5q-87 0 -145 45t-58 124h126q0 -27 20.5 -42t55.5 -15q79 0 79 84v69q-43 -65 -136 -65q-72 0 -117.5 52.5t-45.5 142.5v319z" />
    <glyph glyph-name="zero.sinf" horiz-adv-x="409" 
d="M204 -174q-83 0 -132 58t-49 156t49 156t132 58t132.5 -58t49.5 -156t-49.5 -156t-132.5 -58zM204 -67q35 0 53.5 27.5t18.5 79.5t-18.5 79.5t-53.5 27.5q-34 0 -52.5 -27.5t-18.5 -79.5t18.5 -79.5t52.5 -27.5z" />
    <glyph glyph-name="one.sinf" horiz-adv-x="267" 
d="M112 240h107v-400h-107v292l-99 -53v107z" />
    <glyph glyph-name="two.sinf" horiz-adv-x="356" 
d="M30 -160v70l151 149q34 34 34 62q0 16 -10 25.5t-28 9.5q-43 0 -43 -44h-108q0 68 43 105t108 37t105.5 -34.5t40.5 -96.5q0 -58 -68 -124l-65 -62h140v-97h-300z" />
    <glyph glyph-name="three.sinf" horiz-adv-x="348" 
d="M235 75q42 -13 65.5 -42.5t23.5 -71.5q0 -64 -41.5 -99.5t-113.5 -35.5q-73 0 -114 35t-41 100h108q0 -41 47 -41t47 41q0 40 -47 40h-60v61l66 81h-145v97h275v-79z" />
    <glyph glyph-name="four.sinf" horiz-adv-x="357" 
d="M11 2l129 238h114l-124 -238h68v69h102v-69h41v-98h-41v-64h-102v64h-187v98z" />
    <glyph glyph-name="five.sinf" horiz-adv-x="334" 
d="M169 89q66 0 104.5 -33t38.5 -99q0 -63 -40.5 -97t-106.5 -34t-106.5 34.5t-40.5 98.5h98q0 -19 13 -30t36 -11q48 0 48 41q0 19 -13 31t-35 12h-133l16 238h244v-97h-149l-4 -54h30z" />
    <glyph glyph-name="six.sinf" horiz-adv-x="340" 
d="M185 110q63 -4 101 -43t38 -98q0 -63 -42.5 -103t-111.5 -40t-111.5 40t-42.5 103q0 40 19 73l125 198h110zM170 -84q25 0 40 14t15 39q0 24 -15 37.5t-40 13.5t-39.5 -13.5t-14.5 -37.5q0 -25 15 -39t39 -14z" />
    <glyph glyph-name="seven.sinf" horiz-adv-x="295" 
d="M3 240h276v-82l-126 -318h-111l121 303h-160v97z" />
    <glyph glyph-name="eight.sinf" horiz-adv-x="349" 
d="M270 50q58 -34 58 -101q0 -56 -40.5 -89.5t-112.5 -33.5t-113 33.5t-41 89.5q0 67 59 101q-45 31 -45 84q0 55 39.5 87.5t100.5 32.5t100.5 -32.5t39.5 -87.5q0 -52 -45 -84zM175 163q-48 0 -48 -38q0 -39 48 -39q21 0 34.5 10.5t13.5 28.5t-13.5 28t-34.5 10zM175 -82
q25 0 38.5 12.5t13.5 33.5q0 20 -14 32.5t-38 12.5q-25 0 -39 -12t-14 -33t14 -33.5t39 -12.5z" />
    <glyph glyph-name="nine.sinf" horiz-adv-x="340" 
d="M324 111q0 -40 -19 -73l-124 -198h-111l85 130q-63 4 -101 43t-38 98q0 63 42.5 103t111.5 40t111.5 -40t42.5 -103zM116 111q0 -24 14.5 -37.5t39.5 -13.5t40 13.5t15 37.5q0 25 -15 39t-40 14q-24 0 -39 -14t-15 -39z" />
    <glyph glyph-name="zero.tf" horiz-adv-x="578" 
d="M289 -14q-132 0 -206 99.5t-74 264.5t74 264.5t206 99.5q131 0 205.5 -99.5t74.5 -264.5t-74.5 -264.5t-205.5 -99.5zM289 121q70 0 106 58.5t36 170.5t-36 171t-106 59t-106.5 -59t-36.5 -171q0 -111 36.5 -170t106.5 -59z" />
    <glyph glyph-name="one.tf" horiz-adv-x="578" 
d="M559 0h-530v132h210v430l-170 -95v135l170 98h137v-568h183v-132z" />
    <glyph glyph-name="two.tf" horiz-adv-x="578" 
d="M38 0v103l255 231q48 43 74 77t26 69q0 45 -28.5 72.5t-76.5 27.5q-50 0 -81.5 -27.5t-31.5 -75.5h-137q0 76 38 131.5t93 80.5t116 25q98 0 171.5 -62.5t73.5 -171.5q0 -115 -143 -231l-144 -116h298v-133h-503z" />
    <glyph glyph-name="three.tf" horiz-adv-x="578" 
d="M382 424q77 -21 123 -73t46 -131q0 -109 -76 -171.5t-190 -62.5q-113 0 -189.5 62.5t-76.5 171.5h137q0 -47 33 -73t96 -26t96 26t33 73q0 46 -33 72.5t-96 26.5h-75v91l137 161h-300v129h472v-114z" />
    <glyph glyph-name="four.tf" horiz-adv-x="578" 
d="M9 247l232 453h148l-232 -453h190v161h139v-161h75v-128h-75v-119h-139v119h-338v128z" />
    <glyph glyph-name="five.tf" horiz-adv-x="578" 
d="M296 445q111 0 182 -60t71 -169q0 -108 -74 -169t-186 -61t-186 61t-74 169h137q0 -44 31.5 -69.5t91.5 -25.5t91 25.5t31 69.5q0 43 -31 69t-91 26h-228l28 389h427v-129h-299l-9 -126h88z" />
    <glyph glyph-name="six.tf" horiz-adv-x="578" 
d="M291 480q121 -1 193 -69t72 -178q0 -111 -73.5 -179t-196.5 -68t-196.5 68t-73.5 179q0 88 46 149l229 318h159zM286 116q61 0 97 31t36 86t-36 86.5t-97 31.5t-96.5 -31t-35.5 -87q0 -55 35.5 -86t96.5 -31z" />
    <glyph glyph-name="seven.tf" horiz-adv-x="578" 
d="M25 700h520v-117l-265 -583h-145l256 568h-366v132z" />
    <glyph glyph-name="eight.tf" horiz-adv-x="578" 
d="M456 364q103 -58 103 -169q0 -96 -72 -152.5t-198 -56.5t-198 56.5t-72 152.5q0 112 102 169q-78 52 -78 145q0 97 69.5 151t176.5 54q106 0 176 -54t70 -151q0 -93 -79 -145zM289 584q-51 0 -80 -22t-29 -60t29 -60.5t80 -22.5t80 22.5t29 60.5t-29 60t-80 22zM289 116
q64 0 98.5 25.5t34.5 71.5t-34.5 71t-98.5 25t-98.5 -25t-34.5 -71t34.5 -71.5t98.5 -25.5z" />
    <glyph glyph-name="nine.tf" horiz-adv-x="578" 
d="M561 467q0 -88 -46 -149l-228 -318h-159l159 220q-122 1 -194 69t-72 178q0 111 73.5 179t196.5 68q124 0 197 -68t73 -179zM159 467q0 -55 35.5 -86t96.5 -31q62 0 97.5 30.5t35.5 86.5t-35.5 86.5t-97.5 30.5q-61 0 -96.5 -31t-35.5 -86z" />
    <glyph glyph-name="zero.dnom" horiz-adv-x="409" 
d="M204 -14q-83 0 -132 58t-49 156t49 156t132 58t132.5 -58t49.5 -156t-49.5 -156t-132.5 -58zM204 93q35 0 53.5 27.5t18.5 79.5t-18.5 79.5t-53.5 27.5q-34 0 -52.5 -27.5t-18.5 -79.5t18.5 -79.5t52.5 -27.5z" />
    <glyph glyph-name="one.dnom" horiz-adv-x="267" 
d="M112 400h107v-400h-107v292l-99 -53v107z" />
    <glyph glyph-name="two.dnom" horiz-adv-x="356" 
d="M30 0v71l151 148q34 34 34 62q0 16 -10 25.5t-28 9.5q-43 0 -43 -44h-108q0 68 43 105t108 37t105.5 -34.5t40.5 -96.5q0 -58 -68 -124l-65 -61h140v-98h-300z" />
    <glyph glyph-name="three.dnom" horiz-adv-x="348" 
d="M235 235q89 -27 89 -114q0 -64 -41.5 -99.5t-113.5 -35.5q-73 0 -114 35t-41 100h108q0 -41 47 -41t47 41q0 40 -47 40h-60v61l67 81h-146v97h275v-79z" />
    <glyph glyph-name="four.dnom" horiz-adv-x="357" 
d="M11 162l129 238h114l-123 -238h67v69h102v-69h41v-97h-41v-65h-102v65h-187v97z" />
    <glyph glyph-name="five.dnom" horiz-adv-x="334" 
d="M168 249q65 0 104 -33t39 -99q0 -63 -40.5 -97t-106.5 -34t-107 34.5t-41 98.5h99q0 -18 13 -29.5t36 -11.5t35.5 11.5t12.5 29.5q0 20 -13 31.5t-35 11.5h-133l16 238h244v-97h-149l-4 -54h30z" />
    <glyph glyph-name="six.dnom" horiz-adv-x="340" 
d="M185 270q63 -4 101 -43t38 -98q0 -63 -42.5 -103t-111.5 -40t-111.5 40t-42.5 103q0 40 19 73l125 198h110zM170 77q25 0 40 14t15 38t-15 37.5t-40 13.5t-39.5 -13.5t-14.5 -37.5t15 -38t39 -14z" />
    <glyph glyph-name="seven.dnom" horiz-adv-x="295" 
d="M3 400h276v-82l-126 -318h-111l121 303h-160v97z" />
    <glyph glyph-name="eight.dnom" horiz-adv-x="349" 
d="M270 210q58 -34 58 -101q0 -56 -40.5 -89.5t-112.5 -33.5t-113 33.5t-41 89.5q0 67 59 101q-45 31 -45 84q0 55 39.5 87.5t100.5 32.5t100.5 -32.5t39.5 -87.5q0 -53 -45 -84zM175 323q-48 0 -48 -38q0 -39 48 -39q21 0 34.5 10.5t13.5 28.5t-13.5 28t-34.5 10zM175 78
q25 0 38.5 12.5t13.5 33.5q0 20 -14 32.5t-38 12.5q-25 0 -39 -12t-14 -33t14 -33.5t39 -12.5z" />
    <glyph glyph-name="nine.dnom" horiz-adv-x="340" 
d="M324 271q0 -40 -19 -73l-124 -198h-111l85 130q-63 4 -101 43.5t-38 97.5q0 63 42.5 103t111.5 40t111.5 -40t42.5 -103zM116 271q0 -24 14.5 -37.5t39.5 -13.5t40 13.5t15 37.5q0 25 -15 39t-40 14q-24 0 -39 -14t-15 -39z" />
    <glyph glyph-name="zero.numr" horiz-adv-x="409" 
d="M204 287q-83 0 -132 57.5t-49 155.5t49 156t132 58t132.5 -58t49.5 -156t-49.5 -155.5t-132.5 -57.5zM204 393q35 0 53.5 27.5t18.5 79.5t-18.5 79.5t-53.5 27.5q-34 0 -52.5 -27.5t-18.5 -79.5t18.5 -79.5t52.5 -27.5z" />
    <glyph glyph-name="one.numr" horiz-adv-x="267" 
d="M112 700h107v-400h-107v292l-99 -53v107z" />
    <glyph glyph-name="two.numr" horiz-adv-x="356" 
d="M30 300v71l151 148q34 34 34 62q0 16 -10 25.5t-28 9.5q-43 0 -43 -44h-108q0 68 43 105t108 37t105.5 -34.5t40.5 -96.5q0 -58 -68 -124l-65 -61h140v-98h-300z" />
    <glyph glyph-name="three.numr" horiz-adv-x="348" 
d="M235 535q89 -27 89 -114q0 -64 -41.5 -99t-113.5 -35q-73 0 -114 34.5t-41 99.5h108q0 -41 47 -41t47 41q0 40 -47 40h-60v61l67 81h-146v97h275v-79z" />
    <glyph glyph-name="four.numr" horiz-adv-x="357" 
d="M11 462l129 238h114l-123 -238h67v69h102v-69h41v-97h-41v-65h-102v65h-187v97z" />
    <glyph glyph-name="five.numr" horiz-adv-x="334" 
d="M168 549q65 0 104 -33t39 -99q0 -63 -40.5 -96.5t-106.5 -33.5t-107 34t-41 98h99q0 -18 13 -29.5t36 -11.5t35.5 11.5t12.5 29.5q0 20 -13 31.5t-35 11.5h-133l16 238h244v-97h-149l-4 -54h30z" />
    <glyph glyph-name="six.numr" horiz-adv-x="340" 
d="M185 570q63 -4 101 -43t38 -98q0 -63 -42.5 -102.5t-111.5 -39.5t-111.5 39.5t-42.5 102.5q0 40 19 73l125 198h110zM170 377q25 0 40 14t15 38t-15 37.5t-40 13.5t-39.5 -13.5t-14.5 -37.5t15 -38t39 -14z" />
    <glyph glyph-name="seven.numr" horiz-adv-x="295" 
d="M3 700h276v-82l-126 -318h-111l121 303h-160v97z" />
    <glyph glyph-name="eight.numr" horiz-adv-x="349" 
d="M270 510q58 -34 58 -101q0 -56 -40.5 -89t-112.5 -33t-113 33t-41 89q0 67 59 101q-45 31 -45 84q0 55 39.5 87.5t100.5 32.5t100.5 -32.5t39.5 -87.5q0 -53 -45 -84zM175 623q-48 0 -48 -38q0 -39 48 -39q21 0 34.5 10.5t13.5 28.5t-13.5 28t-34.5 10zM175 378
q25 0 38.5 12.5t13.5 33.5q0 20 -14 32.5t-38 12.5q-25 0 -39 -12t-14 -33t14 -33.5t39 -12.5z" />
    <glyph glyph-name="nine.numr" horiz-adv-x="340" 
d="M324 571q0 -40 -19 -73l-124 -198h-111l85 130q-63 4 -101 43.5t-38 97.5q0 63 42.5 103t111.5 40t111.5 -40t42.5 -103zM116 571q0 -24 14.5 -37.5t39.5 -13.5t40 13.5t15 37.5q0 25 -15 39t-40 14q-24 0 -39 -14t-15 -39z" />
    <glyph glyph-name="zero.sups" horiz-adv-x="409" 
d="M204 447q-83 0 -132 57.5t-49 155.5t49 156t132 58t132.5 -58t49.5 -156t-49.5 -155.5t-132.5 -57.5zM204 553q35 0 53.5 27.5t18.5 79.5t-18.5 79.5t-53.5 27.5q-34 0 -52.5 -27.5t-18.5 -79.5t18.5 -79.5t52.5 -27.5z" />
    <glyph glyph-name="one.sups" horiz-adv-x="267" 
d="M112 860h107v-400h-107v292l-99 -53v107z" />
    <glyph glyph-name="two.sups" horiz-adv-x="356" 
d="M30 460v71l151 148q34 34 34 62q0 16 -10 25.5t-28 9.5q-43 0 -43 -44h-108q0 68 43 105t108 37t105.5 -34.5t40.5 -96.5q0 -58 -68 -124l-65 -61h140v-98h-300z" />
    <glyph glyph-name="three.sups" horiz-adv-x="348" 
d="M235 695q89 -27 89 -114q0 -64 -41.5 -99t-113.5 -35q-73 0 -114 34.5t-41 99.5h108q0 -41 47 -41t47 41q0 40 -47 40h-60v61l67 81h-146v97h275v-79z" />
    <glyph glyph-name="four.sups" horiz-adv-x="357" 
d="M11 622l129 238h114l-123 -238h67v69h102v-69h41v-97h-41v-65h-102v65h-187v97z" />
    <glyph glyph-name="five.sups" horiz-adv-x="334" 
d="M168 709q65 0 104 -33t39 -99q0 -63 -40.5 -96.5t-106.5 -33.5t-107 34t-41 98h99q0 -18 13 -29.5t36 -11.5t35.5 11.5t12.5 29.5q0 20 -13 31.5t-35 11.5h-133l16 238h244v-97h-149l-4 -54h30z" />
    <glyph glyph-name="six.sups" horiz-adv-x="340" 
d="M185 730q63 -4 101 -43t38 -98q0 -63 -42.5 -102.5t-111.5 -39.5t-111.5 39.5t-42.5 102.5q0 40 19 73l125 198h110zM170 537q25 0 40 14t15 38t-15 37.5t-40 13.5t-39.5 -13.5t-14.5 -37.5t15 -38t39 -14z" />
    <glyph glyph-name="seven.sups" horiz-adv-x="295" 
d="M3 860h276v-82l-126 -318h-111l121 303h-160v97z" />
    <glyph glyph-name="eight.sups" horiz-adv-x="349" 
d="M270 670q58 -34 58 -101q0 -56 -40.5 -89t-112.5 -33t-113 33t-41 89q0 67 59 101q-45 31 -45 84q0 55 39.5 87.5t100.5 32.5t100.5 -32.5t39.5 -87.5q0 -53 -45 -84zM175 783q-48 0 -48 -38q0 -39 48 -39q21 0 34.5 10.5t13.5 28.5t-13.5 28t-34.5 10zM175 538
q25 0 38.5 12.5t13.5 33.5q0 20 -14 32.5t-38 12.5q-25 0 -39 -12t-14 -33t14 -33.5t39 -12.5z" />
    <glyph glyph-name="nine.sups" horiz-adv-x="340" 
d="M324 731q0 -40 -19 -73l-124 -198h-111l85 130q-63 4 -101 43.5t-38 97.5q0 63 42.5 103t111.5 40t111.5 -40t42.5 -103zM116 731q0 -24 14.5 -37.5t39.5 -13.5t40 13.5t15 37.5q0 25 -15 39t-40 14q-24 0 -39 -14t-15 -39z" />
    <glyph glyph-name="cent.tf" horiz-adv-x="578" 
d="M306 214q40 0 70.5 18.5t43.5 50.5h136q-17 -86 -87 -141t-163 -55q-34 0 -68 8l-31 -95h-57l36 114q-66 32 -105 94.5t-39 141.5q0 112 75.5 188t188.5 76q20 0 41 -3l29 89h57l-33 -103q60 -22 101.5 -69.5t54.5 -109.5h-136q-17 41 -59 58l-84 -259q13 -3 29 -3z
M171 350q0 -73 56 -111l80 248h-1q-58 0 -96.5 -38.5t-38.5 -98.5z" />
    <glyph glyph-name="dollar.tf" horiz-adv-x="578" 
d="M33 216h137q0 -80 87 -93v171q-49 16 -79 29.5t-65.5 37.5t-53 61t-17.5 86q0 89 61 143t154 61v88h67v-89q91 -10 148.5 -67t57.5 -156h-134q0 73 -72 88v-169q43 -14 65 -22.5t57 -27t53 -38.5t32 -52.5t14 -72.5q0 -90 -62.5 -144.5t-158.5 -61.5v-88h-67v88
q-101 10 -162.5 67.5t-61.5 160.5zM324 271v-149q41 5 62.5 25t21.5 47q0 46 -84 77zM180 508q0 -27 19.5 -44.5t57.5 -32.5v147q-38 -6 -57.5 -25t-19.5 -45z" />
    <glyph glyph-name="Euro.tf" horiz-adv-x="578" 
d="M66 257h-61v78h55v39h-55v77h62q18 123 82.5 193t167.5 70q102 0 169 -69t80 -186h-140q-4 57 -34 89t-75 32q-91 0 -112 -129h178v-77h-185q-1 -8 -1 -24v-15h186v-78h-180q21 -136 114 -136q46 0 76.5 33.5t34.5 94.5h140q-11 -120 -78.5 -191.5t-172.5 -71.5
t-169.5 72.5t-81.5 198.5z" />
    <glyph glyph-name="florin.tf" horiz-adv-x="578" 
d="M23 -201v128q26 -8 46 -8q61 0 78 64l84 307h-119v124h153l35 131q23 85 72 127t117 42q31 0 66 -9v-129q-25 9 -46 9q-61 0 -79 -65l-29 -106h122v-124h-156l-90 -331q-46 -169 -188 -169q-31 0 -66 9z" />
    <glyph glyph-name="uni20BD.tf" horiz-adv-x="578" 
d="M85 243h-75v121h75v336h234q99 0 167.5 -68t68.5 -164t-68 -160.5t-168 -64.5h-96v-55h195v-88h-195v-100h-138v100h-75v88h75v55zM223 571v-207h96q42 0 70.5 30t28.5 74t-28.5 73.5t-70.5 29.5h-96z" />
    <glyph glyph-name="sterling.tf" horiz-adv-x="578" 
d="M8 0v133h73v124h-61v120h61v116q0 106 66 163.5t157 57.5t157.5 -57.5t66.5 -163.5v-43h-137v43q0 42 -24.5 64.5t-62.5 22.5t-62 -22.5t-24 -64.5v-116h196v-120h-196v-124h335v-133h-545z" />
    <glyph glyph-name="yen.tf" horiz-adv-x="578" 
d="M2 700h156l131 -252l131 252h156l-191 -338h134v-80h-161v-45h161v-81h-161v-156h-138v156h-161v81h161v45h-161v80h134z" />
    <glyph glyph-name="brevecy" horiz-adv-x="360" 
d="M35 564v112h290v-112h-290z" />
    </font>
</defs>
</svg>
